<?xml version="1.0" encoding="UTF-8" standalone="no"?>
<svg
   xmlns:dc="http://purl.org/dc/elements/1.1/"
   xmlns:cc="http://creativecommons.org/ns#"
   xmlns:rdf="http://www.w3.org/1999/02/22-rdf-syntax-ns#"
   xmlns:svg="http://www.w3.org/2000/svg"
   xmlns="http://www.w3.org/2000/svg"
   version="1.0"
   id="svg2"
   height="111.99989"
   width="60.999729">
  <defs
     id="defs4" />
  <metadata
     id="metadata7">
    <rdf:RDF>
      <cc:Work
         rdf:about="">
        <dc:format>image/svg+xml</dc:format>
        <dc:type
           rdf:resource="http://purl.org/dc/dcmitype/StillImage" />
        <dc:title></dc:title>
      </cc:Work>
    </rdf:RDF>
  </metadata>
  <g
     transform="translate(0,-940.3623)"
     style="display:inline"
     id="layer1">
    <rect
       ry="4.5875664"
       height="111.87489"
       x="0.0625"
       y="940.4248"
       width="60.874729"
       id="rect2160"
       style="fill:#ffffff;fill-opacity:1;fill-rule:evenodd;stroke:#000000;stroke-width:0.10020415;stroke-linecap:butt;stroke-linejoin:round;stroke-miterlimit:79.19999695;stroke-dasharray:none;stroke-opacity:1" />
    <g
       transform="translate(-17,-1)"
       id="g3480">
      <g
         id="g8373"
         style="fill-rule:nonzero;stroke:none;stroke-miterlimit:4"
         transform="matrix(0.462414,0,0,0.4535924,-25.250437,939.44643)">
        <g
           id="g8375">
          <path
             id="path8377"
             d="M 126.56934,46.111328 C 123.09082,46.115234 121.26074,42.404785 120.2998,38.695313 C 119.33887,34.984375 119.24902,31.271973 119.24902,31.271973 L 117.47363,31.254395 C 117.47363,31.254395 117.14062,46.101563 110.18262,46.10791 L 126.56934,46.111328 L 126.56934,46.111328 z" />
        </g>
        <path
           id="path8379"
           d="M 132.45801,31.268555 C 132.42676,24.025879 121.58496,18.773438 118.39941,13.041992 C 115.21777,18.773438 104.37402,24.025879 104.34473,31.268555 C 104.3291,34.688477 107.49121,37.458496 111.37207,37.458496 C 115.25293,37.458496 118.39941,34.688477 118.39941,31.268555 C 118.39941,34.688477 121.54785,37.458496 125.42871,37.458496 C 129.31152,37.458496 132.45801,34.688477 132.45801,31.268555 L 132.45801,31.268555 z" />
      </g>
      <rect
         style="fill:#ffffff;fill-opacity:1;stroke:#000000;stroke-width:0;stroke-linejoin:miter;stroke-miterlimit:79.19999695;stroke-dasharray:none;stroke-opacity:1"
         id="rect2509"
         width="3"
         height="15"
         x="23"
         y="945.36218"
         ry="0" />
    </g>
    <text
       transform="scale(1.0776507,0.9279445)"
       id="text7838"
       y="1025.0713"
       x="0.53427112"
       style="font-size:11.81454372px;font-style:normal;font-weight:normal;fill:#000000;fill-opacity:1;stroke:none;stroke-width:1px;stroke-linecap:butt;stroke-linejoin:miter;stroke-opacity:1;font-family:Bitstream Vera Sans"
       xml:space="preserve"><tspan
         style="font-size:10.89517784px;font-family:Times New Roman"
         y="1025.0713"
         x="0.53427112"
         id="tspan7840">C</tspan></text>
    <g
       id="g8560"
       style="fill-rule:nonzero;stroke:none;stroke-miterlimit:4"
       transform="matrix(0.1422812,0,0,0.1511975,-11.346285,950.39027)">
      <g
         id="g8562">
        <path
           id="path8564"
           d="M 126.56934,46.111328 C 123.09082,46.115234 121.26074,42.404785 120.2998,38.695313 C 119.33887,34.984375 119.24902,31.271973 119.24902,31.271973 L 117.47363,31.254395 C 117.47363,31.254395 117.14062,46.101563 110.18262,46.10791 L 126.56934,46.111328 L 126.56934,46.111328 z" />
      </g>
      <path
         id="path8566"
         d="M 132.45801,31.268555 C 132.42676,24.025879 121.58496,18.773438 118.39941,13.041992 C 115.21777,18.773438 104.37402,24.025879 104.34473,31.268555 C 104.3291,34.688477 107.49121,37.458496 111.37207,37.458496 C 115.25293,37.458496 118.39941,34.688477 118.39941,31.268555 C 118.39941,34.688477 121.54785,37.458496 125.42871,37.458496 C 129.31152,37.458496 132.45801,34.688477 132.45801,31.268555 L 132.45801,31.268555 z" />
    </g>
    <g
       transform="matrix(0.1422812,0,0,0.1511975,38.653715,950.39026)"
       style="fill-rule:nonzero;stroke:none;stroke-miterlimit:4"
       id="g8576">
      <g
         id="g8578">
        <path
           d="M 126.56934,46.111328 C 123.09082,46.115234 121.26074,42.404785 120.2998,38.695313 C 119.33887,34.984375 119.24902,31.271973 119.24902,31.271973 L 117.47363,31.254395 C 117.47363,31.254395 117.14062,46.101563 110.18262,46.10791 L 126.56934,46.111328 L 126.56934,46.111328 z"
           id="path8580" />
      </g>
      <path
         d="M 132.45801,31.268555 C 132.42676,24.025879 121.58496,18.773438 118.39941,13.041992 C 115.21777,18.773438 104.37402,24.025879 104.34473,31.268555 C 104.3291,34.688477 107.49121,37.458496 111.37207,37.458496 C 115.25293,37.458496 118.39941,34.688477 118.39941,31.268555 C 118.39941,34.688477 121.54785,37.458496 125.42871,37.458496 C 129.31152,37.458496 132.45801,34.688477 132.45801,31.268555 L 132.45801,31.268555 z"
         id="path8582" />
    </g>
    <g
       transform="matrix(0.1422812,0,0,-0.1511975,-11.346285,1042.3341)"
       style="fill-rule:nonzero;stroke:none;stroke-miterlimit:4"
       id="g8592">
      <g
         id="g8594">
        <path
           d="M 126.56934,46.111328 C 123.09082,46.115234 121.26074,42.404785 120.2998,38.695313 C 119.33887,34.984375 119.24902,31.271973 119.24902,31.271973 L 117.47363,31.254395 C 117.47363,31.254395 117.14062,46.101563 110.18262,46.10791 L 126.56934,46.111328 L 126.56934,46.111328 z"
           id="path8596" />
      </g>
      <path
         d="M 132.45801,31.268555 C 132.42676,24.025879 121.58496,18.773438 118.39941,13.041992 C 115.21777,18.773438 104.37402,24.025879 104.34473,31.268555 C 104.3291,34.688477 107.49121,37.458496 111.37207,37.458496 C 115.25293,37.458496 118.39941,34.688477 118.39941,31.268555 C 118.39941,34.688477 121.54785,37.458496 125.42871,37.458496 C 129.31152,37.458496 132.45801,34.688477 132.45801,31.268555 L 132.45801,31.268555 z"
         id="path8598" />
    </g>
    <g
       transform="matrix(-1,0,0,-1,78,1993.7244)"
       id="g3511">
      <g
         id="g3513"
         style="fill-rule:nonzero;stroke:none;stroke-miterlimit:4"
         transform="matrix(0.462414,0,0,0.4535924,-25.250437,939.44643)">
        <g
           id="g3515">
          <path
             id="path3517"
             d="M 126.56934,46.111328 C 123.09082,46.115234 121.26074,42.404785 120.2998,38.695313 C 119.33887,34.984375 119.24902,31.271973 119.24902,31.271973 L 117.47363,31.254395 C 117.47363,31.254395 117.14062,46.101563 110.18262,46.10791 L 126.56934,46.111328 L 126.56934,46.111328 z" />
        </g>
        <path
           id="path3519"
           d="M 132.45801,31.268555 C 132.42676,24.025879 121.58496,18.773438 118.39941,13.041992 C 115.21777,18.773438 104.37402,24.025879 104.34473,31.268555 C 104.3291,34.688477 107.49121,37.458496 111.37207,37.458496 C 115.25293,37.458496 118.39941,34.688477 118.39941,31.268555 C 118.39941,34.688477 121.54785,37.458496 125.42871,37.458496 C 129.31152,37.458496 132.45801,34.688477 132.45801,31.268555 L 132.45801,31.268555 z" />
      </g>
      <rect
         style="fill:#ffffff;fill-opacity:1;stroke:#000000;stroke-width:0;stroke-linejoin:miter;stroke-miterlimit:79.19999695;stroke-dasharray:none;stroke-opacity:1"
         id="rect3521"
         width="3"
         height="15"
         x="23"
         y="945.36218"
         ry="0" />
    </g>
    <g
       id="g8584"
       style="fill-rule:nonzero;stroke:none;stroke-miterlimit:4"
       transform="matrix(0.1422812,0,0,-0.1511975,38.653715,1042.3341)">
      <g
         id="g8586">
        <path
           id="path8588"
           d="M 126.56934,46.111328 C 123.09082,46.115234 121.26074,42.404785 120.2998,38.695313 C 119.33887,34.984375 119.24902,31.271973 119.24902,31.271973 L 117.47363,31.254395 C 117.47363,31.254395 117.14062,46.101563 110.18262,46.10791 L 126.56934,46.111328 L 126.56934,46.111328 z" />
      </g>
      <path
         id="path8590"
         d="M 132.45801,31.268555 C 132.42676,24.025879 121.58496,18.773438 118.39941,13.041992 C 115.21777,18.773438 104.37402,24.025879 104.34473,31.268555 C 104.3291,34.688477 107.49121,37.458496 111.37207,37.458496 C 115.25293,37.458496 118.39941,34.688477 118.39941,31.268555 C 118.39941,34.688477 121.54785,37.458496 125.42871,37.458496 C 129.31152,37.458496 132.45801,34.688477 132.45801,31.268555 L 132.45801,31.268555 z" />
    </g>
    <text
       xml:space="preserve"
       style="font-size:11.81440926px;font-style:normal;font-weight:normal;fill:#000000;fill-opacity:1;stroke:none;stroke-width:1px;stroke-linecap:butt;stroke-linejoin:miter;stroke-opacity:1;font-family:Bitstream Vera Sans"
       x="48.786812"
       y="1025.0831"
       id="text21782"
       transform="scale(1.0776633,0.9279336)"><tspan
         id="tspan21784"
         x="48.786812"
         y="1025.0831"
         style="font-size:10.89505386px;font-family:Times New Roman">C</tspan></text>
    <text
       transform="scale(-1.0776609,-0.9279356)"
       id="text21786"
       y="-1122.4003"
       x="-56.069809"
       style="font-size:11.81443214px;font-style:normal;font-weight:normal;fill:#000000;fill-opacity:1;stroke:none;stroke-width:1px;stroke-linecap:butt;stroke-linejoin:miter;stroke-opacity:1;font-family:Bitstream Vera Sans"
       xml:space="preserve"><tspan
         style="font-size:10.89507484px;font-family:Times New Roman"
         y="-1122.4003"
         x="-56.069809"
         id="tspan21788">C</tspan></text>
    <text
       xml:space="preserve"
       style="font-size:11.81443214px;font-style:normal;font-weight:normal;fill:#000000;fill-opacity:1;stroke:none;stroke-width:1px;stroke-linecap:butt;stroke-linejoin:miter;stroke-opacity:1;font-family:Bitstream Vera Sans"
       x="-7.8171554"
       y="-1122.4003"
       id="text21790"
       transform="scale(-1.0776609,-0.9279356)"><tspan
         id="tspan21792"
         x="-7.8171554"
         y="-1122.4003"
         style="font-size:10.89507484px;font-family:Times New Roman">C</tspan></text>
    <path
       id="path21798"
       d="M 52,1032.3622 L 52,954.36218 L 20,954.36218"
       style="fill:none;fill-rule:evenodd;stroke:#000000;stroke-width:0.5;stroke-linecap:butt;stroke-linejoin:miter;stroke-miterlimit:4;stroke-dasharray:none;stroke-opacity:1" />
    <path
       id="path21802"
       d="M 9,960.36218 L 9,1038.3622 L 41,1038.3622"
       style="fill:none;fill-rule:evenodd;stroke:#000000;stroke-width:0.5;stroke-linecap:butt;stroke-linejoin:miter;stroke-miterlimit:4;stroke-dasharray:none;stroke-opacity:1" />
    <g
       id="layer1-0"
       transform="matrix(0.07581916,0,0,0.06932261,1.2117024,965.21076)">
      <g
         id="g13798"
         transform="translate(-641.16667,-73.322491)">
        <g
           id="g8962"
           transform="matrix(0.3926312,0,0,0.3724982,-135.17644,399.37955)">
          <g
             id="g8964">
            <path
               id="path8966"
               d="m 2417.1034,230.14367 c 20.6758,40.49153 45.4058,92.36905 64.5179,86.02392 4.1221,-1.73603 5.463,-11.81574 -0.7051,-44.42219 l -37.371,-73.68443 c -5.1708,-8.3755 -19.8607,-2.03259 -20.8009,6.69859 l -5.6409,25.38411 z"
               style="fill:#eac102;fill-rule:evenodd;stroke:#000000;stroke-width:2.61484241px;stroke-linecap:butt;stroke-linejoin:miter;stroke-opacity:1" />
            <path
               style="fill:#eac102;fill-rule:evenodd;stroke:#000000;stroke-width:2.61484241px;stroke-linecap:butt;stroke-linejoin:miter;stroke-opacity:1"
               d="m 2448.75,274.90625 6.8125,-19.96875 c -13.8149,-17.77489 -35.1635,-50.18123 -58.0313,-90.46875 -4.7277,-8.33714 -20.9265,-3.41756 -17.0624,5.84375 30.869,58.46136 52.8047,89.21656 68.2812,104.59375 z"
               id="path8968" />
          </g>
          <g
             id="g8970">
            <path
               style="fill:#eac102;fill-rule:evenodd;stroke:#000000;stroke-width:2.61484241px;stroke-linecap:butt;stroke-linejoin:miter;stroke-opacity:1"
               d="m 3496.7613,230.14367 c -20.6758,40.49153 -45.4058,92.36905 -64.5179,86.02392 -4.1221,-1.73603 -5.463,-11.81574 0.7051,-44.42219 l 37.371,-73.68443 c 5.1708,-8.3755 19.8607,-2.03259 20.8009,6.69859 l 5.6409,25.38411 z"
               id="path8972" />
            <path
               style="fill:#eac102;fill-rule:evenodd;stroke:#000000;stroke-width:2.61484241px;stroke-linecap:butt;stroke-linejoin:miter;stroke-opacity:1"
               d="m 3458.0938,255.1875 6.8124,19.96875 c 15.4881,-15.30082 37.4816,-46.09948 68.5,-104.84375 3.8641,-9.26131 -12.3348,-14.18089 -17.0624,-5.84375 -22.9748,40.47599 -44.443,73.00074 -58.25,90.71875 z"
               id="path8974" />
          </g>
        </g>
        <g
           transform="matrix(1,0,0,0.948723,-307.28581,285.54408)"
           id="g8976">
          <g
             transform="matrix(0.3926312,0,0,0.3676466,172.09834,125.47082)"
             id="g8978">
            <path
               style="fill:#eac102;fill-rule:evenodd;stroke:#000000;stroke-width:2.70223188;stroke-linecap:round;stroke-linejoin:round;stroke-miterlimit:4;stroke-opacity:1;stroke-dasharray:none"
               d="m 2259.2204,-21.283662 13.5127,-10.69977 c 38.7245,-10.031734 73.2534,26.8272673 73.0253,42.666284 9.6794,-8.8057395 19.3588,-5.7881781 29.0382,-5.2796724 -5.7251,18.9206564 -0.1378,33.0145444 -6.8636,53.3246894 8.9688,2.784611 15.989,6.738417 17.9509,13.727148 l 8.9754,-5.80764 11.0873,-0.527967 c 2.1216,52.75337 -15.0802,41.15878 -11.6152,60.71623 l 18.4788,-22.70259 20.0628,2.11187 c 9.8196,1.86427 12.6267,13.46219 23.2305,14.78308 -7.4831,10.11579 -12.0387,27.91081 -19.0068,40.12551 -8.5556,6.21222 -16.0753,5.1735 -23.2306,1.5839 23.3337,8.58781 29.4491,28.73746 38.5417,39.59754 -9.5595,0.52797 -18.1418,1.58391 -22.1746,2.11188 14.7377,21.02796 23.1532,37.85908 37.4856,49.62891 l -8.4475,1.5839 -43.8213,-21.64665 -36.9577,-38.01364 -45.4051,-70.21964 -1.5839,-110.87312 c -23.1511,-11.7939305 -19.6064,-39.159015 -72.2829,-36.190252 z"
               id="path8980" />
            <path
               style="fill:#eac102;fill-rule:evenodd;stroke:#000000;stroke-width:2.70223212px;stroke-linecap:butt;stroke-linejoin:round;stroke-opacity:1"
               d="m 2257.8362,-20.616681 c 63.0557,6.587504 63.0115,95.729549 75.5853,148.407001 l 40.3183,68.26621 c 25.4971,24.6386 41.9797,55.29007 57.751,58.90359 15.2759,3.50002 14.2178,-3.0187 29.758,0.65753 -30.4247,-13.52566 -16.494,-44.74695 -79.7203,-63.68458 20.4457,-11.32653 20.4445,19.87787 61.3938,10.9959 -11.2314,-28.08772 -35.3707,-29.44338 -46.2744,-39.86014 16.7073,-5.39702 18.5396,5.3425 30.6969,0.45816 13.499,-5.42337 10.385,-26.33514 21.0754,-40.31829 -13.9929,-6.17329 -25.3676,-24.564624 -42.6091,-15.57753 -5.9916,4.96851 -14.8141,21.73624 -24.7407,25.6571 -4.1769,-22.38029 9.8671,-24.38807 12.8285,-35.736673 2.9343,-11.244851 -1.7545,-14.661675 0.9163,-30.696885 -45.4223,16.762132 -28.2802,47.083998 -49.0312,60.368768 -0.2133,-32.214271 8.8979,-18.51426 25.6649,-53.954494 -6.3299,-9.420974 -10.7933,-7.642714 -16.0356,-10.537736 8.3293,-18.001305 0.7954,-28.96192 9.6214,-54.0631718 -16.6788,-5.5724121 -22.3558,3.4658318 -27.0316,9.1632498 -1.695,-15.5926208 -38.1614,-65.956579 -80.1669,-38.448009 z"
               id="path8982" />
            <path
               id="path8984"
               style="fill:none;stroke:#000000;stroke-width:1.35111606;stroke-linecap:butt;stroke-linejoin:miter;stroke-miterlimit:4;stroke-opacity:1;stroke-dasharray:none"
               d="m 2348.0296,39.81348 c -13.4425,30.094041 -12.093,60.18808 -11.1117,90.28212 m 32.6405,-15.97299 c -2.7041,15.12086 -12.2496,23.40027 -22.2233,31.2515 m 69.4478,-9.02821 c -23.9583,1.77752 -25.7122,17.05247 -61.114,22.22329 m 6.9447,9.72269 c 17.1583,3.44456 34.1187,7.08707 45.8356,15.97299 m -36.8073,5.55583 c 23.3688,28.19752 42.9779,30.73388 50.0024,45.14106" />
            <g
               id="g8986"
               transform="matrix(-0.9278259,0.6104274,0.6104274,0.9278259,3844.2704,-1752.9019)">
              <path
                 style="fill:#e3e4e5;fill-opacity:1;fill-rule:nonzero;stroke:#000000;stroke-width:2.43307877;stroke-linecap:butt;stroke-linejoin:miter;stroke-miterlimit:4;stroke-opacity:1;stroke-dasharray:none;stroke-dashoffset:0;marker:none;visibility:visible;display:inline;overflow:visible;enable-background:accumulate"
                 d="m 2069.0625,730.6875 c 0.2238,0.008 0.4309,0.0937 0.6563,0.0937 12.7586,0 23.0938,-12.76605 23.0937,-28.5 0,-15.73395 -10.3352,-28.49999 -23.0937,-28.5 -0.2254,0 -0.4325,0.0858 -0.6563,0.0937 l 0,56.8125 z"
                 id="path8988" />
              <path
                 style="fill:#eac102;fill-opacity:1;fill-rule:nonzero;stroke:#000000;stroke-width:2.43307877;stroke-linecap:butt;stroke-linejoin:miter;stroke-miterlimit:4;stroke-opacity:1;stroke-dashoffset:0;marker:none;visibility:visible;display:inline;overflow:visible;enable-background:accumulate"
                 d="m 2066.2861,668.73151 6.9503,0 0,66.52937 -6.9503,0 c -2.4585,-25.68971 -2.8624,-50.12503 0,-66.52937 z"
                 id="path8990" />
            </g>
          </g>
          <g
             id="g8992"
             transform="matrix(-0.3926312,0,0,0.3676466,2494.0922,125.47082)">
            <path
               id="path8994"
               d="m 2259.2204,-21.283662 13.5127,-10.69977 c 38.7245,-10.031734 73.2534,26.8272673 73.0253,42.666284 9.6794,-8.8057395 19.3588,-5.7881781 29.0382,-5.2796724 -5.7251,18.9206564 -0.1378,33.0145444 -6.8636,53.3246894 8.9688,2.784611 15.989,6.738417 17.9509,13.727148 l 8.9754,-5.80764 11.0873,-0.527967 c 2.1216,52.75337 -15.0802,41.15878 -11.6152,60.71623 l 18.4788,-22.70259 20.0628,2.11187 c 9.8196,1.86427 12.6267,13.46219 23.2305,14.78308 -7.4831,10.11579 -12.0387,27.91081 -19.0068,40.12551 -8.5556,6.21222 -16.0753,5.1735 -23.2306,1.5839 23.3337,8.58781 29.4491,28.73746 38.5417,39.59754 -9.5595,0.52797 -18.1418,1.58391 -22.1746,2.11188 14.7377,21.02796 23.1532,37.85908 37.4856,49.62891 l -8.4475,1.5839 -43.8213,-21.64665 -36.9577,-38.01364 -45.4051,-70.21964 -1.5839,-110.87312 c -23.1511,-11.7939305 -19.6064,-39.159015 -72.2829,-36.190252 z"
               style="fill:#eac102;fill-rule:evenodd;stroke:#000000;stroke-width:2.70223188;stroke-linecap:round;stroke-linejoin:round;stroke-miterlimit:4;stroke-opacity:1;stroke-dasharray:none" />
            <path
               id="path8996"
               d="m 2257.8362,-20.616681 c 63.0557,6.587504 63.0115,95.729549 75.5853,148.407001 l 40.3183,68.26621 c 25.4971,24.6386 41.9797,55.29007 57.751,58.90359 15.2759,3.50002 14.2178,-3.0187 29.758,0.65753 -30.4247,-13.52566 -16.494,-44.74695 -79.7203,-63.68458 20.4457,-11.32653 20.4445,19.87787 61.3938,10.9959 -11.2314,-28.08772 -35.3707,-29.44338 -46.2744,-39.86014 16.7073,-5.39702 18.5396,5.3425 30.6969,0.45816 13.499,-5.42337 10.385,-26.33514 21.0754,-40.31829 -13.9929,-6.17329 -25.3676,-24.564624 -42.6091,-15.57753 -5.9916,4.96851 -14.8141,21.73624 -24.7407,25.6571 -4.1769,-22.38029 9.8671,-24.38807 12.8285,-35.736673 2.9343,-11.244851 -1.7545,-14.661675 0.9163,-30.696885 -45.4223,16.762132 -28.2802,47.083998 -49.0312,60.368768 -0.2133,-32.214271 8.8979,-18.51426 25.6649,-53.954494 -6.3299,-9.420974 -10.7933,-7.642714 -16.0356,-10.537736 8.3293,-18.001305 0.7954,-28.96192 9.6214,-54.0631718 -16.6788,-5.5724121 -22.3558,3.4658318 -27.0316,9.1632498 -1.695,-15.5926208 -38.1614,-65.956579 -80.1669,-38.448009 z"
               style="fill:#eac102;fill-rule:evenodd;stroke:#000000;stroke-width:2.70223212px;stroke-linecap:butt;stroke-linejoin:round;stroke-opacity:1" />
            <path
               d="m 2348.0296,39.81348 c -13.4425,30.094041 -12.093,60.18808 -11.1117,90.28212 m 32.6405,-15.97299 c -2.7041,15.12086 -12.2496,23.40027 -22.2233,31.2515 m 69.4478,-9.02821 c -23.9583,1.77752 -25.7122,17.05247 -61.114,22.22329 m 6.9447,9.72269 c 17.1583,3.44456 34.1187,7.08707 45.8356,15.97299 m -36.8073,5.55583 c 23.3688,28.19752 42.9779,30.73388 50.0024,45.14106"
               style="fill:none;stroke:#000000;stroke-width:1.35111606;stroke-linecap:butt;stroke-linejoin:miter;stroke-miterlimit:4;stroke-opacity:1;stroke-dasharray:none"
               id="path8998" />
            <g
               transform="matrix(-0.9278259,0.6104274,0.6104274,0.9278259,3844.2704,-1752.9019)"
               id="g9000">
              <path
                 id="path9002"
                 d="m 2069.0625,730.6875 c 0.2238,0.008 0.4309,0.0937 0.6563,0.0937 12.7586,0 23.0938,-12.76605 23.0937,-28.5 0,-15.73395 -10.3352,-28.49999 -23.0937,-28.5 -0.2254,0 -0.4325,0.0858 -0.6563,0.0937 l 0,56.8125 z"
                 style="fill:#e3e4e5;fill-opacity:1;fill-rule:nonzero;stroke:#000000;stroke-width:2.43307877;stroke-linecap:butt;stroke-linejoin:miter;stroke-miterlimit:4;stroke-opacity:1;stroke-dasharray:none;stroke-dashoffset:0;marker:none;visibility:visible;display:inline;overflow:visible;enable-background:accumulate" />
              <path
                 id="path9004"
                 d="m 2066.2861,668.73151 6.9503,0 0,66.52937 -6.9503,0 c -2.4585,-25.68971 -2.8624,-50.12503 0,-66.52937 z"
                 style="fill:#eac102;fill-opacity:1;fill-rule:nonzero;stroke:#000000;stroke-width:2.43307877;stroke-linecap:butt;stroke-linejoin:miter;stroke-miterlimit:4;stroke-opacity:1;stroke-dashoffset:0;marker:none;visibility:visible;display:inline;overflow:visible;enable-background:accumulate" />
            </g>
          </g>
        </g>
        <path
           style="fill:#eac102;fill-rule:evenodd;stroke:#000000;stroke-width:1.00000012px;stroke-linecap:butt;stroke-linejoin:miter;stroke-opacity:1"
           d="m 1025.8584,429.08629 c -1.3687,0.0168 -2.7517,0.87895 -2.7975,2.52601 -1.2603,16.30334 -7.9326,41.71551 -32.69891,46.31782 -24.5644,4.56482 -46.2228,-30.13427 -47.1402,-43.93151 0.0136,-2.05972 -1.653,-2.85925 -3.3374,-2.77045 -1.9089,0.10064 -3.8464,1.3397 -3.3742,3.16623 3.6638,18.83803 -0.1717,42.83273 -17.1776,47.12103 -16.9345,4.2703 -35.4359,-15.77093 -48.6249,-40.75364 -1.2215,-4.72352 -8.2535,-2.87278 -6.9079,0.59367 10.7468,25.97423 7.1159,44.25571 -0.6257,48.11048 -9.4021,2.86473 -29.0135,-20.00166 -40.0239,-40.15997 -1.8725,-2.72803 -8.7673,-1.31129 -7.1287,2.18843 8.0133,15.48601 15.9711,30.96868 16.3433,46.71361 -0.9195,-0.91318 -2.1092,-2.27569 -3.411,-3.86467 l -2.6748,7.43832 c 6.4605,6.08993 10.0517,5.69722 11.8526,4.08584 3.6029,-3.22369 3.6745,-9.8907 -1.1534,-24.74785 8.887,8.96934 22.8577,19.9723 31.8522,13.91048 8.9946,-6.06181 9.8235,-16.98958 9.006,-30.21892 11.0032,13.66319 27.7337,27.75873 42.7477,24.25895 15.2115,-3.54582 21.8511,-16.95133 23.8892,-34.00211 8.3819,15.45473 25.6556,33.12361 46.944,30.41682 20.45161,-2.6004 32.19981,-25.41417 34.39201,-32.91954 2.1922,7.50537 13.9526,30.31914 34.4043,32.91954 21.2884,2.70679 38.5498,-14.96209 46.9317,-30.41682 2.0381,17.05078 8.6776,30.45629 23.8892,34.00211 15.0139,3.49978 31.7444,-10.59576 42.7477,-24.25895 -0.8176,13.22934 0.011,24.15711 9.006,30.21892 8.9945,6.06182 22.9652,-4.94114 31.8522,-13.91048 -4.828,14.85715 -4.7564,21.52416 -1.1534,24.74785 1.7927,1.60404 5.3617,2.01034 11.7667,-3.99271 l -2.6748,-7.43833 c -1.2697,1.54579 -2.4235,2.87617 -3.3251,3.77155 0.3722,-15.74493 8.3299,-31.2276 16.3432,-46.71361 1.6387,-3.49972 -5.2439,-4.91646 -7.1164,-2.18843 -11.0104,20.15831 -30.6217,43.0247 -40.0238,40.15997 -7.7415,-3.85477 -11.3847,-22.13625 -0.6381,-48.11048 1.3457,-3.46645 -5.6863,-5.31719 -6.9078,-0.59367 -13.1891,24.98271 -31.6782,45.02394 -48.6127,40.75364 -17.0059,-4.2883 -20.8537,-28.283 -17.1899,-47.12103 0.8889,-3.43818 -6.7283,-4.78985 -6.6992,-0.39578 -0.9174,13.79724 -22.5881,48.49633 -47.1526,43.93151 -24.7662,-4.60231 -31.426,-30.01448 -32.6865,-46.31782 0.011,-1.71426 -1.343,-2.54281 -2.7116,-2.52601 z"
           id="path9006" />
        <g
           id="g9008"
           transform="matrix(0.3926312,0,0,0.3724982,-135.17289,399.37955)">
          <g
             transform="matrix(1,0,0,1.0057864,0.81,-1346.0782)"
             id="g9010">
            <path
               style="fill:#e3e4e5;fill-opacity:1;fill-rule:evenodd;stroke:#000000;stroke-width:2.60730958;stroke-linecap:round;stroke-linejoin:round;stroke-miterlimit:4;stroke-opacity:1;stroke-dasharray:none;stroke-dashoffset:0;marker:none;visibility:visible;display:inline;overflow:visible;enable-background:accumulate"
               id="path9012"
               d="m 3198.0512,1390.3806 a 29.462782,29.462782 0 0 1 -29.4628,29.4628 29.462782,29.462782 0 0 1 -29.4628,-29.4628 29.462782,29.462782 0 0 1 29.4628,-29.4628 29.462782,29.462782 0 0 1 29.4628,29.4628 z"
               transform="translate(5.7741166,34.306194)" />
            <path
               style="fill:#eac102;fill-rule:evenodd;stroke:#000000;stroke-width:2.60730958;stroke-linecap:butt;stroke-linejoin:miter;stroke-miterlimit:4;stroke-opacity:1;stroke-dasharray:none"
               d="m 3153.8713,1446.2083 c 10.7718,4.0584 21.9748,5.4216 35.2212,4.3839 -0.7469,7.6145 -7.8526,4.5247 -6.7924,11.0304 1.0602,6.5057 -27.3179,4.332 -24.724,-2.5454 2.5939,-6.8773 -5.0767,-5.2953 -3.7048,-12.8689 z"
               id="path9014" />
          </g>
          <g
             id="g9016"
             transform="matrix(-1,0,0,1.0057864,5913.0469,-1346.0782)">
            <path
               transform="translate(5.7741166,34.306194)"
               d="m 3198.0512,1390.3806 a 29.462782,29.462782 0 0 1 -29.4628,29.4628 29.462782,29.462782 0 0 1 -29.4628,-29.4628 29.462782,29.462782 0 0 1 29.4628,-29.4628 29.462782,29.462782 0 0 1 29.4628,29.4628 z"
               id="path9018"
               style="fill:#e3e4e5;fill-opacity:1;fill-rule:evenodd;stroke:#000000;stroke-width:2.60730958;stroke-linecap:round;stroke-linejoin:round;stroke-miterlimit:4;stroke-opacity:1;stroke-dasharray:none;stroke-dashoffset:0;marker:none;visibility:visible;display:inline;overflow:visible;enable-background:accumulate" />
            <path
               id="path9020"
               d="m 3153.8713,1446.2083 c 10.7718,4.0584 21.9748,5.4216 35.2212,4.3839 -0.7469,7.6145 -7.8526,4.5247 -6.7924,11.0304 1.0602,6.5057 -27.3179,4.332 -24.724,-2.5454 2.5939,-6.8773 -5.0767,-5.2953 -3.7048,-12.8689 z"
               style="fill:#eac102;fill-rule:evenodd;stroke:#000000;stroke-width:2.60730958;stroke-linecap:butt;stroke-linejoin:miter;stroke-miterlimit:4;stroke-opacity:1;stroke-dasharray:none" />
          </g>
        </g>
        <g
           id="g9022"
           transform="matrix(0.3926312,0,0,0.3724982,-135.15118,399.37955)">
          <g
             transform="matrix(-0.9418928,0.3353921,0.3297324,0.9353362,4949.3346,-2266.4513)"
             id="g9024">
            <path
               style="fill:#e3e4e5;fill-opacity:1;fill-rule:evenodd;stroke:#000000;stroke-width:2.62592578;stroke-linecap:round;stroke-linejoin:round;stroke-miterlimit:4;stroke-opacity:1;stroke-dasharray:none;stroke-dashoffset:0;marker:none;visibility:visible;display:inline;overflow:visible;enable-background:accumulate"
               id="path9026"
               d="m 3198.0512,1390.3806 a 29.462782,29.462782 0 0 1 -29.4628,29.4628 29.462782,29.462782 0 0 1 -29.4628,-29.4628 29.462782,29.462782 0 0 1 29.4628,-29.4628 29.462782,29.462782 0 0 1 29.4628,29.4628 z"
               transform="translate(5.7741166,34.306194)" />
            <path
               style="fill:#eac102;fill-rule:evenodd;stroke:#000000;stroke-width:2.62592578;stroke-linecap:butt;stroke-linejoin:miter;stroke-miterlimit:4;stroke-opacity:1;stroke-dasharray:none"
               d="m 3153.8713,1446.2083 c 10.7718,4.0584 21.9748,5.4216 35.2212,4.3839 -0.7469,7.6145 -7.8526,4.5247 -6.7924,11.0304 1.0602,6.5057 -27.3179,4.332 -24.724,-2.5454 2.5939,-6.8773 -5.0767,-5.2953 -3.7048,-12.8689 z"
               id="path9028" />
          </g>
          <g
             id="g9030"
             transform="matrix(0.9418928,0.3353921,-0.3297324,0.9353362,964.41171,-2266.4513)">
            <path
               transform="translate(5.7741166,34.306194)"
               d="m 3198.0512,1390.3806 a 29.462782,29.462782 0 0 1 -29.4628,29.4628 29.462782,29.462782 0 0 1 -29.4628,-29.4628 29.462782,29.462782 0 0 1 29.4628,-29.4628 29.462782,29.462782 0 0 1 29.4628,29.4628 z"
               id="path9032"
               style="fill:#e3e4e5;fill-opacity:1;fill-rule:evenodd;stroke:#000000;stroke-width:2.62592578;stroke-linecap:round;stroke-linejoin:round;stroke-miterlimit:4;stroke-opacity:1;stroke-dasharray:none;stroke-dashoffset:0;marker:none;visibility:visible;display:inline;overflow:visible;enable-background:accumulate" />
            <path
               id="path9034"
               d="m 3153.8713,1446.2083 c 10.7718,4.0584 21.9748,5.4216 35.2212,4.3839 -0.7469,7.6145 -7.8526,4.5247 -6.7924,11.0304 1.0602,6.5057 -27.3179,4.332 -24.724,-2.5454 2.5939,-6.8773 -5.0767,-5.2953 -3.7048,-12.8689 z"
               style="fill:#eac102;fill-rule:evenodd;stroke:#000000;stroke-width:2.62592578;stroke-linecap:butt;stroke-linejoin:miter;stroke-miterlimit:4;stroke-opacity:1;stroke-dasharray:none" />
          </g>
        </g>
        <g
           style="display:inline"
           id="g9036"
           transform="matrix(0.3932193,0,0,0.4030856,-137.72793,385.5509)">
          <path
             id="path9038"
             d="m 2841.4937,4.1306535 c 0,0 28.8788,-5.1505141 44.492,18.1740365 15.3413,22.918125 52.7634,20.519073 52.7634,20.519073 l -15.829,51.590814 -102.0091,-38.69311 c -0.7097,0 6.2592,-9.733994 19.3465,-8.793889 13.0873,0.940105 20.5001,17.833079 40.4519,9.966408 L 2841.4937,4.1306535 z"
             style="fill:#eac102;fill-rule:evenodd;stroke:#000000;stroke-width:2.51179409px;stroke-linecap:butt;stroke-linejoin:miter;stroke-opacity:1" />
          <path
             style="fill:#eac102;fill-rule:evenodd;stroke:#000000;stroke-width:2.51179409px;stroke-linecap:butt;stroke-linejoin:miter;stroke-opacity:1"
             d="m 3076.5136,4.1306535 c 0,0 -28.8788,-5.1505141 -44.492,18.1740365 -15.3413,22.918125 -52.7634,20.519073 -52.7634,20.519073 l 15.829,51.590814 102.0091,-38.69311 c 0.7097,0 -6.2592,-9.733994 -19.3465,-8.793889 -13.0873,0.940105 -20.5001,17.833079 -40.4519,9.966408 l 39.2157,-52.7633325 z"
             id="path9040" />
          <path
             id="path9042"
             d="m 2958.754,-131.54692 c -17.5495,18.95665 -35.4394,40.263977 -36.4062,68.26567 -14.0703,-14.666102 -28.1486,-4.409478 -42.2188,-1.78125 7.0688,9.514919 -0.2006,35.591803 9.375,53.375 -10.2419,0.805196 -14.866,9.8429331 -21.0938,15.21875 4.1931,15.598209 52.0459,17.805823 60.375,46.3125 -52.1011,-5.195722 -35.6003,-42.8867565 -87.9374,-45.71875 -8.3654,43.101669 24.9649,34.569181 27.5624,58.03125 -15.9132,2.984245 -19.887,-13.089906 -33.75,-12.4375 -19.4297,0.914379 -27.838,22.163956 -40.125,29.4375 18.9407,5.159853 26.0557,23.19622 45.0626,27.5625 10.272,2.35973 15.109,-15.805611 31.1562,-7.625 -15.7384,21.82476 -31.4376,15.41252 -23.4688,46.3125 59.5699,5.25788 35.2243,-35.33363 75.0626,-29.3125 -60.1728,37.02337 -27.1126,51.09338 -42.2188,79.75 30.9985,-12.63825 42.1487,-3.99078 78.875,-30.3125 36.7263,26.32172 47.8766,17.67425 78.875,30.3125 -15.1062,-28.65662 17.954,-42.72663 -42.2188,-79.75 39.8383,-6.02113 15.4928,34.57038 75.0626,29.3125 7.9688,-30.89998 -7.7304,-24.48774 -23.4688,-46.3125 16.0472,-8.180611 20.8842,9.98473 31.1562,7.625 19.0069,-4.36628 26.1217,-22.402647 45.0626,-27.5625 -12.287,-7.273544 -20.6953,-28.523121 -40.125,-29.4375 -13.863,-0.652406 -17.8368,15.421745 -33.75,12.4375 2.5976,-23.462069 35.9278,-14.929581 27.5624,-58.03125 -52.3372,2.8319935 -35.8366,40.523028 -87.9374,45.71875 8.3291,-28.506677 56.1819,-30.714291 60.375,-46.3125 -6.2278,-5.3758169 -10.8519,-14.413554 -21.0938,-15.21875 9.5756,-17.783197 2.3063,-43.860081 9.375,-53.375 -14.0702,-2.628228 -28.1485,-12.884852 -42.2188,1.78125 -0.9668,-28.001693 -18.8566,-49.30902 -36.4062,-68.26567 l -0.25,-0.25 -0.25,0.25 z"
             style="fill:#eac102;fill-rule:evenodd;stroke:#000000;stroke-width:2.51179409px;stroke-linecap:butt;stroke-linejoin:miter;stroke-opacity:1" />
          <path
             d="m 2959.4071,53.359306 c -1.8139,-3.26519 0,-157.770886 0,-157.770886 m -9.5108,213.06391 c -4.7015,18.52753 -21.4209,48.18744 -41.0346,58.70657 m 20.5962,-75.341287 c -15.5614,0.78921 -44.3598,16.442077 -55.8772,23.786027 m 53.1562,-30.845833 c -55.011,4.998295 -77.4607,-17.219725 -94.4791,-10.295533 m 96.7572,-5.71627 c 0,0 -13.5066,-3.93962 -29.3456,-8.270611 -10.1782,-2.783118 -16.3408,-15.241719 -22.8384,-22.087656 m 75.034,11.417782 c 0,0 -0.8149,-10.30191 -13.1398,-39.171121 -11.9454,-27.979451 -27.474,-42.90183 -27.474,-42.90183 m 56.8605,140.719762 c 4.7016,18.52753 21.4208,48.18744 41.0346,58.70657 m -20.5961,-75.341287 c 15.5614,0.78921 44.3598,16.442077 55.8771,23.786027 m -53.1561,-30.845833 c 55.011,4.998295 77.4607,-17.219725 94.4791,-10.295533 m -96.7572,-5.71627 c 0,0 13.5066,-3.93962 29.3456,-8.270611 10.1781,-2.783118 16.3408,-15.241719 22.8384,-22.087656 m -75.0342,11.417782 c 0,0 0.815,-10.30191 13.14,-39.171121 11.9454,-27.979451 27.474,-42.90183 27.474,-42.90183"
             style="fill:none;stroke:#000000;stroke-width:1.25589705;stroke-linecap:round;stroke-linejoin:miter;stroke-miterlimit:4;stroke-opacity:1;stroke-dasharray:none"
             id="path9044" />
          <g
             id="g9046">
            <path
               transform="matrix(1.3114524,0,0,1.2234043,-925.15005,-19.090606)"
               d="m 2989.9221,81.516876 a 27.554184,27.554184 0 0 1 -27.5542,27.554184 27.554184,27.554184 0 0 1 -27.5542,-27.554184 27.554184,27.554184 0 0 1 27.5542,-27.554184 27.554184,27.554184 0 0 1 27.5542,27.554184 z"
               id="path9048"
               style="fill:#eac102;fill-opacity:1;fill-rule:evenodd;stroke:#000000;stroke-width:1.98300004;stroke-linecap:round;stroke-linejoin:round;stroke-miterlimit:4;stroke-opacity:1;stroke-dasharray:none;stroke-dashoffset:0;marker:none;visibility:visible;display:inline;overflow:visible;enable-background:accumulate" />
            <path
               style="fill:#e3e4e5;fill-opacity:1;fill-rule:evenodd;stroke:#000000;stroke-width:2.49477887;stroke-linecap:round;stroke-linejoin:round;stroke-miterlimit:4;stroke-opacity:1;stroke-dasharray:none;stroke-dashoffset:0;marker:none;visibility:visible;display:inline;overflow:visible;enable-background:accumulate"
               id="path9050"
               d="m 2989.9221,81.516876 a 27.554184,27.554184 0 0 1 -27.5542,27.554184 27.554184,27.554184 0 0 1 -27.5542,-27.554184 27.554184,27.554184 0 0 1 27.5542,-27.554184 27.554184,27.554184 0 0 1 27.5542,27.554184 z"
               transform="matrix(1.0425532,0,0,0.972312,-128.57176,1.3776492)" />
          </g>
        </g>
        <path
           id="path9052"
           d="m 1025.635,484.0886 c -56.61261,0.56447 -113.87581,0.61709 -169.47501,11.94058 -12.4075,3.73883 -30.1461,5.82662 -34.8036,19.0699 -1.5279,11.06141 12.5006,15.74938 21.2634,18.78935 41.7444,11.96344 85.853,12.97626 129.1053,14.8465 67.29051,1.28869 135.01471,1.81183 201.80631,-7.1218 18.2471,-3.36522 38.3394,-5.44219 53.3445,-16.77983 8.9596,-8.3789 -0.9579,-20.0949 -10.8624,-22.50474 -33.9772,-12.44682 -71.0359,-13.78245 -106.9719,-16.31661 -27.7733,-1.44701 -55.5949,-1.90497 -83.4066,-1.92335 z"
           style="fill:#eac102;fill-rule:evenodd;stroke:#000000;stroke-width:1.00000012px;stroke-linecap:butt;stroke-linejoin:miter;stroke-opacity:1" />
        <path
           id="path9054"
           d="m 1025.8096,497.68584 c -30.85712,0 -56.87992,0.5738 -78.81249,1.57132 -4.38667,0.19951 -8.62137,0.42171 -12.6875,0.65225 -48.77128,2.76678 -74.92265,7.65796 -88.9375,12.12586 -1.16805,0.37241 -2.27567,0.73194 -3.28125,1.09696 -5.01152,1.8212 -8.09361,3.5648 -9.96875,4.9808 -0.36877,0.27856 -0.68636,0.54611 -0.96875,0.80048 -0.29289,0.26383 -0.53742,0.50645 -0.75,0.74119 -1.25317,1.38323 -1.21876,2.22357 -1.21875,2.22357 l 10.65625,36.73337 34.84375,0 302.24999,0 34.8438,0 10.6562,-36.73337 c 0,0 0.034,-0.84034 -1.2188,-2.22357 -0.2125,-0.23474 -0.4571,-0.47736 -0.75,-0.74119 -1.7146,-1.54923 -4.9217,-3.59514 -10.9374,-5.78128 -0.01,-0.003 -0.023,0.003 -0.031,0 -13.0714,-4.74427 -39.351,-10.22543 -92.1875,-13.22282 -0.01,-5.7e-4 -0.021,5.7e-4 -0.031,0 -4.0661,-0.23054 -8.2698,-0.45274 -12.6563,-0.65225 -21.9333,-0.99753 -47.9536,-1.57132 -78.8125,-1.57132 z"
           style="fill:#eac102;fill-opacity:1;fill-rule:evenodd;stroke:#000000;stroke-width:1px;stroke-linecap:butt;stroke-linejoin:miter;stroke-opacity:1" />
        <g
           id="g9056"
           transform="matrix(0.4140904,0,0,0.3928571,365.35416,239.47289)">
          <path
             style="fill:#eac102;fill-opacity:1;fill-rule:evenodd;stroke:#000000;stroke-width:1.78393018px;stroke-linecap:round;stroke-linejoin:round;stroke-miterlimit:4;stroke-opacity:1;stroke-dasharray:none;stroke-dashoffset:0;marker:none;visibility:visible;display:inline;overflow:visible;enable-background:accumulate"
             id="path9058"
             d="m 1796.3478,707.07074 a 23.065676,23.065676 0 0 1 -23.0657,23.06568 23.065676,23.065676 0 0 1 -23.0657,-23.06568 23.065676,23.065676 0 0 1 23.0657,-23.06568 23.065676,23.065676 0 0 1 23.0657,23.06568 z"
             transform="matrix(1.3345865,0,0,1.4473316,-589.58751,-320.19715)" />
          <path
             transform="matrix(1.3045113,0,0,1.4473316,-532.96062,-320.19715)"
             d="m 1796.3478,707.07074 a 23.065676,23.065676 0 0 1 -23.0657,23.06568 23.065676,23.065676 0 0 1 -23.0657,-23.06568 23.065676,23.065676 0 0 1 23.0657,-23.06568 23.065676,23.065676 0 0 1 23.0657,23.06568 z"
             id="path9060"
             style="fill:#eac102;fill-opacity:1;fill-rule:evenodd;stroke:#000000;stroke-width:1.80437696px;stroke-linecap:round;stroke-linejoin:round;stroke-miterlimit:4;stroke-opacity:1;stroke-dasharray:none;stroke-dashoffset:0;marker:none;visibility:visible;display:inline;overflow:visible;enable-background:accumulate" />
          <path
             style="fill:#e3e4e5;fill-opacity:1;fill-rule:evenodd;stroke:#000000;stroke-width:2.06264997px;stroke-linecap:round;stroke-linejoin:round;stroke-miterlimit:4;stroke-opacity:1;stroke-dasharray:none;stroke-dashoffset:0;marker:none;visibility:visible;display:inline;overflow:visible;enable-background:accumulate"
             id="path9062"
             d="m 1796.3478,707.07074 a 23.065676,23.065676 0 0 1 -23.0657,23.06568 23.065676,23.065676 0 0 1 -23.0657,-23.06568 23.065676,23.065676 0 0 1 23.0657,-23.06568 23.065676,23.065676 0 0 1 23.0657,23.06568 z"
             transform="matrix(1.1541354,0,0,1.2518797,-265.60797,-181.99885)" />
        </g>
        <g
           transform="matrix(-0.4140904,0,0,0.3928571,1686.2649,239.47289)"
           id="g9064">
          <path
             transform="matrix(1.3345865,0,0,1.4473316,-589.58751,-320.19715)"
             d="m 1796.3478,707.07074 a 23.065676,23.065676 0 0 1 -23.0657,23.06568 23.065676,23.065676 0 0 1 -23.0657,-23.06568 23.065676,23.065676 0 0 1 23.0657,-23.06568 23.065676,23.065676 0 0 1 23.0657,23.06568 z"
             id="path9066"
             style="fill:#eac102;fill-opacity:1;fill-rule:evenodd;stroke:#000000;stroke-width:1.78393018px;stroke-linecap:round;stroke-linejoin:round;stroke-miterlimit:4;stroke-opacity:1;stroke-dasharray:none;stroke-dashoffset:0;marker:none;visibility:visible;display:inline;overflow:visible;enable-background:accumulate" />
          <path
             style="fill:#eac102;fill-opacity:1;fill-rule:evenodd;stroke:#000000;stroke-width:1.80437696px;stroke-linecap:round;stroke-linejoin:round;stroke-miterlimit:4;stroke-opacity:1;stroke-dasharray:none;stroke-dashoffset:0;marker:none;visibility:visible;display:inline;overflow:visible;enable-background:accumulate"
             id="path9068"
             d="m 1796.3478,707.07074 a 23.065676,23.065676 0 0 1 -23.0657,23.06568 23.065676,23.065676 0 0 1 -23.0657,-23.06568 23.065676,23.065676 0 0 1 23.0657,-23.06568 23.065676,23.065676 0 0 1 23.0657,23.06568 z"
             transform="matrix(1.3045113,0,0,1.4473316,-532.96062,-320.19715)" />
          <path
             transform="matrix(1.1541354,0,0,1.2518797,-265.60797,-181.99885)"
             d="m 1796.3478,707.07074 a 23.065676,23.065676 0 0 1 -23.0657,23.06568 23.065676,23.065676 0 0 1 -23.0657,-23.06568 23.065676,23.065676 0 0 1 23.0657,-23.06568 23.065676,23.065676 0 0 1 23.0657,23.06568 z"
             id="path9070"
             style="fill:#e3e4e5;fill-opacity:1;fill-rule:evenodd;stroke:#000000;stroke-width:2.06264997px;stroke-linecap:round;stroke-linejoin:round;stroke-miterlimit:4;stroke-opacity:1;stroke-dasharray:none;stroke-dashoffset:0;marker:none;visibility:visible;display:inline;overflow:visible;enable-background:accumulate" />
        </g>
        <g
           transform="matrix(-0.4051001,0.07361344,0,0.3939808,1672.2717,102.34603)"
           id="g9072">
          <path
             id="path9074"
             d="m 1880.9956,701.45346 50.3965,-34.39748 3.2283,0 -48.0651,34.39748 -5.5597,0 z"
             style="fill:none;stroke:#000000;stroke-width:2.50311732px;stroke-linecap:round;stroke-linejoin:round;stroke-opacity:1" />
          <path
             style="fill:none;stroke:#000000;stroke-width:2.50311732px;stroke-linecap:round;stroke-linejoin:round;stroke-opacity:1"
             d="m 1880.9956,701.45346 50.3965,34.39748 3.2283,0 -48.0651,-34.39748 -5.5597,0 z"
             id="path9076" />
          <path
             id="path9078"
             d="m 1934.694,735.73249 45.2605,-33.39707 -45.1577,-35.10307"
             style="fill:none;stroke:#000000;stroke-width:2.50311732px;stroke-linecap:round;stroke-linejoin:round;stroke-miterlimit:4;stroke-opacity:1;stroke-dasharray:none;stroke-dashoffset:0;marker:none;visibility:visible;display:inline;overflow:visible;enable-background:accumulate" />
          <g
             transform="translate(2,0)"
             id="g9080">
            <path
               style="fill:#008f4c;fill-rule:evenodd;stroke:#000000;stroke-width:2.50311732px;stroke-linecap:round;stroke-linejoin:round;stroke-opacity:1"
               d="m 1897.0477,701.80623 36.1615,26.63599 35.6322,-26.81239 -35.8086,-26.10681 -35.9851,26.28321 z"
               id="path9082" />
            <path
               id="path9084"
               d="m 1921.3647,701.8897 19.1285,14.02828 18.8485,-14.12119 -18.9418,-13.74958 -19.0352,13.84249 z"
               style="fill:none;stroke:#000000;stroke-width:1.50187039;stroke-linecap:round;stroke-linejoin:round;stroke-miterlimit:4;stroke-opacity:1;stroke-dasharray:none" />
            <path
               style="fill:none;stroke:#000000;stroke-width:1.50187039;stroke-linecap:round;stroke-linejoin:round;stroke-miterlimit:4;stroke-opacity:1;stroke-dasharray:none"
               d="m 1933.0328,728.26583 7.4971,-12.3482"
               id="path9086" />
            <path
               style="fill:none;stroke:#000000;stroke-width:1.50187039;stroke-linecap:round;stroke-linejoin:round;stroke-miterlimit:4;stroke-opacity:1;stroke-dasharray:none"
               d="m 1968.3123,701.62983 -9.0409,0.13258"
               id="path9088" />
            <path
               style="fill:none;stroke:#000000;stroke-width:1.50187039;stroke-linecap:round;stroke-linejoin:round;stroke-miterlimit:4;stroke-opacity:1;stroke-dasharray:none"
               d="m 1921.3906,701.80623 -23.6373,0"
               id="path9090" />
            <path
               style="fill:none;stroke:#000000;stroke-width:1.50187039;stroke-linecap:round;stroke-linejoin:round;stroke-miterlimit:4;stroke-opacity:1;stroke-dasharray:none"
               d="m 1940.4853,688.1802 -7.4525,-12.65718"
               id="path9092" />
          </g>
        </g>
        <g
           id="g9094"
           transform="matrix(0.4051001,0.07361344,0,0.3939808,379.34705,102.34603)">
          <path
             style="fill:none;stroke:#000000;stroke-width:2.50311732px;stroke-linecap:round;stroke-linejoin:round;stroke-opacity:1"
             d="m 1880.9956,701.45346 50.3965,-34.39748 3.2283,0 -48.0651,34.39748 -5.5597,0 z"
             id="path9096" />
          <path
             id="path9098"
             d="m 1880.9956,701.45346 50.3965,34.39748 3.2283,0 -48.0651,-34.39748 -5.5597,0 z"
             style="fill:none;stroke:#000000;stroke-width:2.50311732px;stroke-linecap:round;stroke-linejoin:round;stroke-opacity:1" />
          <path
             style="fill:none;stroke:#000000;stroke-width:2.50311732px;stroke-linecap:round;stroke-linejoin:round;stroke-miterlimit:4;stroke-opacity:1;stroke-dasharray:none;stroke-dashoffset:0;marker:none;visibility:visible;display:inline;overflow:visible;enable-background:accumulate"
             d="m 1934.694,735.73249 45.2605,-33.39707 -45.1577,-35.10307"
             id="path9100" />
          <g
             id="g9102"
             transform="translate(2,0)">
            <path
               id="path9104"
               d="m 1897.0477,701.80623 36.1615,26.63599 35.6322,-26.81239 -35.8086,-26.10681 -35.9851,26.28321 z"
               style="fill:#008f4c;fill-rule:evenodd;stroke:#000000;stroke-width:2.50311732px;stroke-linecap:round;stroke-linejoin:round;stroke-opacity:1" />
            <path
               style="fill:none;stroke:#000000;stroke-width:1.25155854;stroke-linecap:round;stroke-linejoin:round;stroke-miterlimit:4;stroke-opacity:1;stroke-dasharray:none"
               d="m 1921.3647,701.8897 19.1285,14.02828 18.8485,-14.12119 -18.9418,-13.74958 -19.0352,13.84249 z"
               id="path9106" />
            <path
               id="path9108"
               d="m 1933.0328,728.26583 7.4971,-12.3482"
               style="fill:none;stroke:#000000;stroke-width:1.25155854;stroke-linecap:round;stroke-linejoin:round;stroke-miterlimit:4;stroke-opacity:1;stroke-dasharray:none" />
            <path
               id="path9110"
               d="m 1968.3123,701.62983 -9.0409,0.13258"
               style="fill:none;stroke:#000000;stroke-width:1.25155854;stroke-linecap:round;stroke-linejoin:round;stroke-miterlimit:4;stroke-opacity:1;stroke-dasharray:none" />
            <path
               id="path9112"
               d="m 1921.3906,701.80623 -23.6373,0"
               style="fill:none;stroke:#000000;stroke-width:1.25155854;stroke-linecap:round;stroke-linejoin:round;stroke-miterlimit:4;stroke-opacity:1;stroke-dasharray:none" />
            <path
               id="path9114"
               d="m 1940.4853,688.1802 -7.4525,-12.65718"
               style="fill:none;stroke:#000000;stroke-width:1.25155854;stroke-linecap:round;stroke-linejoin:round;stroke-miterlimit:4;stroke-opacity:1;stroke-dasharray:none" />
          </g>
        </g>
        <g
           transform="matrix(0.4140904,0,0,0.3928571,365.16059,237.99339)"
           id="g9116">
          <rect
             style="fill:#eac102;fill-opacity:1;fill-rule:nonzero;stroke:#000000;stroke-width:2.47933507;stroke-linecap:butt;stroke-linejoin:miter;stroke-miterlimit:4;stroke-opacity:1;stroke-dasharray:none;stroke-dashoffset:0;marker:none;visibility:visible;display:inline;overflow:visible;enable-background:accumulate"
             id="rect9118"
             width="127.29893"
             height="67.836288"
             x="1531.7725"
             y="669.16895"
             ry="33.918144"
             rx="32.551369" />
          <rect
             rx="29.289711"
             ry="29.289711"
             y="673.79742"
             x="1538.15"
             height="58.579422"
             width="114.54353"
             id="rect9120"
             style="fill:#ed1c24;fill-opacity:1;fill-rule:nonzero;stroke:#000000;stroke-width:2.47933507;stroke-linecap:butt;stroke-linejoin:miter;stroke-miterlimit:4;stroke-opacity:1;stroke-dasharray:none;stroke-dashoffset:0;marker:none;visibility:visible;display:inline;overflow:visible;enable-background:accumulate" />
        </g>
        <path
           style="fill:#eac102;fill-opacity:1;fill-rule:evenodd;stroke:#000000;stroke-width:1.00000012px;stroke-linecap:butt;stroke-linejoin:miter;stroke-opacity:0"
           d="m 828.15659,494.64983 -2.7,5.66195 c 0.6536,0.65867 1.3416,1.301 2.0538,1.93189 l 1.7872,-6.71935 c -0.2971,-0.39777 -0.7482,-0.93869 -1.141,-0.87449 z m 395.36021,-0.018 c -0.4887,0.008 -0.514,0.0226 -1.3488,1.05762 l 2.0901,6.438 c 0.5409,-0.46737 1.0873,-0.98996 1.6171,-1.53176 l -2.3584,-5.96386 z"
           id="path9122" />
        <g
           id="g9124"
           transform="matrix(1,0,0,0.948723,643.15373,3.296597)">
          <g
             transform="matrix(0.3926312,0,0,0.3926312,-779.60271,412.54467)"
             id="g9126">
            <path
               style="fill:#eac102;fill-rule:evenodd;stroke:#000000;stroke-width:2.61484241px;stroke-linecap:butt;stroke-linejoin:miter;stroke-opacity:1"
               d="m 2485.2329,-95.278002 11.5204,-4.942028 c 34.5626,-5.26509 51.2104,33.927292 54.4278,56.039343 13.2829,-4.462713 30.9666,-9.575597 50.8726,-4.769305 -4.9926,21.104705 -1.2477,24.197661 -9.1412,52.0649203 19.6649,3.8354973 20.2688,10.4215587 25.8338,14.3079167 -23.9998,19.994418 -59.5257,25.64123 -61.2061,50.872595 l 38.5519,-6.756517 c 18.4148,-15.235282 18.2648,-45.166946 55.2444,-45.705846 3.8395,43.71384 -20.9298,30.607323 -30.2056,62.000974 29.2782,2.384653 90.0446,-2.075931 87.8347,7.153959 -27.1591,17.73375 -25.2255,23.33985 -39.3467,32.9877 l -9.1412,0.79488 c -9.2321,-4.17018 -14.6868,-18.917142 -28.6158,-9.93605 -6e-4,-1.7e-4 7.6973,5.72975 29.4106,14.70536 21.0364,8.69576 17.0901,31.79537 17.0901,31.79537 -30.9851,4.78966 -43.3101,-3.59262 -56.8342,-11.12838 36.3917,26.29776 26.4529,43.16019 46.8981,64.38563 l -5.1667,-0.39745 c -41.1731,2.09699 -62.1151,-15.72694 -89.027,-25.03886 3.5052,11.08975 -14.9666,30.07238 -20.2696,41.33399 l -3.9744,0 -23.0517,-54.05213 c -2.8882,7.31176 -7.2802,5.60155 -11.1283,7.15396 l -24.6415,-66.37284 c -16.1827,-5.51333 -13.5976,-17.282619 -14.7053,-27.820949 3.7809,0.466833 3.8421,-1.298209 12.3207,1.987211 l -11.1284,-27.82095 -1.9872,-19.474665 c 4.4616,3.015721 12.7487,0.930828 11.5258,11.525822 3.0197,12.110385 7.5468,21.206061 11.5258,31.397929 l 13.1156,-43.718636 -24.6414,-75.514006 13.9105,-5.56419 c -5.2515,-17.16768 21.4393,-36.616956 -15.8705,-51.494758 z"
               id="path9128" />
            <path
               style="fill:#eac102;fill-rule:evenodd;stroke:#000000;stroke-width:2.61484241px;stroke-linecap:round;stroke-linejoin:round;stroke-opacity:1"
               d="m 2483.4644,-94.739902 c 35.629,-12.751578 57.5044,21.597318 59.3075,50.033913 17.0876,-4.868621 34.2185,-9.218326 52.2163,-3.16462 -10.9925,24.108836 -0.9477,37.543956 -13.1859,55.3808454 21.6129,1.8351032 16.7671,6.6315266 28.4815,11.0761686 -33.123,28.565711 -62.1481,22.563936 -64.3472,53.798536 53.509,-16.48074 32.0256,-29.107568 56.9631,-43.77724 11.4823,-6.977972 25.281,-11.639591 43.2498,-12.131042 3.8936,46.67994 -25.4254,32.156738 -33.2285,61.710085 26.9571,-3.66005 30.5292,-19.007846 46.7522,-21.424805 16.2231,-2.416959 31.3335,15.4117 48.7138,26.171734 -31.1557,12.186462 -34.4677,37.355207 -49.9063,35.169377 -14.2143,-1.73546 -15.9483,-12.71681 -32.9012,-5.10549 15.0232,13.40094 40.8004,11.43544 47.9967,40.61262 -37.2471,12.56255 -63.2578,-16.92633 -100.2129,-17.93284 90.783,25.05274 57.734,52.6732 90.1916,72.78625 -24.8466,-2.76734 -45.1903,4.39454 -91.2465,-22.15234 1.2933,12.65446 -15.4459,22.54159 -23.2072,38.50287 -4.803,-25.18002 -29.5785,-37.66738 -24.7895,-77.00574 -9.4211,1.12768 5.4423,28.68073 -10.0213,29.53645 -13.0655,-11.26704 -14.0072,-26.45597 -14.2408,-36.92057 -7.5599,-9.14223 2.8475,16.5954 -29.009,-24.26208 -2.8173,-4.24066 1.7355,-30.704371 5.2743,-32.70107 2.6004,6.578616 5.0582,13.442399 11.0762,13.185915 -2.1017,-9.733657 -4.3178,-19.391031 -10.5487,-26.371831 -3.3052,-2.083416 -2.7557,-20.071228 -1.0549,-31.646197 11.3242,13.8996 3.3731,35.375083 22.1523,39.03031 -1.1187,-35.233587 -31.1642,-24.405061 -14.2408,-58.018028 -2.2855,-18.1086573 -2.7978,-75.551583 9.4939,-53.271099 -1.0632,-30.299506 12.9476,-51.707089 -9.7285,-61.110082 z"
               id="path9130" />
            <path
               id="path9132"
               style="fill:none;stroke:#000000;stroke-width:1.30742121;stroke-linecap:round;stroke-linejoin:round;stroke-miterlimit:4;stroke-opacity:1;stroke-dasharray:none"
               d="m 2515.2425,74.654516 c -15.6283,-89.020693 10.8016,-115.663783 -7.0059,-158.6096 m 58.4448,70.377442 c -33.8269,29.410719 -41.8938,58.821437 -44.5136,88.232156 m 32.5903,27.820946 c 43.1818,2.9331 63.3268,-17.898067 108.1043,-19.077219 m -111.2838,7.948843 c 34.8637,-4.957398 43.8556,-24.440438 54.847,-39.744214 m -50.0777,59.61632 c 28.6582,0.68109 53.223,8.82558 65.9754,18.28234 m -78.6936,5.56419 c 28.6894,32.74714 46.9066,30.58693 69.9498,44.51352 m -75.514,-45.3084 c -4.2515,25.57808 5.8171,42.19156 8.7437,54.84701 m -31.7953,-59.61632 c -3.1433,4.54063 -5.335,10.03275 -6.3591,16.69257 m -3.9744,-32.59026 c -13.0953,5.14741 -11.4939,-1.48525 -26.2312,1.58977 m 26.2312,-21.461873 c -5.2992,-0.841044 -10.5985,-3.465189 -15.8977,-12.718149 m 21.4619,-3.179537 c -3.9178,-22.834193 -8.4205,-46.545832 -20.667,-81.8730813" />
            <g
               id="g9134"
               transform="matrix(-0.748008,0.507597,0.4813713,0.8831979,3520.4688,-1419.3176)">
              <path
                 style="fill:#eac102;fill-opacity:1;fill-rule:evenodd;stroke:#000000;stroke-width:1.97773588px;stroke-linecap:round;stroke-linejoin:round;stroke-miterlimit:4;stroke-opacity:1;stroke-dasharray:none;stroke-dashoffset:0;marker:none;visibility:visible;display:inline;overflow:visible;enable-background:accumulate"
                 id="path9136"
                 d="m 1796.3478,707.07074 a 23.065676,23.065676 0 0 1 -23.0657,23.06568 23.065676,23.065676 0 0 1 -23.0657,-23.06568 23.065676,23.065676 0 0 1 23.0657,-23.06568 23.065676,23.065676 0 0 1 23.0657,23.06568 z"
                 transform="matrix(1.3345865,0,0,1.4473316,-589.58751,-320.19715)" />
              <path
                 transform="matrix(1.3045113,0,0,1.4473316,-532.96062,-320.19715)"
                 d="m 1796.3478,707.07074 a 23.065676,23.065676 0 0 1 -23.0657,23.06568 23.065676,23.065676 0 0 1 -23.0657,-23.06568 23.065676,23.065676 0 0 1 23.0657,-23.06568 23.065676,23.065676 0 0 1 23.0657,23.06568 z"
                 id="path9138"
                 style="fill:#eac102;fill-opacity:1;fill-rule:evenodd;stroke:#000000;stroke-width:2.00040388px;stroke-linecap:round;stroke-linejoin:round;stroke-miterlimit:4;stroke-opacity:1;stroke-dasharray:none;stroke-dashoffset:0;marker:none;visibility:visible;display:inline;overflow:visible;enable-background:accumulate" />
              <path
                 style="fill:#e3e4e5;fill-opacity:1;fill-rule:evenodd;stroke:#000000;stroke-width:2.28673577px;stroke-linecap:round;stroke-linejoin:round;stroke-miterlimit:4;stroke-opacity:1;stroke-dasharray:none;stroke-dashoffset:0;marker:none;visibility:visible;display:inline;overflow:visible;enable-background:accumulate"
                 id="path9140"
                 d="m 1796.3478,707.07074 a 23.065676,23.065676 0 0 1 -23.0657,23.06568 23.065676,23.065676 0 0 1 -23.0657,-23.06568 23.065676,23.065676 0 0 1 23.0657,-23.06568 23.065676,23.065676 0 0 1 23.0657,23.06568 z"
                 transform="matrix(1.1541354,0,0,1.2518797,-265.60797,-181.99885)" />
            </g>
          </g>
          <g
             id="g9142"
             transform="matrix(-0.3926312,0,0,0.3926312,1544.9142,412.54467)">
            <path
               id="path9144"
               d="m 2485.2329,-95.278002 11.5204,-4.942028 c 34.5626,-5.26509 51.2104,33.927292 54.4278,56.039343 13.2829,-4.462713 30.9666,-9.575597 50.8726,-4.769305 -4.9926,21.104705 -1.2477,24.197661 -9.1412,52.0649203 19.6649,3.8354973 20.2688,10.4215587 25.8338,14.3079167 -23.9998,19.994418 -59.5257,25.64123 -61.2061,50.872595 l 38.5519,-6.756517 c 18.4148,-15.235282 18.2648,-45.166946 55.2444,-45.705846 3.8395,43.71384 -20.9298,30.607323 -30.2056,62.000974 29.2782,2.384653 90.0446,-2.075931 87.8347,7.153959 -27.1591,17.73375 -25.2255,23.33985 -39.3467,32.9877 l -9.1412,0.79488 c -9.2321,-4.17018 -14.6868,-18.917142 -28.6158,-9.93605 -6e-4,-1.7e-4 7.6973,5.72975 29.4106,14.70536 21.0364,8.69576 17.0901,31.79537 17.0901,31.79537 -30.9851,4.78966 -43.3101,-3.59262 -56.8342,-11.12838 36.3917,26.29776 26.4529,43.16019 46.8981,64.38563 l -5.1667,-0.39745 c -41.1731,2.09699 -62.1151,-15.72694 -89.027,-25.03886 3.5052,11.08975 -14.9666,30.07238 -20.2696,41.33399 l -3.9744,0 -23.0517,-54.05213 c -2.8882,7.31176 -7.2802,5.60155 -11.1283,7.15396 l -24.6415,-66.37284 c -16.1827,-5.51333 -13.5976,-17.282619 -14.7053,-27.820949 3.7809,0.466833 3.8421,-1.298209 12.3207,1.987211 l -11.1284,-27.82095 -1.9872,-19.474665 c 4.4616,3.015721 12.7487,0.930828 11.5258,11.525822 3.0197,12.110385 7.5468,21.206061 11.5258,31.397929 l 13.1156,-43.718636 -24.6414,-75.514006 13.9105,-5.56419 c -5.2515,-17.16768 21.4393,-36.616956 -15.8705,-51.494758 z"
               style="fill:#eac102;fill-rule:evenodd;stroke:#000000;stroke-width:2.61484241px;stroke-linecap:butt;stroke-linejoin:miter;stroke-opacity:1" />
            <path
               id="path9146"
               d="m 2483.4644,-94.739902 c 35.629,-12.751578 57.5044,21.597318 59.3075,50.033913 17.0876,-4.868621 34.2185,-9.218326 52.2163,-3.16462 -10.9925,24.108836 -0.9477,37.543956 -13.1859,55.3808454 21.6129,1.8351032 16.7671,6.6315266 28.4815,11.0761686 -33.123,28.565711 -62.1481,22.563936 -64.3472,53.798536 53.509,-16.48074 32.0256,-29.107568 56.9631,-43.77724 11.4823,-6.977972 25.281,-11.639591 43.2498,-12.131042 3.8936,46.67994 -25.4254,32.156738 -33.2285,61.710085 26.9571,-3.66005 30.5292,-19.007846 46.7522,-21.424805 16.2231,-2.416959 31.3335,15.4117 48.7138,26.171734 -31.1557,12.186462 -34.4677,37.355207 -49.9063,35.169377 -14.2143,-1.73546 -15.9483,-12.71681 -32.9012,-5.10549 15.0232,13.40094 40.8004,11.43544 47.9967,40.61262 -37.2471,12.56255 -63.2578,-16.92633 -100.2129,-17.93284 90.783,25.05274 57.734,52.6732 90.1916,72.78625 -24.8466,-2.76734 -45.1903,4.39454 -91.2465,-22.15234 1.2933,12.65446 -15.4459,22.54159 -23.2072,38.50287 -4.803,-25.18002 -29.5785,-37.66738 -24.7895,-77.00574 -9.4211,1.12768 5.4423,28.68073 -10.0213,29.53645 -13.0655,-11.26704 -14.0072,-26.45597 -14.2408,-36.92057 -7.5599,-9.14223 2.8475,16.5954 -29.009,-24.26208 -2.8173,-4.24066 1.7355,-30.704371 5.2743,-32.70107 2.6004,6.578616 5.0582,13.442399 11.0762,13.185915 -2.1017,-9.733657 -4.3178,-19.391031 -10.5487,-26.371831 -3.3052,-2.083416 -2.7557,-20.071228 -1.0549,-31.646197 11.3242,13.8996 3.3731,35.375083 22.1523,39.03031 -1.1187,-35.233587 -31.1642,-24.405061 -14.2408,-58.018028 -2.2855,-18.1086573 -2.7978,-75.551583 9.4939,-53.271099 -1.0632,-30.299506 12.9476,-51.707089 -9.7285,-61.110082 z"
               style="fill:#eac102;fill-rule:evenodd;stroke:#000000;stroke-width:2.61484241px;stroke-linecap:round;stroke-linejoin:round;stroke-opacity:1" />
            <path
               d="m 2515.2425,74.654516 c -15.6283,-89.020693 10.8016,-115.663783 -7.0059,-158.6096 m 58.4448,70.377442 c -33.8269,29.410719 -41.8938,58.821437 -44.5136,88.232156 m 32.5903,27.820946 c 43.1818,2.9331 63.3268,-17.898067 108.1043,-19.077219 m -111.2838,7.948843 c 34.8637,-4.957398 43.8556,-24.440438 54.847,-39.744214 m -50.0777,59.61632 c 28.6582,0.68109 53.223,8.82558 65.9754,18.28234 m -78.6936,5.56419 c 28.6894,32.74714 46.9066,30.58693 69.9498,44.51352 m -75.514,-45.3084 c -4.2515,25.57808 5.8171,42.19156 8.7437,54.84701 m -31.7953,-59.61632 c -3.1433,4.54063 -5.335,10.03275 -6.3591,16.69257 m -3.9744,-32.59026 c -13.0953,5.14741 -11.4939,-1.48525 -26.2312,1.58977 m 26.2312,-21.461873 c -5.2992,-0.841044 -10.5985,-3.465189 -15.8977,-12.718149 m 21.4619,-3.179537 c -3.9178,-22.834193 -8.4205,-46.545832 -20.667,-81.8730813"
               style="fill:none;stroke:#000000;stroke-width:1.30742121;stroke-linecap:round;stroke-linejoin:round;stroke-miterlimit:4;stroke-opacity:1;stroke-dasharray:none"
               id="path9148" />
            <g
               transform="matrix(-0.748008,0.507597,0.4813713,0.8831979,3520.4688,-1419.3176)"
               id="g9150">
              <path
                 transform="matrix(1.3345865,0,0,1.4473316,-589.58751,-320.19715)"
                 d="m 1796.3478,707.07074 a 23.065676,23.065676 0 0 1 -23.0657,23.06568 23.065676,23.065676 0 0 1 -23.0657,-23.06568 23.065676,23.065676 0 0 1 23.0657,-23.06568 23.065676,23.065676 0 0 1 23.0657,23.06568 z"
                 id="path9152"
                 style="fill:#eac102;fill-opacity:1;fill-rule:evenodd;stroke:#000000;stroke-width:1.97773588px;stroke-linecap:round;stroke-linejoin:round;stroke-miterlimit:4;stroke-opacity:1;stroke-dasharray:none;stroke-dashoffset:0;marker:none;visibility:visible;display:inline;overflow:visible;enable-background:accumulate" />
              <path
                 style="fill:#eac102;fill-opacity:1;fill-rule:evenodd;stroke:#000000;stroke-width:2.00040388px;stroke-linecap:round;stroke-linejoin:round;stroke-miterlimit:4;stroke-opacity:1;stroke-dasharray:none;stroke-dashoffset:0;marker:none;visibility:visible;display:inline;overflow:visible;enable-background:accumulate"
                 id="path9154"
                 d="m 1796.3478,707.07074 a 23.065676,23.065676 0 0 1 -23.0657,23.06568 23.065676,23.065676 0 0 1 -23.0657,-23.06568 23.065676,23.065676 0 0 1 23.0657,-23.06568 23.065676,23.065676 0 0 1 23.0657,23.06568 z"
                 transform="matrix(1.3045113,0,0,1.4473316,-532.96062,-320.19715)" />
              <path
                 transform="matrix(1.1541354,0,0,1.2518797,-265.60797,-181.99885)"
                 d="m 1796.3478,707.07074 a 23.065676,23.065676 0 0 1 -23.0657,23.06568 23.065676,23.065676 0 0 1 -23.0657,-23.06568 23.065676,23.065676 0 0 1 23.0657,-23.06568 23.065676,23.065676 0 0 1 23.0657,23.06568 z"
                 id="path9156"
                 style="fill:#e3e4e5;fill-opacity:1;fill-rule:evenodd;stroke:#000000;stroke-width:2.28673577px;stroke-linecap:round;stroke-linejoin:round;stroke-miterlimit:4;stroke-opacity:1;stroke-dasharray:none;stroke-dashoffset:0;marker:none;visibility:visible;display:inline;overflow:visible;enable-background:accumulate" />
            </g>
          </g>
        </g>
        <path
           style="fill:none;stroke:#000000;stroke-width:0.5;stroke-linecap:butt;stroke-linejoin:miter;stroke-miterlimit:4;stroke-opacity:1;stroke-dasharray:none"
           d="m 937.11149,444.22272 c 2.9724,0.32347 6.4951,0.0506 9.3227,-0.97744"
           id="path9158" />
        <path
           id="path9160"
           d="m 1114.6295,444.22272 c -2.9725,0.32347 -6.4952,0.0506 -9.3228,-0.97744"
           style="fill:none;stroke:#000000;stroke-width:0.5;stroke-linecap:butt;stroke-linejoin:miter;stroke-miterlimit:4;stroke-opacity:1;stroke-dasharray:none" />
        <path
           style="fill:none;stroke:#000000;stroke-width:0.5;stroke-linecap:butt;stroke-linejoin:miter;stroke-miterlimit:4;stroke-opacity:1;stroke-dasharray:none"
           d="m 1231.4382,460.72527 c -2.9004,-0.69662 -6.0927,-2.13588 -8.353,-4.04766"
           id="path9162" />
        <path
           id="path9164"
           d="m 820.07799,460.72527 c 2.9004,-0.69662 6.0928,-2.13588 8.353,-4.04766"
           style="fill:none;stroke:#000000;stroke-width:0.5;stroke-linecap:butt;stroke-linejoin:miter;stroke-miterlimit:4;stroke-opacity:1;stroke-dasharray:none" />
        <g
           transform="matrix(1,0,0,0.948723,-0.69124,-82.295483)"
           id="g9166">
          <g
             id="g9168">
            <g
               transform="matrix(-0.4483888,0.1430547,0.1430547,0.4483888,1663.1061,44.924678)"
               id="g9170">
              <path
                 id="path9172"
                 d="m 2069.0625,730.6875 c 0.2238,0.008 0.4309,0.0937 0.6563,0.0937 12.7586,0 23.0938,-12.76605 23.0937,-28.5 0,-15.73395 -10.3352,-28.49999 -23.0937,-28.5 -0.2254,0 -0.4325,0.0858 -0.6563,0.0937 l 0,56.8125 z"
                 style="fill:#ed1c24;fill-opacity:1;fill-rule:nonzero;stroke:#000000;stroke-width:2.18135715;stroke-linecap:butt;stroke-linejoin:miter;stroke-miterlimit:4;stroke-opacity:1;stroke-dasharray:none;stroke-dashoffset:0;marker:none;visibility:visible;display:inline;overflow:visible;enable-background:accumulate" />
              <path
                 id="path9174"
                 d="m 2066.2861,668.73151 6.9503,0 0,66.52937 -6.9503,0 c -2.4585,-25.68971 -2.8624,-50.12503 0,-66.52937 z"
                 style="fill:#eac102;fill-opacity:1;fill-rule:nonzero;stroke:#000000;stroke-width:2.18135715;stroke-linecap:butt;stroke-linejoin:miter;stroke-miterlimit:4;stroke-opacity:1;stroke-dashoffset:0;marker:none;visibility:visible;display:inline;overflow:visible;enable-background:accumulate" />
            </g>
            <g
               transform="matrix(-0.4546188,0.1218147,0.1218147,0.4546188,1690.3983,77.273629)"
               id="g9176">
              <path
                 id="path9178"
                 d="m 2030.1562,670.59375 c -6.0098,1.75489 -10.6875,15.38298 -10.6874,31.90625 0,16.52208 4.6782,30.11853 10.6874,31.875 l 0.25,0.0625 c 0.3519,0.083 0.7026,0.125 1.0626,0.125 l 10.8437,-0.0235 0,-18.35151 c 0.7383,-4.16079 1.1562,-8.7794 1.1563,-13.6875 0,-4.9081 -0.418,-9.55795 -1.1563,-13.71875 l 0,-18.17856 -12.1563,-0.009 z"
                 style="fill:#eac102;fill-opacity:1;fill-rule:evenodd;stroke:#000000;stroke-width:2.18135715px;stroke-linecap:round;stroke-linejoin:round;stroke-miterlimit:4;stroke-opacity:1;stroke-dasharray:none;stroke-dashoffset:0;marker:none;visibility:visible;display:inline;overflow:visible;enable-background:accumulate" />
              <path
                 transform="matrix(1.9787234,0,0,0.9940993,-1999.3727,4.3345166)"
                 d="m 2048.3786,702.48627 a 6.0690784,32.088638 0 0 1 -6.069,32.08864 6.0690784,32.088638 0 0 1 -6.0691,-32.08864 6.0690784,32.088638 0 0 1 6.0691,-32.08864 6.0690784,32.088638 0 0 1 6.069,32.08864 z"
                 id="path9180"
                 style="fill:#eac102;fill-opacity:1;fill-rule:evenodd;stroke:#000000;stroke-width:1.55531836px;stroke-linecap:round;stroke-linejoin:round;stroke-miterlimit:4;stroke-opacity:1;stroke-dasharray:none;stroke-dashoffset:0;marker:none;visibility:visible;display:inline;overflow:visible;enable-background:accumulate" />
              <path
                 id="path9182"
                 d="m 2042.9551,674.40063 c 25.1525,7.78075 23.5578,49.66352 0,57.97907 -16.3463,-3.47198 -14.0669,-57.71871 0,-57.97907 z"
                 style="fill:#e3e4e5;fill-opacity:1;fill-rule:evenodd;stroke:#000000;stroke-width:2.18135715px;stroke-linecap:round;stroke-linejoin:round;stroke-miterlimit:4;stroke-opacity:1;stroke-dashoffset:0;marker:none;visibility:visible;display:inline;overflow:visible;enable-background:accumulate" />
            </g>
          </g>
          <g
             id="g9184"
             transform="matrix(-1,0,0,1,2053.0014,0)">
            <g
               id="g9186"
               transform="matrix(-0.4483888,0.1430547,0.1430547,0.4483888,1663.1061,44.924678)">
              <path
                 style="fill:#ed1c24;fill-opacity:1;fill-rule:nonzero;stroke:#000000;stroke-width:2.18135715;stroke-linecap:butt;stroke-linejoin:miter;stroke-miterlimit:4;stroke-opacity:1;stroke-dasharray:none;stroke-dashoffset:0;marker:none;visibility:visible;display:inline;overflow:visible;enable-background:accumulate"
                 d="m 2069.0625,730.6875 c 0.2238,0.008 0.4309,0.0937 0.6563,0.0937 12.7586,0 23.0938,-12.76605 23.0937,-28.5 0,-15.73395 -10.3352,-28.49999 -23.0937,-28.5 -0.2254,0 -0.4325,0.0858 -0.6563,0.0937 l 0,56.8125 z"
                 id="path9188" />
              <path
                 style="fill:#eac102;fill-opacity:1;fill-rule:nonzero;stroke:#000000;stroke-width:2.18135715;stroke-linecap:butt;stroke-linejoin:miter;stroke-miterlimit:4;stroke-opacity:1;stroke-dashoffset:0;marker:none;visibility:visible;display:inline;overflow:visible;enable-background:accumulate"
                 d="m 2066.2861,668.73151 6.9503,0 0,66.52937 -6.9503,0 c -2.4585,-25.68971 -2.8624,-50.12503 0,-66.52937 z"
                 id="path9190" />
            </g>
            <g
               id="g9192"
               transform="matrix(-0.4546188,0.1218147,0.1218147,0.4546188,1690.3983,77.273629)">
              <path
                 style="fill:#eac102;fill-opacity:1;fill-rule:evenodd;stroke:#000000;stroke-width:2.18135715px;stroke-linecap:round;stroke-linejoin:round;stroke-miterlimit:4;stroke-opacity:1;stroke-dasharray:none;stroke-dashoffset:0;marker:none;visibility:visible;display:inline;overflow:visible;enable-background:accumulate"
                 d="m 2030.1562,670.59375 c -6.0098,1.75489 -10.6875,15.38298 -10.6874,31.90625 0,16.52208 4.6782,30.11853 10.6874,31.875 l 0.25,0.0625 c 0.3519,0.083 0.7026,0.125 1.0626,0.125 l 10.8437,-0.0235 0,-18.35151 c 0.7383,-4.16079 1.1562,-8.7794 1.1563,-13.6875 0,-4.9081 -0.418,-9.55795 -1.1563,-13.71875 l 0,-18.17856 -12.1563,-0.009 z"
                 id="path9194" />
              <path
                 style="fill:#eac102;fill-opacity:1;fill-rule:evenodd;stroke:#000000;stroke-width:1.55531836px;stroke-linecap:round;stroke-linejoin:round;stroke-miterlimit:4;stroke-opacity:1;stroke-dasharray:none;stroke-dashoffset:0;marker:none;visibility:visible;display:inline;overflow:visible;enable-background:accumulate"
                 id="path9196"
                 d="m 2048.3786,702.48627 a 6.0690784,32.088638 0 0 1 -6.069,32.08864 6.0690784,32.088638 0 0 1 -6.0691,-32.08864 6.0690784,32.088638 0 0 1 6.0691,-32.08864 6.0690784,32.088638 0 0 1 6.069,32.08864 z"
                 transform="matrix(1.9787234,0,0,0.9940993,-1999.3727,4.3345166)" />
              <path
                 style="fill:#e3e4e5;fill-opacity:1;fill-rule:evenodd;stroke:#000000;stroke-width:2.18135715px;stroke-linecap:round;stroke-linejoin:round;stroke-miterlimit:4;stroke-opacity:1;stroke-dashoffset:0;marker:none;visibility:visible;display:inline;overflow:visible;enable-background:accumulate"
                 d="m 2042.9551,674.40063 c 25.1525,7.78075 23.5578,49.66352 0,57.97907 -16.3463,-3.47198 -14.0669,-57.71871 0,-57.97907 z"
                 id="path9198" />
            </g>
          </g>
        </g>
        <g
           transform="matrix(0.921613,0,0,0.8743555,-202.78873,303.67643)"
           id="g9200">
          <path
             id="path9202"
             d="m 1146.9818,293.41513 c 0,0 40.2138,-20.43543 186.1135,-20.43543 145.4163,0 186.1134,20.43543 186.1134,20.43543 0,0 -34.0136,20.43544 -186.1134,20.43544 -152.5835,0 -186.1135,-20.43544 -186.1135,-20.43544 z"
             style="fill:#eac102;fill-rule:evenodd;stroke:#000000;stroke-width:1.11399102px;stroke-linecap:butt;stroke-linejoin:miter;stroke-opacity:1" />
          <g
             transform="translate(181.95199,-177.54891)"
             id="g9204">
            <path
               id="path9206"
               style="font-size:12px;fill:none;stroke:#000000;stroke-width:0.57936627"
               d="m 1103.7725,494.66239 0,-47.28126" />
            <path
               id="path9208"
               style="font-size:12px;fill:none;stroke:#000000;stroke-width:0.85295802"
               d="m 1095.2202,494.66239 0,-47.28126" />
            <path
               id="path9210"
               style="font-size:12px;fill:none;stroke:#000000;stroke-width:1.14264381"
               d="m 1087.1469,494.66239 0,-47.28126" />
            <path
               id="path9212"
               style="font-size:12px;fill:none;stroke:#000000;stroke-width:1.43232906"
               d="m 1079.1436,494.66239 0,-47.28126" />
            <path
               id="path9214"
               style="font-size:12px;fill:none;stroke:#000000;stroke-width:1.7220099"
               d="m 1072.0123,494.66239 0,-47.28126" />
            <path
               id="path9216"
               style="font-size:12px;fill:none;stroke:#000000;stroke-width:2.01169538"
               d="m 1058.4116,492.11312 -0.1884,-43.03375 m 6.6362,43.5999 0,-45.01327" />
            <path
               id="path9218"
               style="font-size:12px;fill:none;stroke:#000000;stroke-width:2.28528762"
               d="m 1045.8549,490.17809 0,-39.64835 m 6.3618,40.78051 -0.1884,-42.19388" />
            <path
               id="path9220"
               style="font-size:12px;fill:none;stroke:#000000;stroke-width:2.57497263"
               d="m 1029.0088,487.91377 0,-34.83477 m 5.5274,35.40085 0,-36.53308 m 5.6944,37.66524 0,-37.95011" />
            <path
               id="path9222"
               style="font-size:12px;fill:none;stroke:#000000;stroke-width:2.86465812"
               d="m 1023.1045,487.62889 0,-33.69893" />
            <path
               id="path9224"
               style="font-size:12px;fill:none;stroke:#000000;stroke-width:3.15433908"
               d="m 1017.5986,485.93058 0,-31.43454" />
            <path
               id="path9226"
               style="font-size:12px;fill:none;stroke:#000000;stroke-width:3.44402456"
               d="m 1011.6944,485.07956 0,-29.17016" />
            <path
               id="path9228"
               style="font-size:12px;fill:none;stroke:#000000;stroke-width:3.71761703"
               d="m 999.60603,482.53403 -0.18848,-23.22433 m 6.38325,24.35657 0,-26.05488" />
            <path
               id="path9230"
               style="font-size:12px;fill:none;stroke:#000000;stroke-width:3.92683411"
               d="m 993.41113,480.55084 0,-20.39393" />
            <path
               id="path9232"
               style="font-size:12px;fill:none;stroke:#000000;stroke-width:4.21651554"
               d="m 987.73833,478.89702 0,-16.98269" />
            <path
               id="path9234"
               style="font-size:12px;fill:none;stroke:#000000;stroke-width:4.49010658"
               d="m 981.54344,476.6327 0,-13.30126" />
            <path
               id="path9236"
               style="font-size:12px;fill:none;stroke:#000000;stroke-width:4.76371717"
               d="m 975.17634,475.50054 0,-9.90471" />
            <path
               id="path9238"
               style="font-size:12px;fill:none;stroke:#000000;stroke-width:5.6166563"
               d="m 968.43748,473.23838 0,-4.8133" />
            <path
               id="path9240"
               style="font-size:12px;fill:none;stroke:#000000;stroke-width:0.28968406"
               d="m 1137.7985,492.11312 0,-43.31489 m -14.4887,44.73199 0.1883,-45.86422 m -10.7482,46.4303 0,-46.71517" />
            <path
               d="m 1198.5142,494.66239 0,-47.28126"
               style="font-size:12px;fill:none;stroke:#000000;stroke-width:0.57936627"
               id="path9242" />
            <path
               d="m 1207.0664,494.66239 0,-47.28126"
               style="font-size:12px;fill:none;stroke:#000000;stroke-width:0.85295802"
               id="path9244" />
            <path
               d="m 1215.1397,494.66239 0,-47.28126"
               style="font-size:12px;fill:none;stroke:#000000;stroke-width:1.14264381"
               id="path9246" />
            <path
               d="m 1223.143,494.66239 0,-47.28126"
               style="font-size:12px;fill:none;stroke:#000000;stroke-width:1.43232906"
               id="path9248" />
            <path
               d="m 1230.2743,494.66239 0,-47.28126"
               style="font-size:12px;fill:none;stroke:#000000;stroke-width:1.7220099"
               id="path9250" />
            <path
               d="m 1243.8751,492.11312 0.1884,-43.03375 m -6.6363,43.5999 0,-45.01327"
               style="font-size:12px;fill:none;stroke:#000000;stroke-width:2.01169538"
               id="path9252" />
            <path
               d="m 1256.4317,490.17809 0,-39.64835 m -6.3617,40.78051 0.1883,-42.19388"
               style="font-size:12px;fill:none;stroke:#000000;stroke-width:2.28528762"
               id="path9254" />
            <path
               d="m 1273.2779,487.91377 0,-34.83477 m -5.5275,35.40085 0,-36.53308 m -5.6944,37.66524 0,-37.95011"
               style="font-size:12px;fill:none;stroke:#000000;stroke-width:2.57497263"
               id="path9256" />
            <path
               d="m 1279.1822,487.62889 0,-33.69893"
               style="font-size:12px;fill:none;stroke:#000000;stroke-width:2.86465812"
               id="path9258" />
            <path
               d="m 1284.6881,485.93058 0,-31.43454"
               style="font-size:12px;fill:none;stroke:#000000;stroke-width:3.15433908"
               id="path9260" />
            <path
               d="m 1290.5923,485.07956 0,-29.17016"
               style="font-size:12px;fill:none;stroke:#000000;stroke-width:3.44402456"
               id="path9262" />
            <path
               d="m 1302.6806,482.53403 0.1885,-23.22433 m -6.3833,24.35657 0,-26.05488"
               style="font-size:12px;fill:none;stroke:#000000;stroke-width:3.71761703"
               id="path9264" />
            <path
               d="m 1308.8755,480.55084 0,-20.39393"
               style="font-size:12px;fill:none;stroke:#000000;stroke-width:3.92683411"
               id="path9266" />
            <path
               d="m 1314.5483,478.89702 0,-16.98269"
               style="font-size:12px;fill:none;stroke:#000000;stroke-width:4.21651554"
               id="path9268" />
            <path
               d="m 1320.7432,476.6327 0,-13.30126"
               style="font-size:12px;fill:none;stroke:#000000;stroke-width:4.49010658"
               id="path9270" />
            <path
               d="m 1327.1103,475.50054 0,-9.90471"
               style="font-size:12px;fill:none;stroke:#000000;stroke-width:4.76371717"
               id="path9272" />
            <path
               d="m 1333.8491,473.23838 0,-4.8133"
               style="font-size:12px;fill:none;stroke:#000000;stroke-width:5.6166563"
               id="path9274" />
            <path
               d="m 1164.4881,492.11312 0,-43.31489 m 14.4888,44.73199 -0.1883,-45.86422 m 10.7481,46.4303 0,-46.71517"
               style="font-size:12px;fill:none;stroke:#000000;stroke-width:0.28968406"
               id="path9276" />
          </g>
          <path
             id="path9278"
             d="m 1332.9288,258.95109 c -56.6125,0.59496 -113.8695,0.65825 -169.4687,12.59375 -12.4076,3.9409 -30.155,6.13468 -34.8125,20.09375 -1.528,11.65924 12.4871,16.60822 21.25,19.8125 41.7443,12.61004 85.8726,13.68493 129.1249,15.65625 67.2905,1.35833 134.9897,1.88524 201.7813,-7.53125 18.2471,-3.54712 38.3386,-5.73707 53.3437,-17.6875 8.9596,-8.83177 -0.9392,-21.17866 -10.8437,-23.71875 -33.9772,-13.11954 -71.0328,-14.51638 -106.9687,-17.1875 -27.7733,-1.52521 -55.5946,-2.01188 -83.4063,-2.03125 z m 0.1563,14.03125 c 145.4162,2e-5 186.125,20.4375 186.125,20.4375 -10e-5,-1e-5 -34.0253,20.4375 -186.125,20.4375 -152.5836,0 -186.0938,-20.4375 -186.0938,-20.4375 0,-1e-5 40.194,-20.4375 186.0938,-20.4375 z"
             style="fill:#eac102;fill-rule:evenodd;stroke:#000000;stroke-width:1.11399102px;stroke-linecap:butt;stroke-linejoin:miter;stroke-opacity:1" />
        </g>
      </g>
    </g>
  </g>
</svg>
