<?xml version="1.0" encoding="UTF-8" standalone="no"?>
<svg
   xmlns:dc="http://purl.org/dc/elements/1.1/"
   xmlns:cc="http://creativecommons.org/ns#"
   xmlns:rdf="http://www.w3.org/1999/02/22-rdf-syntax-ns#"
   xmlns:svg="http://www.w3.org/2000/svg"
   xmlns="http://www.w3.org/2000/svg"
   xmlns:xlink="http://www.w3.org/1999/xlink"
   version="1.0"
   id="svg2"
   height="111.99989"
   width="60.999729">
  <defs
     id="defs4">
    <linearGradient
       xlink:href="#linearGradient8929"
       id="linearGradient2479"
       gradientUnits="userSpaceOnUse"
       gradientTransform="matrix(1.1415684,0,0,1.1415684,-468.9158,2199.5559)"
       x1="133.79698"
       y1="343.1196"
       x2="416.20303"
       y2="343.1196" />
    <linearGradient
       id="linearGradient8929">
      <stop
         id="stop8931"
         offset="0"
         style="stop-color:#776201;stop-opacity:1;" />
      <stop
         style="stop-color:#eac102;stop-opacity:1;"
         offset="0.5"
         id="stop8933" />
      <stop
         id="stop8935"
         offset="1"
         style="stop-color:#776201;stop-opacity:1;" />
    </linearGradient>
  </defs>
  <metadata
     id="metadata7">
    <rdf:RDF>
      <cc:Work
         rdf:about="">
        <dc:format>image/svg+xml</dc:format>
        <dc:type
           rdf:resource="http://purl.org/dc/dcmitype/StillImage" />
        <dc:title></dc:title>
      </cc:Work>
    </rdf:RDF>
  </metadata>
  <g
     transform="translate(0,-940.3623)"
     id="layer1">
    <rect
       ry="4.5875664"
       height="111.87489"
       x="0.0625"
       y="940.4248"
       width="60.874729"
       id="rect2160"
       style="fill:#ffffff;fill-opacity:1;fill-rule:evenodd;stroke:#000000;stroke-width:0.10020415;stroke-linecap:butt;stroke-linejoin:round;stroke-miterlimit:79.19999695;stroke-dasharray:none;stroke-opacity:1" />
    <g
       transform="translate(-19,-3.2362573e-6)"
       id="g3176">
      <g
         style="fill-rule:nonzero;stroke:none;stroke-miterlimit:4"
         id="g2593"
         transform="matrix(0.4512453,0,0,0.4534853,-7.1476035,938.38694)">
        <path
           d="M 92.086914,20.009766 C 92.086914,23.784668 88.933594,26.84375 85.041992,26.84375 C 81.150391,26.84375 77.996094,23.784668 77.996094,20.009766 C 77.996094,16.236328 81.150391,13.17627 85.041992,13.17627 C 88.933594,13.17627 92.086914,16.236328 92.086914,20.009766 z"
           id="path2595" />
        <path
           d="M 101.15918,32.939941 C 101.15918,36.714356 98.004883,39.772949 94.114258,39.772949 C 90.22168,39.772949 87.067383,36.714355 87.067383,32.939941 C 87.067383,29.165527 90.22168,26.106445 94.114258,26.106445 C 98.004883,26.106445 101.15918,29.165527 101.15918,32.939941 z"
           id="path2597" />
        <path
           d="M 83.117676,32.989746 C 83.117676,34.37207 82.694824,35.658203 81.967285,36.733398 C 80.708496,38.594238 78.537598,39.823242 76.070801,39.823242 C 72.179199,39.823242 69.025879,36.764648 69.025879,32.989746 C 69.025879,29.216309 72.179199,26.15625 76.070801,26.15625 C 79.962891,26.15625 83.117676,29.216309 83.117676,32.989746 z"
           id="path2599" />
        <g
           id="g2601">
          <path
             d="M 93.305664,46.253418 C 89.827149,46.255859 87.99707,43.42627 87.036133,40.596191 C 86.075195,37.766602 85.985352,34.935547 85.985352,34.935547 L 84.209961,34.920899 C 84.209961,34.920899 83.875977,46.245117 76.919434,46.250488 L 93.305664,46.253418 L 93.305664,46.253418 z"
             id="path2603" />
        </g>
        <g
           id="g2605">
          <path
             d="M 80.252441,25.021973 C 84.209961,28.979004 84.209961,34.920899 84.209961,34.920899 L 85.985351,34.935547 C 85.985351,34.935547 85.985351,28.867676 89.831055,25.021973"
             id="path2607" />
        </g>
        <g
           id="g2609">
          <path
             d="M 81.044434,37.738769 C 85.000977,33.78125 90.944336,33.78125 90.944336,33.78125 L 90.958008,32.005859 C 90.958008,32.005859 84.889648,32.005859 81.044434,28.159668"
             id="path2611" />
        </g>
        <g
           id="g2613">
          <path
             d="M 88.981445,37.768066 C 85.024414,33.810547 79.081543,33.810547 79.081543,33.810547 L 79.067383,32.035156 C 79.067383,32.035156 85.135742,32.035156 88.981445,28.188965"
             id="path2615" />
        </g>
      </g>
      <rect
         style="fill:#ffffff;fill-opacity:1;stroke:#000000;stroke-width:0;stroke-linejoin:miter;stroke-miterlimit:79.19999695;stroke-dasharray:none;stroke-opacity:1"
         id="rect2509"
         width="4"
         height="15"
         x="24"
         y="944.36218"
         ry="0" />
    </g>
    <g
       id="g3247"
       transform="matrix(1,0,0,-1,14,1992.7244)">
      <g
         style="fill-rule:nonzero;stroke:none;stroke-miterlimit:4"
         id="g3249"
         transform="matrix(0.4512453,0,0,0.4534853,-3.6476045,938.38694)">
        <path
           d="M 92.086914,20.009766 C 92.086914,23.784668 88.933594,26.84375 85.041992,26.84375 C 81.150391,26.84375 77.996094,23.784668 77.996094,20.009766 C 77.996094,16.236328 81.150391,13.17627 85.041992,13.17627 C 88.933594,13.17627 92.086914,16.236328 92.086914,20.009766 z"
           id="path3251" />
        <path
           d="M 101.15918,32.939941 C 101.15918,36.714356 98.004883,39.772949 94.114258,39.772949 C 90.22168,39.772949 87.067383,36.714355 87.067383,32.939941 C 87.067383,29.165527 90.22168,26.106445 94.114258,26.106445 C 98.004883,26.106445 101.15918,29.165527 101.15918,32.939941 z"
           id="path3253" />
        <path
           d="M 83.117676,32.989746 C 83.117676,34.37207 82.694824,35.658203 81.967285,36.733398 C 80.708496,38.594238 78.537598,39.823242 76.070801,39.823242 C 72.179199,39.823242 69.025879,36.764648 69.025879,32.989746 C 69.025879,29.216309 72.179199,26.15625 76.070801,26.15625 C 79.962891,26.15625 83.117676,29.216309 83.117676,32.989746 z"
           id="path3255" />
        <g
           id="g3257">
          <path
             d="M 93.305664,46.253418 C 89.827149,46.255859 87.99707,43.42627 87.036133,40.596191 C 86.075195,37.766602 85.985352,34.935547 85.985352,34.935547 L 84.209961,34.920899 C 84.209961,34.920899 83.875977,46.245117 76.919434,46.250488 L 93.305664,46.253418 L 93.305664,46.253418 z"
             id="path3259" />
        </g>
        <g
           id="g3261">
          <path
             d="M 80.252441,25.021973 C 84.209961,28.979004 84.209961,34.920899 84.209961,34.920899 L 85.985351,34.935547 C 85.985351,34.935547 85.985351,28.867676 89.831055,25.021973"
             id="path3263" />
        </g>
        <g
           id="g3265">
          <path
             d="M 81.044434,37.738769 C 85.000977,33.78125 90.944336,33.78125 90.944336,33.78125 L 90.958008,32.005859 C 90.958008,32.005859 84.889648,32.005859 81.044434,28.159668"
             id="path3267" />
        </g>
        <g
           id="g3269">
          <path
             d="M 88.981445,37.768066 C 85.024414,33.810547 79.081543,33.810547 79.081543,33.810547 L 79.067383,32.035156 C 79.067383,32.035156 85.135742,32.035156 88.981445,28.188965"
             id="path3271" />
        </g>
      </g>
      <rect
         style="fill:#ffffff;fill-opacity:1;stroke:#000000;stroke-width:0;stroke-linejoin:miter;stroke-miterlimit:79.19999695;stroke-dasharray:none;stroke-opacity:1"
         id="rect3273"
         width="4"
         height="15"
         x="38"
         y="944.36218"
         ry="0" />
    </g>
    <g
       style="fill-rule:nonzero;stroke:none;stroke-miterlimit:4"
       id="g2617"
       transform="matrix(0.1400416,0,0,0.1511618,-6.6664945,950.37043)">
      <path
         d="M 92.086914,20.009766 C 92.086914,23.784668 88.933594,26.84375 85.041992,26.84375 C 81.150391,26.84375 77.996094,23.784668 77.996094,20.009766 C 77.996094,16.236328 81.150391,13.17627 85.041992,13.17627 C 88.933594,13.17627 92.086914,16.236328 92.086914,20.009766 z"
         id="path2619" />
      <path
         d="M 101.15918,32.939941 C 101.15918,36.714356 98.004883,39.772949 94.114258,39.772949 C 90.22168,39.772949 87.067383,36.714355 87.067383,32.939941 C 87.067383,29.165527 90.22168,26.106445 94.114258,26.106445 C 98.004883,26.106445 101.15918,29.165527 101.15918,32.939941 z"
         id="path2621" />
      <path
         d="M 83.117676,32.989746 C 83.117676,34.37207 82.694824,35.658203 81.967285,36.733398 C 80.708496,38.594238 78.537598,39.823242 76.070801,39.823242 C 72.179199,39.823242 69.025879,36.764648 69.025879,32.989746 C 69.025879,29.216309 72.179199,26.15625 76.070801,26.15625 C 79.962891,26.15625 83.117676,29.216309 83.117676,32.989746 z"
         id="path2623" />
      <g
         id="g2625">
        <path
           d="M 93.305664,46.253418 C 89.827149,46.255859 87.99707,43.42627 87.036133,40.596191 C 86.075195,37.766602 85.985352,34.935547 85.985352,34.935547 L 84.209961,34.920899 C 84.209961,34.920899 83.875977,46.245117 76.919434,46.250488 L 93.305664,46.253418 L 93.305664,46.253418 z"
           id="path2627" />
      </g>
      <g
         id="g2629">
        <path
           d="M 80.252441,25.021973 C 84.209961,28.979004 84.209961,34.920899 84.209961,34.920899 L 85.985351,34.935547 C 85.985351,34.935547 85.985351,28.867676 89.831055,25.021973"
           id="path2631" />
      </g>
      <g
         id="g2633">
        <path
           d="M 81.044434,37.738769 C 85.000977,33.78125 90.944336,33.78125 90.944336,33.78125 L 90.958008,32.005859 C 90.958008,32.005859 84.889648,32.005859 81.044434,28.159668"
           id="path2635" />
      </g>
      <g
         id="g2637">
        <path
           d="M 88.981445,37.768066 C 85.024414,33.810547 79.081543,33.810547 79.081543,33.810547 L 79.067383,32.035156 C 79.067383,32.035156 85.135742,32.035156 88.981445,28.188965"
           id="path2639" />
      </g>
    </g>
    <g
       transform="matrix(0.1400416,0,0,0.1511618,43.833505,950.37043)"
       id="g2707"
       style="fill-rule:nonzero;stroke:none;stroke-miterlimit:4">
      <path
         id="path2709"
         d="M 92.086914,20.009766 C 92.086914,23.784668 88.933594,26.84375 85.041992,26.84375 C 81.150391,26.84375 77.996094,23.784668 77.996094,20.009766 C 77.996094,16.236328 81.150391,13.17627 85.041992,13.17627 C 88.933594,13.17627 92.086914,16.236328 92.086914,20.009766 z" />
      <path
         id="path2711"
         d="M 101.15918,32.939941 C 101.15918,36.714356 98.004883,39.772949 94.114258,39.772949 C 90.22168,39.772949 87.067383,36.714355 87.067383,32.939941 C 87.067383,29.165527 90.22168,26.106445 94.114258,26.106445 C 98.004883,26.106445 101.15918,29.165527 101.15918,32.939941 z" />
      <path
         id="path2713"
         d="M 83.117676,32.989746 C 83.117676,34.37207 82.694824,35.658203 81.967285,36.733398 C 80.708496,38.594238 78.537598,39.823242 76.070801,39.823242 C 72.179199,39.823242 69.025879,36.764648 69.025879,32.989746 C 69.025879,29.216309 72.179199,26.15625 76.070801,26.15625 C 79.962891,26.15625 83.117676,29.216309 83.117676,32.989746 z" />
      <g
         id="g2715">
        <path
           id="path2717"
           d="M 93.305664,46.253418 C 89.827149,46.255859 87.99707,43.42627 87.036133,40.596191 C 86.075195,37.766602 85.985352,34.935547 85.985352,34.935547 L 84.209961,34.920899 C 84.209961,34.920899 83.875977,46.245117 76.919434,46.250488 L 93.305664,46.253418 L 93.305664,46.253418 z" />
      </g>
      <g
         id="g2719">
        <path
           id="path2721"
           d="M 80.252441,25.021973 C 84.209961,28.979004 84.209961,34.920899 84.209961,34.920899 L 85.985351,34.935547 C 85.985351,34.935547 85.985351,28.867676 89.831055,25.021973" />
      </g>
      <g
         id="g2723">
        <path
           id="path2725"
           d="M 81.044434,37.738769 C 85.000977,33.78125 90.944336,33.78125 90.944336,33.78125 L 90.958008,32.005859 C 90.958008,32.005859 84.889648,32.005859 81.044434,28.159668" />
      </g>
      <g
         id="g2727">
        <path
           id="path2729"
           d="M 88.981445,37.768066 C 85.024414,33.810547 79.081543,33.810547 79.081543,33.810547 L 79.067383,32.035156 C 79.067383,32.035156 85.135742,32.035156 88.981445,28.188965" />
      </g>
    </g>
    <g
       transform="matrix(0.1400416,0,0,-0.1511618,-6.6664945,1042.3539)"
       id="g2731"
       style="fill-rule:nonzero;stroke:none;stroke-miterlimit:4">
      <path
         id="path2733"
         d="M 92.086914,20.009766 C 92.086914,23.784668 88.933594,26.84375 85.041992,26.84375 C 81.150391,26.84375 77.996094,23.784668 77.996094,20.009766 C 77.996094,16.236328 81.150391,13.17627 85.041992,13.17627 C 88.933594,13.17627 92.086914,16.236328 92.086914,20.009766 z" />
      <path
         id="path2735"
         d="M 101.15918,32.939941 C 101.15918,36.714356 98.004883,39.772949 94.114258,39.772949 C 90.22168,39.772949 87.067383,36.714355 87.067383,32.939941 C 87.067383,29.165527 90.22168,26.106445 94.114258,26.106445 C 98.004883,26.106445 101.15918,29.165527 101.15918,32.939941 z" />
      <path
         id="path2737"
         d="M 83.117676,32.989746 C 83.117676,34.37207 82.694824,35.658203 81.967285,36.733398 C 80.708496,38.594238 78.537598,39.823242 76.070801,39.823242 C 72.179199,39.823242 69.025879,36.764648 69.025879,32.989746 C 69.025879,29.216309 72.179199,26.15625 76.070801,26.15625 C 79.962891,26.15625 83.117676,29.216309 83.117676,32.989746 z" />
      <g
         id="g2739">
        <path
           id="path2741"
           d="M 93.305664,46.253418 C 89.827149,46.255859 87.99707,43.42627 87.036133,40.596191 C 86.075195,37.766602 85.985352,34.935547 85.985352,34.935547 L 84.209961,34.920899 C 84.209961,34.920899 83.875977,46.245117 76.919434,46.250488 L 93.305664,46.253418 L 93.305664,46.253418 z" />
      </g>
      <g
         id="g2743">
        <path
           id="path2745"
           d="M 80.252441,25.021973 C 84.209961,28.979004 84.209961,34.920899 84.209961,34.920899 L 85.985351,34.935547 C 85.985351,34.935547 85.985351,28.867676 89.831055,25.021973" />
      </g>
      <g
         id="g2747">
        <path
           id="path2749"
           d="M 81.044434,37.738769 C 85.000977,33.78125 90.944336,33.78125 90.944336,33.78125 L 90.958008,32.005859 C 90.958008,32.005859 84.889648,32.005859 81.044434,28.159668" />
      </g>
      <g
         id="g2751">
        <path
           id="path2753"
           d="M 88.981445,37.768066 C 85.024414,33.810547 79.081543,33.810547 79.081543,33.810547 L 79.067383,32.035156 C 79.067383,32.035156 85.135742,32.035156 88.981445,28.188965" />
      </g>
    </g>
    <g
       style="fill-rule:nonzero;stroke:none;stroke-miterlimit:4"
       id="g2755"
       transform="matrix(0.1400416,0,0,-0.1511618,43.833505,1042.3539)">
      <path
         d="M 92.086914,20.009766 C 92.086914,23.784668 88.933594,26.84375 85.041992,26.84375 C 81.150391,26.84375 77.996094,23.784668 77.996094,20.009766 C 77.996094,16.236328 81.150391,13.17627 85.041992,13.17627 C 88.933594,13.17627 92.086914,16.236328 92.086914,20.009766 z"
         id="path2757" />
      <path
         d="M 101.15918,32.939941 C 101.15918,36.714356 98.004883,39.772949 94.114258,39.772949 C 90.22168,39.772949 87.067383,36.714355 87.067383,32.939941 C 87.067383,29.165527 90.22168,26.106445 94.114258,26.106445 C 98.004883,26.106445 101.15918,29.165527 101.15918,32.939941 z"
         id="path2759" />
      <path
         d="M 83.117676,32.989746 C 83.117676,34.37207 82.694824,35.658203 81.967285,36.733398 C 80.708496,38.594238 78.537598,39.823242 76.070801,39.823242 C 72.179199,39.823242 69.025879,36.764648 69.025879,32.989746 C 69.025879,29.216309 72.179199,26.15625 76.070801,26.15625 C 79.962891,26.15625 83.117676,29.216309 83.117676,32.989746 z"
         id="path2761" />
      <g
         id="g2763">
        <path
           d="M 93.305664,46.253418 C 89.827149,46.255859 87.99707,43.42627 87.036133,40.596191 C 86.075195,37.766602 85.985352,34.935547 85.985352,34.935547 L 84.209961,34.920899 C 84.209961,34.920899 83.875977,46.245117 76.919434,46.250488 L 93.305664,46.253418 L 93.305664,46.253418 z"
           id="path2765" />
      </g>
      <g
         id="g2767">
        <path
           d="M 80.252441,25.021973 C 84.209961,28.979004 84.209961,34.920899 84.209961,34.920899 L 85.985351,34.935547 C 85.985351,34.935547 85.985351,28.867676 89.831055,25.021973"
           id="path2769" />
      </g>
      <g
         id="g2771">
        <path
           d="M 81.044434,37.738769 C 85.000977,33.78125 90.944336,33.78125 90.944336,33.78125 L 90.958008,32.005859 C 90.958008,32.005859 84.889648,32.005859 81.044434,28.159668"
           id="path2773" />
      </g>
      <g
         id="g2775">
        <path
           d="M 88.981445,37.768066 C 85.024414,33.810547 79.081543,33.810547 79.081543,33.810547 L 79.067383,32.035156 C 79.067383,32.035156 85.135742,32.035156 88.981445,28.188965"
           id="path2777" />
      </g>
    </g>
    <g
       transform="translate(71.503462,48.01061)"
       style="display:inline"
       id="layer3" />
    <text
       xml:space="preserve"
       style="font-size:11.01527214px;font-style:normal;font-weight:normal;fill:#000000;fill-opacity:1;stroke:none;stroke-width:1px;stroke-linecap:butt;stroke-linejoin:miter;stroke-opacity:1;font-family:Bitstream Vera Sans"
       x="0.92823052"
       y="934.83606"
       id="text10951"
       transform="scale(0.9827906,1.0175107)"><tspan
         id="tspan10953"
         x="0.92823052"
         y="934.83606"
         style="font-size:10.15810108px;font-family:Times New Roman">V</tspan></text>
    <path
       style="fill:none;fill-rule:evenodd;stroke:#000000;stroke-width:0.5;stroke-linecap:butt;stroke-linejoin:miter;stroke-miterlimit:4;stroke-dasharray:none;stroke-opacity:1"
       d="M 52.25,1032.6122 L 52.25,954.61219 L 20.25,954.61219"
       id="path21798" />
    <path
       style="fill:none;fill-rule:evenodd;stroke:#000000;stroke-width:0.5;stroke-linecap:butt;stroke-linejoin:miter;stroke-miterlimit:4;stroke-dasharray:none;stroke-opacity:1"
       d="M 8.25,960.11219 L 8.25,1038.1122 L 40.249998,1038.1122"
       id="path21802" />
    <text
       xml:space="preserve"
       style="font-size:11.01527214px;font-style:normal;font-weight:normal;fill:#000000;fill-opacity:1;stroke:none;stroke-width:1px;stroke-linecap:butt;stroke-linejoin:miter;stroke-opacity:1;font-family:Bitstream Vera Sans"
       x="53.838787"
       y="934.83606"
       id="text12079"
       transform="scale(0.9827906,1.0175107)"><tspan
         id="tspan12081"
         x="53.838787"
         y="934.83606"
         style="font-size:10.15810108px;font-family:Times New Roman">V</tspan></text>
    <text
       xml:space="preserve"
       style="font-size:11.01527214px;font-style:normal;font-weight:normal;fill:#000000;fill-opacity:1;stroke:none;stroke-width:1px;stroke-linecap:butt;stroke-linejoin:miter;stroke-opacity:1;font-family:Bitstream Vera Sans"
       x="-61.139923"
       y="-1023.5948"
       id="text12083"
       transform="scale(-0.9827906,-1.0175107)"><tspan
         id="tspan12085"
         x="-61.139923"
         y="-1023.5948"
         style="font-size:10.15810108px;font-family:Times New Roman">V</tspan></text>
    <text
       xml:space="preserve"
       style="font-size:11.01527214px;font-style:normal;font-weight:normal;fill:#000000;fill-opacity:1;stroke:none;stroke-width:1px;stroke-linecap:butt;stroke-linejoin:miter;stroke-opacity:1;font-family:Bitstream Vera Sans"
       x="-8.2293653"
       y="-1023.5948"
       id="text12087"
       transform="scale(-0.9827906,-1.0175107)"><tspan
         id="tspan12089"
         x="-8.2293653"
         y="-1023.5948"
         style="font-size:10.15810108px;font-family:Times New Roman">V</tspan></text>
    <g
       id="layer1-5"
       transform="matrix(0.09907257,0,0,0.09695622,44.571615,916.21134)">
      <g
         id="g2408"
         transform="translate(7.5001703,5.9924602)">
        <g
           style="fill:#e3e4e5;fill-opacity:1"
           transform="matrix(1.1415684,0,0,1.1415684,-468.9158,2199.5559)"
           id="g10139">
          <path
             style="fill:#e3e4e5;fill-opacity:1;stroke:#010101;stroke-width:0.87598789;stroke-miterlimit:4;stroke-dasharray:none"
             d="m 409.3588,-1173.4179 c -4.5843,-0.06 -8.24846,-3.8224 -8.18807,-8.4067 0.0603,-4.5802 3.82232,-8.2443 8.40663,-8.1839 4.5823,0.06 8.24636,3.8223 8.18603,8.4025 -0.0604,4.5843 -3.82228,8.2485 -8.40459,8.1881 z"
             type="arc"
             cx="-486.21375"
             ry="3.9327636"
             cy="-89.381149"
             rx="3.9327636"
             id="path10141" />
          <path
             id="path10143"
             rx="3.9327636"
             cy="-89.381149"
             ry="3.9327636"
             cx="-486.21375"
             type="arc"
             d="m 345.315,-1161.7026 c -4.5843,-0.06 -8.24846,-3.8224 -8.18807,-8.4067 0.0603,-4.5802 3.82232,-8.2443 8.40663,-8.1839 4.5823,0.06 8.24636,3.8223 8.18603,8.4025 -0.0604,4.5843 -3.82228,8.2485 -8.40459,8.1881 z"
             style="fill:#e3e4e5;fill-opacity:1;stroke:#010101;stroke-width:0.87598789;stroke-miterlimit:4;stroke-dasharray:none" />
          <path
             style="fill:#e3e4e5;fill-opacity:1;stroke:#010101;stroke-width:0.87598789;stroke-miterlimit:4;stroke-dasharray:none"
             d="m 273.46099,-1158.5785 c -4.5843,-0.06 -8.24846,-3.8224 -8.18807,-8.4067 0.0603,-4.5802 3.82232,-8.2443 8.40663,-8.1839 4.5823,0.06 8.24636,3.8223 8.18603,8.4025 -0.0604,4.5843 -3.82228,8.2485 -8.40459,8.1881 z"
             type="arc"
             cx="-486.21375"
             ry="3.9327636"
             cy="-89.381149"
             rx="3.9327636"
             id="path10145" />
          <path
             id="path10147"
             rx="3.9327636"
             cy="-89.381149"
             ry="3.9327636"
             cx="-486.21375"
             type="arc"
             d="m 198.48289,-1164.0457 c -4.5843,-0.06 -8.24846,-3.8224 -8.18807,-8.4067 0.0603,-4.5802 3.82232,-8.2443 8.40663,-8.1839 4.5823,0.06 8.24636,3.8223 8.18603,8.4025 -0.0604,4.5843 -3.82228,8.2485 -8.40459,8.1881 z"
             style="fill:#e3e4e5;fill-opacity:1;stroke:#010101;stroke-width:0.87598789;stroke-miterlimit:4;stroke-dasharray:none" />
          <path
             style="fill:#e3e4e5;fill-opacity:1;stroke:#010101;stroke-width:0.87598789;stroke-miterlimit:4;stroke-dasharray:none"
             d="m 132.09603,-1174.98 c -4.5843,-0.06 -8.24846,-3.8224 -8.18807,-8.4067 0.0603,-4.5802 3.82232,-8.2443 8.40663,-8.1839 4.5823,0.06 8.24636,3.8223 8.18603,8.4025 -0.0604,4.5843 -3.82228,8.2485 -8.40459,8.1881 z"
             type="arc"
             cx="-486.21375"
             ry="3.9327636"
             cy="-89.381149"
             rx="3.9327636"
             id="path10149" />
        </g>
        <path
           style="fill:#e3e4e5;fill-opacity:1;stroke:#010101;stroke-width:1.00000012;stroke-miterlimit:4;stroke-dasharray:none"
           d="m 24.3209,823.72027 c -5.2333,-0.0689 -9.4162,-4.3635 -9.3472,-9.5969 0.0688,-5.2285 4.3634,-9.4115 9.5967,-9.3425 5.231,0.0689 9.4138,4.3635 9.3449,9.592 -0.0689,5.2334 -4.3634,9.4162 -9.5944,9.3474 z"
           type="arc"
           cx="-486.21375"
           ry="3.9327636"
           cy="-89.381149"
           rx="3.9327636"
           id="path10151" />
        <path
           id="path10153"
           rx="3.9327636"
           cy="-89.381149"
           ry="3.9327636"
           cx="-486.21375"
           type="arc"
           d="m 35.6665,812.66967 c -5.2333,-0.0689 -9.4162,-4.3635 -9.3473,-9.5968 0.0689,-5.2286 4.3635,-9.4115 9.5968,-9.3425 5.231,0.0689 9.4138,4.3634 9.3449,9.592 -0.069,5.2333 -4.3634,9.4163 -9.5944,9.3473 z"
           style="fill:#e3e4e5;fill-opacity:1;stroke:#010101;stroke-width:1.00000012;stroke-miterlimit:4;stroke-dasharray:none" />
        <path
           id="path10157"
           style="font-size:12px;fill:#eac102;fill-opacity:1;stroke:#000000;stroke-width:0.99999994;stroke-miterlimit:4;stroke-opacity:1;stroke-dasharray:none"
           d="m -155.5642,816.02737 c -69.3806,0.135 -131.652,8.8314 -175.4834,22.3292 3.6418,-1.7281 -1.7414,-17.2108 -6.2683,-28.8808 -5.4755,-14.1152 -13.5126,-16.1983 -13.5126,-16.1983 48.4583,-14.3139 120.4801,-24.4108 195.557,-24.5064 75.105,0.0956 147.498,9.8649 195.962,24.1787 0,0 -9.5851,3.1333 -15.0562,17.2501 -4.5256,11.6684 -8.2087,26.4286 -4.5612,28.1567 -43.8259,-13.4978 -107.2624,-22.1942 -176.6373,-22.3292" />
        <path
           id="path10159"
           style="font-size:12px;fill:#eac102;fill-opacity:1;stroke:#000000;stroke-width:0.99999994;stroke-miterlimit:4;stroke-opacity:1;stroke-dasharray:none"
           d="m -155.1449,772.21257 c -75.0769,0.1183 -142.5324,9.0511 -190.9907,23.3875 -3.2309,0.9681 -6.6476,-0.2984 -7.6946,-3.3548 -1.0469,-3.062 0.6924,-6.5743 3.9233,-7.565 48.6666,-14.9274 117.8614,-24.2993 194.7789,-24.4569 76.9344,0.1408 146.3938,9.5295 195.066,24.4569 3.2308,0.9907 4.9701,4.503 3.9232,7.565 -1.0525,3.0564 -4.4692,4.3229 -7.6946,3.3548 -48.4639,-14.3364 -116.2065,-23.2692 -191.3115,-23.3875" />
        <path
           id="path10161"
           style="font-size:12px;fill:#eac102;fill-opacity:1;stroke:#000000;stroke-width:0.99999994;stroke-miterlimit:4;stroke-opacity:1;stroke-dasharray:none"
           d="m -154.944,872.42167 c -68.5587,-0.1013 -129.9745,-8.218 -173.8004,-21.4174 -3.2084,-0.9737 -4.8858,-3.9119 -4.7,-6.9515 -0.0563,-2.9551 1.5986,-5.6343 4.7,-6.5687 43.8259,-13.1825 105.2417,-21.2991 173.8004,-21.4005 68.5475,0.1014 129.9182,8.218 173.7497,21.4005 3.1015,0.9344 4.7282,3.6136 4.6719,6.5687 0.1689,3.0396 -1.486,5.9778 -4.6719,6.9515 -43.8315,13.1994 -105.2022,21.3161 -173.7497,21.4174" />
        <path
           id="path10163"
           style="font-size:12px;fill:url(#linearGradient2479);fill-opacity:1;stroke:#000000;stroke-width:0.99999994;stroke-miterlimit:4;stroke-dasharray:none"
           d="m -155.128,863.42687 c -61.8717,-0.0787 -117.7939,-7.2216 -160.3645,-18.2202 42.5706,-11.0154 98.4928,-17.7474 160.3645,-17.8656 61.8604,0.1182 118.0809,6.8502 160.6515,17.8656 -42.5706,10.9986 -98.7911,18.1415 -160.6515,18.2202" />
        <path
           id="path10169"
           style="font-size:12px;fill:#eac102;fill-opacity:1;stroke:#000000;stroke-width:0.99999994;stroke-miterlimit:4;stroke-opacity:1;stroke-dasharray:none"
           d="m -155.0128,807.71697 c -16.0381,0 -28.9766,-6.0416 -28.9766,-13.487 0,-7.4454 12.9385,-13.512 28.9766,-13.512 16.0522,0 29.0333,6.0416 29.0333,13.512 0,7.4454 -12.9811,13.487 -29.0333,13.487" />
        <path
           d="m -155.0055,803.48137 c -11.9123,0 -21.5223,-4.146 -21.5223,-9.2553 0,-5.1093 9.61,-9.2725 21.5223,-9.2725 11.9228,0 21.5646,4.146 21.5646,9.2725 0,5.1093 -9.6418,9.2553 -21.5646,9.2553"
           style="font-size:12px;fill:#ed1c24;fill-opacity:1;stroke:#000000;stroke-width:0.99999994;stroke-miterlimit:4;stroke-opacity:1;stroke-dasharray:none"
           id="path10171" />
        <path
           style="font-size:12px;fill:#eac102;fill-opacity:1;stroke:#000000;stroke-width:0.99999994;stroke-miterlimit:4;stroke-opacity:1;stroke-dasharray:none"
           d="m 29.8426,803.28657 c -0.547,-0.1761 -0.9744,-0.443 -1.534,-0.6065 -15.395,-4.496 -29.52,-2.2951 -31.6072,4.8517 -2.0784,7.1166 8.5756,16.4579 23.8659,20.9763 0.7701,-0.9415 1.6017,-1.7152 2.3188,-2.7112 1.0784,-1.4979 2.0959,-3.0202 2.961,-4.602 0.865,-1.5817 1.5653,-3.1977 2.1047,-4.8159 0.5068,-1.5202 0.9121,-3.0818 1.213,-4.602 0.3008,-1.5202 0.5064,-2.9934 0.6421,-4.4592 0.1351,-1.4594 0.0239,-2.6794 0.0357,-4.0312 z"
           id="path10175" />
        <path
           style="font-size:12px;fill:#ed1c24;fill-opacity:1;stroke:#000000;stroke-width:0.99999994;stroke-miterlimit:4;stroke-opacity:1;stroke-dasharray:none"
           d="m 30.0923,807.88847 c -1.0129,-0.3696 -1.8835,-0.8269 -2.961,-1.1415 -11.4345,-3.3394 -21.8271,-2.0506 -23.2594,2.8539 -1.4323,4.9044 6.6165,11.608 18.051,14.9474 0.6904,0.2016 1.3166,0.2242 1.9978,0.3924 0.9118,-0.6822 1.862,-1.2643 2.6755,-2.0691 0.7526,-0.7445 1.4535,-1.5488 2.0335,-2.3901 0.5799,-0.8414 1.0335,-1.7451 1.3556,-2.6756 0.3257,-0.941 0.5352,-1.9515 0.6421,-2.9966 0.1069,-1.0451 0.1324,-2.1248 0.0713,-3.2107 -0.0717,-1.2759 -0.3791,-2.473 -0.6064,-3.7101 z"
           id="path10177" />
        <path
           id="path10181"
           d="m -340.5732,803.28657 c 0.547,-0.1761 0.9744,-0.443 1.534,-0.6065 15.395,-4.496 29.52,-2.2951 31.6072,4.8517 2.0784,7.1166 -8.5756,16.4579 -23.8659,20.9763 -0.7701,-0.9415 -1.6017,-1.7152 -2.3188,-2.7112 -1.0784,-1.4979 -2.0959,-3.0202 -2.961,-4.602 -0.865,-1.5817 -1.5653,-3.1977 -2.1047,-4.8159 -0.5068,-1.5202 -0.9121,-3.0818 -1.213,-4.602 -0.3008,-1.5202 -0.5064,-2.9934 -0.6421,-4.4592 -0.1351,-1.4594 -0.0239,-2.6794 -0.0357,-4.0312 z"
           style="font-size:12px;fill:#eac102;fill-opacity:1;stroke:#000000;stroke-width:0.99999994;stroke-miterlimit:4;stroke-opacity:1;stroke-dasharray:none" />
        <path
           id="path10183"
           d="m -340.8229,807.88847 c 1.0129,-0.3696 1.8835,-0.8269 2.961,-1.1415 11.4345,-3.3394 21.8271,-2.0506 23.2594,2.8539 1.4323,4.9044 -6.6165,11.608 -18.051,14.9474 -0.6904,0.2016 -1.3166,0.2242 -1.9978,0.3924 -0.9118,-0.6822 -1.862,-1.2643 -2.6755,-2.0691 -0.7526,-0.7445 -1.4535,-1.5488 -2.0335,-2.3901 -0.5799,-0.8414 -1.0335,-1.7451 -1.3556,-2.6756 -0.3257,-0.941 -0.5352,-1.9515 -0.6421,-2.9966 -0.1069,-1.0451 -0.1324,-2.1248 -0.0713,-3.2107 0.0717,-1.2759 0.3791,-2.473 0.6064,-3.7101 z"
           style="font-size:12px;fill:#ed1c24;fill-opacity:1;stroke:#000000;stroke-width:0.99999994;stroke-miterlimit:4;stroke-opacity:1;stroke-dasharray:none" />
        <g
           style="fill:#e3e4e5;fill-opacity:1"
           id="g10185"
           transform="matrix(1.1415684,0,0,1.1415684,167.8089,448.03291)">
          <path
             d="m -329.40582,303.96238 c 0,-2.80064 2.40128,-5.07863 5.35973,-5.07863 2.97818,0 5.38439,2.27799 5.38439,5.07863 0,2.79571 -2.40621,5.09342 -5.38439,5.09342 -2.95845,0 -5.35973,-2.29771 -5.35973,-5.09342"
             style="font-size:12px;fill:#e3e4e5;fill-opacity:1;stroke:#000000;stroke-width:1.05118549;stroke-miterlimit:4;stroke-opacity:1;stroke-dasharray:none"
             id="path10187" />
          <path
             d="m -410.25052,313.40469 c 0,-2.80065 2.40621,-5.07863 5.35973,-5.07863 2.97818,0 5.37946,2.27798 5.37946,5.07863 0,2.81543 -2.40128,5.09341 -5.37946,5.09341 -2.95352,0 -5.35973,-2.27798 -5.35973,-5.09341"
             style="font-size:12px;fill:#e3e4e5;fill-opacity:1;stroke:#000000;stroke-width:1.05118549;stroke-miterlimit:4;stroke-opacity:1;stroke-dasharray:none"
             id="path10189" />
          <path
             d="m -246.04645,303.96238 c 0,-2.80064 2.40624,-5.07863 5.36469,-5.07863 2.97326,0 5.37945,2.27799 5.37945,5.07863 0,2.79571 -2.40619,5.09342 -5.37945,5.09342 -2.95845,0 -5.36469,-2.29771 -5.36469,-5.09342"
             style="font-size:12px;fill:#e3e4e5;fill-opacity:1;stroke:#000000;stroke-width:1.05118549;stroke-miterlimit:4;stroke-opacity:1;stroke-dasharray:none"
             id="path10191" />
          <path
             id="path10193"
             style="font-size:12px;fill:#e3e4e5;fill-opacity:1;stroke:#000000;stroke-width:1.05118549;stroke-miterlimit:4;stroke-opacity:1;stroke-dasharray:none"
             d="m -166.01481,313.40469 c 0,-2.80065 2.40621,-5.07863 5.35973,-5.07863 2.97818,0 5.37946,2.27798 5.37946,5.07863 0,2.81543 -2.40128,5.09341 -5.37946,5.09341 -2.95352,0 -5.35973,-2.27798 -5.35973,-5.09341" />
        </g>
        <rect
           transform="matrix(0.9333663,0.3589253,-0.8147016,0.5798804,0,0)"
           y="984.30859"
           x="589.5448"
           height="35.814728"
           width="35.5821"
           id="rect10199"
           style="fill:#eac102;fill-opacity:1;fill-rule:evenodd;stroke:#000000;stroke-width:1.09523225;stroke-linecap:round;stroke-linejoin:miter;stroke-miterlimit:4;stroke-opacity:1;stroke-dasharray:none;stroke-dashoffset:0;marker:none;visibility:visible;display:inline;overflow:visible;enable-background:accumulate" />
        <rect
           style="fill:#008f4c;fill-opacity:1;fill-rule:evenodd;stroke:#000000;stroke-width:1.09777236;stroke-linecap:round;stroke-linejoin:miter;stroke-miterlimit:4;stroke-opacity:1;stroke-dasharray:none;stroke-dashoffset:0;marker:none;visibility:visible;display:inline;overflow:visible;enable-background:accumulate"
           id="rect10201"
           width="23.33021"
           height="23.482029"
           x="601.25848"
           y="995.34979"
           transform="matrix(0.9346144,0.3556626,-0.8166963,0.5770677,0,0)" />
        <rect
           style="fill:#eac102;fill-opacity:1;fill-rule:evenodd;stroke:#000000;stroke-width:1.09523225;stroke-linecap:round;stroke-linejoin:miter;stroke-miterlimit:4;stroke-opacity:1;stroke-dasharray:none;stroke-dashoffset:0;marker:none;visibility:visible;display:inline;overflow:visible;enable-background:accumulate"
           id="rect10205"
           width="35.5821"
           height="35.814728"
           x="805.15466"
           y="850.85376"
           transform="matrix(-0.9333663,0.3589253,0.8147016,0.5798804,0,0)" />
        <rect
           transform="matrix(-0.9346144,0.3556626,0.8166963,0.5770677,0,0)"
           y="862.4939"
           x="816.81885"
           height="23.482029"
           width="23.33021"
           id="rect10207"
           style="fill:#008f4c;fill-opacity:1;fill-rule:evenodd;stroke:#000000;stroke-width:1.09777236;stroke-linecap:round;stroke-linejoin:miter;stroke-miterlimit:4;stroke-opacity:1;stroke-dasharray:none;stroke-dashoffset:0;marker:none;visibility:visible;display:inline;overflow:visible;enable-background:accumulate" />
        <g
           style="fill:#e3e4e5;fill-opacity:1"
           transform="matrix(1.1415684,0,0,1.1415684,-467.9437,2199.5559)"
           id="g10209">
          <path
             id="path10211"
             rx="9.7493839"
             cy="-132.80592"
             ry="9.7493839"
             cx="-514.24567"
             type="arc"
             d="m 459.8577,-1258.1291 c 0,10.8606 -8.80599,19.6641 -19.67225,19.6641 -10.86828,0 -19.6763,-8.8014 -19.6763,-19.6641 0,-10.8585 8.806,-19.6619 19.6763,-19.6619 10.86626,0 19.67225,8.8014 19.67225,19.6619 z"
             style="fill:#e3e4e5;fill-opacity:1;stroke:#010101;stroke-width:0.87598789;stroke-miterlimit:4;stroke-dasharray:none" />
          <path
             style="fill:#e3e4e5;fill-opacity:1;stroke:#010101;stroke-width:0.87598789;stroke-miterlimit:4;stroke-dasharray:none"
             d="m 127.78772,-1258.1293 c 0,10.8606 -8.81003,19.6641 -19.67629,19.6641 -10.864239,0 -19.672261,-8.8015 -19.672261,-19.6641 0,-10.8585 8.806004,-19.662 19.672261,-19.662 10.86626,0 19.67629,8.8015 19.67629,19.662 z"
             type="arc"
             cx="-514.24567"
             ry="9.7493839"
             cy="-132.80592"
             rx="9.7493839"
             id="path10213" />
        </g>
        <g
           style="fill:#e3e4e5;fill-opacity:1"
           transform="matrix(1.1415684,0,0,1.1415684,-469.4728,2199.5559)"
           id="g10215">
          <path
             style="fill:#e3e4e5;fill-opacity:1;stroke:#010101;stroke-width:0.87598789;stroke-miterlimit:4;stroke-dasharray:none"
             d="m 231.36562,-1276.4573 c 0,10.8607 -8.80801,19.6641 -19.67225,19.6641 -10.86424,0 -19.6763,-8.8014 -19.6763,-19.6641 0,-10.8585 8.81004,-19.6619 19.6763,-19.6619 10.86424,0 19.67225,8.8034 19.67225,19.6619 z"
             type="arc"
             cx="-514.24567"
             ry="9.7493839"
             cy="-132.80592"
             rx="9.7493839"
             id="path10217" />
          <path
             id="path10219"
             rx="9.7493839"
             cy="-132.80592"
             ry="9.7493839"
             cx="-514.24567"
             type="arc"
             d="m 358.95876,-1276.4571 c 0,10.8586 -8.806,19.6641 -19.67226,19.6641 -10.86424,0 -19.67225,-8.8034 -19.67225,-19.6641 0,-10.8605 8.80801,-19.6639 19.67225,-19.6639 10.86626,0 19.67226,8.8054 19.67226,19.6639 z"
             style="fill:#e3e4e5;fill-opacity:1;stroke:#010101;stroke-width:0.87598789;stroke-miterlimit:4;stroke-dasharray:none" />
        </g>
        <g
           style="fill:#e3e4e5;fill-opacity:1"
           transform="matrix(1.1415684,0,0,1.1415684,-468.9158,2199.5559)"
           id="g10221">
          <path
             id="path10223"
             rx="3.9327636"
             cy="-89.381149"
             ry="3.9327636"
             cx="-486.21375"
             type="arc"
             d="m 237.65355,-1260.3099 c 0,4.5847 -3.71338,8.2981 -8.29813,8.2981 -4.58054,0 -8.29392,-3.7134 -8.29392,-8.2981 0,-4.5827 3.71338,-8.296 8.29392,-8.296 4.58475,0 8.29813,3.7133 8.29813,8.296 z"
             style="fill:#e3e4e5;fill-opacity:1;stroke:#010101;stroke-width:0.87598777;stroke-miterlimit:4;stroke-dasharray:none" />
          <path
             style="fill:#e3e4e5;fill-opacity:1;stroke:#010101;stroke-width:0.87598777;stroke-miterlimit:4;stroke-dasharray:none"
             d="m 249.36888,-1254.0617 c 0,4.5847 -3.71338,8.2981 -8.29813,8.2981 -4.58054,0 -8.29392,-3.7134 -8.29392,-8.2981 0,-4.5827 3.71338,-8.296 8.29392,-8.296 4.58475,0 8.29813,3.7133 8.29813,8.296 z"
             type="arc"
             cx="-486.21375"
             ry="3.9327636"
             cy="-89.381149"
             rx="3.9327636"
             id="path10225" />
          <path
             id="path10227"
             rx="3.9327636"
             cy="-89.381149"
             ry="3.9327636"
             cx="-486.21375"
             type="arc"
             d="m 259.1791,-1244.2515 c 0,4.5847 -3.71338,8.2981 -8.29813,8.2981 -4.58054,0 -8.29392,-3.7134 -8.29392,-8.2981 0,-4.5827 3.71338,-8.296 8.29392,-8.296 4.58475,0 8.29813,3.7133 8.29813,8.296 z"
             style="fill:#e3e4e5;fill-opacity:1;stroke:#010101;stroke-width:0.87598777;stroke-miterlimit:4;stroke-dasharray:none" />
          <path
             style="fill:#e3e4e5;fill-opacity:1;stroke:#010101;stroke-width:0.87598777;stroke-miterlimit:4;stroke-dasharray:none"
             d="m 266.55136,-1233.3172 c 0,4.5847 -3.71338,8.2981 -8.29813,8.2981 -4.58054,0 -8.29392,-3.7134 -8.29392,-8.2981 0,-4.5827 3.71338,-8.296 8.29392,-8.296 4.58475,0 8.29813,3.7133 8.29813,8.296 z"
             type="arc"
             cx="-486.21375"
             ry="3.9327636"
             cy="-89.381149"
             rx="3.9327636"
             id="path10229" />
          <path
             id="path10231"
             rx="3.9327636"
             cy="-89.381149"
             ry="3.9327636"
             cx="-486.21375"
             type="arc"
             d="m 272.01851,-1220.8208 c 0,4.5847 -3.71338,8.2981 -8.29813,8.2981 -4.58054,0 -8.29392,-3.7134 -8.29392,-8.2981 0,-4.5827 3.71338,-8.296 8.29392,-8.296 4.58475,0 8.29813,3.7133 8.29813,8.296 z"
             style="fill:#e3e4e5;fill-opacity:1;stroke:#010101;stroke-width:0.87598777;stroke-miterlimit:4;stroke-dasharray:none" />
          <path
             style="fill:#e3e4e5;fill-opacity:1;stroke:#010101;stroke-width:0.87598777;stroke-miterlimit:4;stroke-dasharray:none"
             d="m 275.92362,-1207.5435 c 0,4.5847 -3.71338,8.2981 -8.29813,8.2981 -4.58054,0 -8.29392,-3.7134 -8.29392,-8.2981 0,-4.5827 3.71338,-8.296 8.29392,-8.296 4.58475,0 8.29813,3.7133 8.29813,8.296 z"
             type="arc"
             cx="-486.21375"
             ry="3.9327636"
             cy="-89.381149"
             rx="3.9327636"
             id="path10233" />
        </g>
        <path
           id="path10235"
           rx="3.9327636"
           cy="-89.381149"
           ry="3.9327636"
           cx="-486.21375"
           type="arc"
           d="m -309.3137,775.99307 c 1.1831,5.0983 -1.9881,10.1858 -7.0864,11.3689 -5.0937,1.182 -10.1813,-1.9891 -11.3643,-7.0875 -1.1825,-5.096 1.9886,-10.1835 7.0823,-11.3655 5.0983,-1.1831 10.1859,1.988 11.3684,7.0841 z"
           style="fill:#e3e4e5;fill-opacity:1;stroke:#010101;stroke-width:0.99999994;stroke-miterlimit:4;stroke-dasharray:none" />
        <path
           style="fill:#e3e4e5;fill-opacity:1;stroke:#010101;stroke-width:0.99999994;stroke-miterlimit:4;stroke-dasharray:none"
           d="m -294.6737,779.91817 c 1.1831,5.0983 -1.9881,10.1859 -7.0864,11.3689 -5.0937,1.182 -10.1813,-1.9892 -11.3643,-7.0874 -1.1825,-5.0961 1.9886,-10.1836 7.0823,-11.3656 5.0983,-1.183 10.1859,1.988 11.3684,7.0841 z"
           type="arc"
           cx="-486.21375"
           ry="3.9327636"
           cy="-89.381149"
           rx="3.9327636"
           id="path10237" />
        <path
           id="path10239"
           rx="3.9327636"
           cy="-89.381149"
           ry="3.9327636"
           cx="-486.21375"
           type="arc"
           d="m -281.2331,788.29577 c 1.1831,5.0984 -1.988,10.1859 -7.0864,11.369 -5.0937,1.182 -10.1812,-1.9891 -11.3643,-7.0875 -1.1825,-5.0961 1.9887,-10.1835 7.0823,-11.3655 5.0984,-1.1831 10.1859,1.988 11.3684,7.084 z"
           style="fill:#e3e4e5;fill-opacity:1;stroke:#010101;stroke-width:0.99999994;stroke-miterlimit:4;stroke-dasharray:none" />
        <path
           style="fill:#e3e4e5;fill-opacity:1;stroke:#010101;stroke-width:0.99999994;stroke-miterlimit:4;stroke-dasharray:none"
           d="m -269.3218,798.55267 c 1.183,5.0983 -1.9881,10.1859 -7.0865,11.3689 -5.0936,1.182 -10.1812,-1.9892 -11.3643,-7.0874 -1.1825,-5.0961 1.9887,-10.1836 7.0823,-11.3656 5.0984,-1.183 10.1859,1.988 11.3685,7.0841 z"
           type="arc"
           cx="-486.21375"
           ry="3.9327636"
           cy="-89.381149"
           rx="3.9327636"
           id="path10241" />
        <path
           id="path10243"
           rx="3.9327636"
           cy="-89.381149"
           ry="3.9327636"
           cx="-486.21375"
           type="arc"
           d="m -261.8008,811.92967 c 1.183,5.0984 -1.9881,10.1859 -7.0865,11.369 -5.0936,1.182 -10.1812,-1.9892 -11.3643,-7.0875 -1.1825,-5.0961 1.9887,-10.1835 7.0823,-11.3655 5.0984,-1.1831 10.1859,1.988 11.3685,7.084 z"
           style="fill:#e3e4e5;fill-opacity:1;stroke:#010101;stroke-width:0.99999994;stroke-miterlimit:4;stroke-dasharray:none" />
        <path
           style="fill:#e3e4e5;fill-opacity:1;stroke:#010101;stroke-width:0.99999994;stroke-miterlimit:4;stroke-dasharray:none"
           d="m -255.8153,826.57827 c 1.183,5.0983 -1.9881,10.1859 -7.0865,11.3689 -5.0936,1.182 -10.1812,-1.9892 -11.3642,-7.0874 -1.1826,-5.0961 1.9886,-10.1836 7.0823,-11.3656 5.0983,-1.183 10.1858,1.9881 11.3684,7.0841 z"
           type="arc"
           cx="-486.21375"
           ry="3.9327636"
           cy="-89.381149"
           rx="3.9327636"
           id="path10245" />
        <g
           style="fill:#e3e4e5;fill-opacity:1"
           transform="matrix(1.1128349,0.2545134,-0.2545134,1.1128349,-639.41299,2105.3141)"
           id="g10247">
          <path
             style="fill:#e3e4e5;fill-opacity:1;stroke:#010101;stroke-width:0.87598777;stroke-miterlimit:4;stroke-dasharray:none"
             d="m 237.65355,-1260.3099 c 0,4.5847 -3.71338,8.2981 -8.29813,8.2981 -4.58054,0 -8.29392,-3.7134 -8.29392,-8.2981 0,-4.5827 3.71338,-8.296 8.29392,-8.296 4.58475,0 8.29813,3.7133 8.29813,8.296 z"
             type="arc"
             cx="-486.21375"
             ry="3.9327636"
             cy="-89.381149"
             rx="3.9327636"
             id="path10249" />
          <path
             id="path10251"
             rx="3.9327636"
             cy="-89.381149"
             ry="3.9327636"
             cx="-486.21375"
             type="arc"
             d="m 249.36888,-1254.0617 c 0,4.5847 -3.71338,8.2981 -8.29813,8.2981 -4.58054,0 -8.29392,-3.7134 -8.29392,-8.2981 0,-4.5827 3.71338,-8.296 8.29392,-8.296 4.58475,0 8.29813,3.7133 8.29813,8.296 z"
             style="fill:#e3e4e5;fill-opacity:1;stroke:#010101;stroke-width:0.87598777;stroke-miterlimit:4;stroke-dasharray:none" />
          <path
             style="fill:#e3e4e5;fill-opacity:1;stroke:#010101;stroke-width:0.87598777;stroke-miterlimit:4;stroke-dasharray:none"
             d="m 259.1791,-1244.2515 c 0,4.5847 -3.71338,8.2981 -8.29813,8.2981 -4.58054,0 -8.29392,-3.7134 -8.29392,-8.2981 0,-4.5827 3.71338,-8.296 8.29392,-8.296 4.58475,0 8.29813,3.7133 8.29813,8.296 z"
             type="arc"
             cx="-486.21375"
             ry="3.9327636"
             cy="-89.381149"
             rx="3.9327636"
             id="path10253" />
          <path
             id="path10255"
             rx="3.9327636"
             cy="-89.381149"
             ry="3.9327636"
             cx="-486.21375"
             type="arc"
             d="m 266.55136,-1233.3172 c 0,4.5847 -3.71338,8.2981 -8.29813,8.2981 -4.58054,0 -8.29392,-3.7134 -8.29392,-8.2981 0,-4.5827 3.71338,-8.296 8.29392,-8.296 4.58475,0 8.29813,3.7133 8.29813,8.296 z"
             style="fill:#e3e4e5;fill-opacity:1;stroke:#010101;stroke-width:0.87598777;stroke-miterlimit:4;stroke-dasharray:none" />
          <path
             style="fill:#e3e4e5;fill-opacity:1;stroke:#010101;stroke-width:0.87598777;stroke-miterlimit:4;stroke-dasharray:none"
             d="m 272.01851,-1220.8208 c 0,4.5847 -3.71338,8.2981 -8.29813,8.2981 -4.58054,0 -8.29392,-3.7134 -8.29392,-8.2981 0,-4.5827 3.71338,-8.296 8.29392,-8.296 4.58475,0 8.29813,3.7133 8.29813,8.296 z"
             type="arc"
             cx="-486.21375"
             ry="3.9327636"
             cy="-89.381149"
             rx="3.9327636"
             id="path10257" />
          <path
             id="path10259"
             rx="3.9327636"
             cy="-89.381149"
             ry="3.9327636"
             cx="-486.21375"
             type="arc"
             d="m 275.92362,-1207.5435 c 0,4.5847 -3.71338,8.2981 -8.29813,8.2981 -4.58054,0 -8.29392,-3.7134 -8.29392,-8.2981 0,-4.5827 3.71338,-8.296 8.29392,-8.296 4.58475,0 8.29813,3.7133 8.29813,8.296 z"
             style="fill:#e3e4e5;fill-opacity:1;stroke:#010101;stroke-width:0.87598777;stroke-miterlimit:4;stroke-dasharray:none" />
        </g>
        <path
           style="fill:#e3e4e5;fill-opacity:1;stroke:#010101;stroke-width:1.00000012;stroke-miterlimit:4;stroke-dasharray:none"
           d="m 42.9748,799.39097 c -5.2333,-0.069 -9.4162,-4.3636 -9.3473,-9.5968 0.0689,-5.2287 4.3635,-9.4115 9.5968,-9.3425 5.231,0.0688 9.4137,4.3634 9.3449,9.592 -0.069,5.2333 -4.3634,9.4162 -9.5944,9.3473 z"
           type="arc"
           cx="-486.21375"
           ry="3.9327636"
           cy="-89.381149"
           rx="3.9327636"
           id="path10261" />
        <path
           style="fill:#e3e4e5;fill-opacity:1;stroke:#010101;stroke-width:1;stroke-miterlimit:4;stroke-dasharray:none"
           d="m -92.1215,866.74437 c -0.4496,-5.2144 3.4096,-9.802 8.6241,-10.2516 5.2096,-0.4492 9.7972,3.4101 10.2468,8.6245 0.4494,5.2121 -3.4098,9.7996 -8.6195,10.2488 -5.2144,0.4496 -9.802,-3.4095 -10.2514,-8.6217 z"
           type="arc"
           cx="-486.21375"
           ry="3.9327636"
           cy="-89.381149"
           rx="3.9327636"
           id="path11675" />
        <path
           id="path11677"
           rx="3.9327636"
           cy="-89.381149"
           ry="3.9327636"
           cx="-486.21375"
           type="arc"
           d="m -106.0587,860.78697 c -0.4496,-5.2144 3.4096,-9.802 8.6241,-10.2516 5.2097,-0.4493 9.7972,3.41 10.2469,8.6244 0.4494,5.2121 -3.4099,9.7996 -8.6195,10.2488 -5.2145,0.4497 -9.8021,-3.4095 -10.2515,-8.6216 z"
           style="fill:#e3e4e5;fill-opacity:1;stroke:#010101;stroke-width:1;stroke-miterlimit:4;stroke-dasharray:none" />
        <path
           style="fill:#e3e4e5;fill-opacity:1;stroke:#010101;stroke-width:1;stroke-miterlimit:4;stroke-dasharray:none"
           d="m -118.1784,850.59147 c -0.4496,-5.2144 3.4096,-9.802 8.6241,-10.2517 5.2096,-0.4492 9.7972,3.4101 10.2468,8.6245 0.4495,5.2121 -3.4098,9.7996 -8.6195,10.2488 -5.2144,0.4496 -9.802,-3.4095 -10.2514,-8.6216 z"
           type="arc"
           cx="-486.21375"
           ry="3.9327636"
           cy="-89.381149"
           rx="3.9327636"
           id="path11679" />
        <path
           id="path11681"
           rx="3.9327636"
           cy="-89.381149"
           ry="3.9327636"
           cx="-486.21375"
           type="arc"
           d="m -127.6356,838.87827 c -0.4496,-5.2144 3.4097,-9.802 8.6241,-10.2516 5.2097,-0.4492 9.7973,3.4101 10.2469,8.6245 0.4494,5.2121 -3.4098,9.7996 -8.6195,10.2488 -5.2145,0.4496 -9.802,-3.4095 -10.2515,-8.6217 z"
           style="fill:#e3e4e5;fill-opacity:1;stroke:#010101;stroke-width:1;stroke-miterlimit:4;stroke-dasharray:none" />
        <path
           id="path11795"
           d="m -24.5781,838.52258 c -0.4011,0.5337 -0.8038,1.0568 -1.0938,1.6875 -2.1853,4.7531 -0.0991,10.3762 4.6563,12.5625 4.7509,2.1843 10.377,0.0968 12.5625,-4.6562 0.9127,-1.9853 0.9294,-4.0882 0.4687,-6.0625 -7.5118,-1.5891 -13.1951,-2.8096 -16.5937,-3.5313 z"
           style="fill:#e3e4e5;fill-opacity:1;stroke:#010101;stroke-width:1;stroke-miterlimit:4;stroke-dasharray:none" />
        <path
           id="path11791"
           d="m -134.3594,827.64758 c 1.4487,3.8882 5.1937,6.5615 9.5313,6.1875 3.5085,-0.3025 6.2746,-2.5478 7.6562,-5.5312 -5.5817,-0.2765 -11.3094,-0.4969 -17.1875,-0.6563 z"
           style="fill:#e3e4e5;fill-opacity:1;stroke:#010101;stroke-width:1;stroke-miterlimit:4;stroke-dasharray:none" />
        <path
           id="path11787"
           d="m -216.8281,829.67888 c 1.6013,3.5757 5.2492,5.9494 9.375,5.5937 4.0049,-0.3453 7.161,-3.1406 8.2187,-6.7812 -4.99,0.2919 -10.0124,0.5398 -14.9375,0.9375 -0.9061,0.0731 -1.7536,0.1736 -2.6562,0.25 z"
           style="fill:#e3e4e5;fill-opacity:1;stroke:#010101;stroke-width:1;stroke-miterlimit:4;stroke-dasharray:none" />
        <path
           id="path11783"
           d="m -287.9219,838.99138 c -1.4023,1.8137 -2.2126,4.0966 -2,6.5625 0.4494,5.2121 5.0355,9.0744 10.25,8.625 5.2097,-0.4492 9.0745,-5.038 8.625,-10.25 -0.2632,-3.0523 -2.0429,-5.5008 -4.4375,-7.0313 -1.656,0.2669 -3.5765,0.5154 -5.1562,0.7813 -2.7091,0.4559 -4.8174,0.8664 -7.2813,1.3125 z"
           style="fill:#e3e4e5;fill-opacity:1;stroke:#010101;stroke-width:1;stroke-miterlimit:4;stroke-dasharray:none" />
        <path
           id="path11702"
           rx="3.9327636"
           cy="-89.381149"
           ry="3.9327636"
           cx="-486.21375"
           type="arc"
           d="m -174.7592,868.18157 c -0.4496,-5.2144 3.4096,-9.802 8.6241,-10.2516 5.2096,-0.4492 9.7972,3.4101 10.2468,8.6245 0.4494,5.2121 -3.4098,9.7996 -8.6195,10.2488 -5.2144,0.4496 -9.802,-3.4095 -10.2514,-8.6217 z"
           style="fill:#e3e4e5;fill-opacity:1;stroke:#010101;stroke-width:1;stroke-miterlimit:4;stroke-dasharray:none" />
        <path
           style="fill:#e3e4e5;fill-opacity:1;stroke:#010101;stroke-width:1;stroke-miterlimit:4;stroke-dasharray:none"
           d="m -188.6964,862.22417 c -0.4496,-5.2144 3.4096,-9.802 8.6241,-10.2516 5.2097,-0.4493 9.7972,3.41 10.2469,8.6244 0.4494,5.2121 -3.4099,9.7996 -8.6195,10.2488 -5.2145,0.4497 -9.8021,-3.4095 -10.2515,-8.6216 z"
           type="arc"
           cx="-486.21375"
           ry="3.9327636"
           cy="-89.381149"
           rx="3.9327636"
           id="path11704" />
        <path
           id="path11706"
           rx="3.9327636"
           cy="-89.381149"
           ry="3.9327636"
           cx="-486.21375"
           type="arc"
           d="m -200.8161,852.02867 c -0.4496,-5.2144 3.4096,-9.802 8.6241,-10.2517 5.2096,-0.4492 9.7972,3.4101 10.2468,8.6245 0.4495,5.2121 -3.4098,9.7996 -8.6195,10.2488 -5.2144,0.4496 -9.802,-3.4095 -10.2514,-8.6216 z"
           style="fill:#e3e4e5;fill-opacity:1;stroke:#010101;stroke-width:1;stroke-miterlimit:4;stroke-dasharray:none" />
        <path
           style="fill:#e3e4e5;fill-opacity:1;stroke:#010101;stroke-width:1;stroke-miterlimit:4;stroke-dasharray:none"
           d="m -210.2733,840.31547 c -0.4496,-5.2144 3.4097,-9.802 8.6241,-10.2516 5.2097,-0.4492 9.7973,3.4101 10.2469,8.6245 0.4494,5.2121 -3.4098,9.7996 -8.6195,10.2488 -5.2145,0.4496 -9.802,-3.4095 -10.2515,-8.6217 z"
           type="arc"
           cx="-486.21375"
           ry="3.9327636"
           cy="-89.381149"
           rx="3.9327636"
           id="path11708" />
        <path
           style="fill:#e3e4e5;fill-opacity:1;stroke:#010101;stroke-width:1;stroke-miterlimit:4;stroke-dasharray:none"
           d="m -263.8643,861.71427 c -0.4496,-5.2144 3.4096,-9.802 8.6241,-10.2516 5.2096,-0.4492 9.7972,3.4101 10.2468,8.6245 0.4494,5.2121 -3.4098,9.7996 -8.6195,10.2488 -5.2144,0.4496 -9.802,-3.4095 -10.2514,-8.6217 z"
           type="arc"
           cx="-486.21375"
           ry="3.9327636"
           cy="-89.381149"
           rx="3.9327636"
           id="path11714" />
        <path
           id="path11716"
           rx="3.9327636"
           cy="-89.381149"
           ry="3.9327636"
           cx="-486.21375"
           type="arc"
           d="m -277.8015,855.75687 c -0.4496,-5.2144 3.4096,-9.802 8.6241,-10.2516 5.2097,-0.4493 9.7972,3.41 10.2469,8.6244 0.4494,5.2121 -3.4099,9.7996 -8.6195,10.2488 -5.2145,0.4497 -9.8021,-3.4095 -10.2515,-8.6216 z"
           style="fill:#e3e4e5;fill-opacity:1;stroke:#010101;stroke-width:1;stroke-miterlimit:4;stroke-dasharray:none" />
        <path
           id="path11736"
           rx="3.9327636"
           cy="-89.381149"
           ry="3.9327636"
           cx="-486.21375"
           type="arc"
           d="m -16.5035,852.26797 c 2.1863,-4.7552 7.8086,-6.8359 12.5639,-4.6495 4.7508,2.1843 6.8315,7.8067 4.6452,12.5619 -2.1854,4.7531 -7.8076,6.8337 -12.5586,4.6494 -4.7552,-2.1864 -6.836,-7.8086 -4.6505,-12.5618 z"
           style="fill:#e3e4e5;fill-opacity:1;stroke:#010101;stroke-width:0.99999994;stroke-miterlimit:4;stroke-dasharray:none" />
      </g>
    </g>
  </g>
</svg>
