<?xml version="1.0" encoding="UTF-8" standalone="no"?>
<!-- Created with Inkscape (http://www.inkscape.org/) -->
<svg
   xmlns:dc="http://purl.org/dc/elements/1.1/"
   xmlns:cc="http://creativecommons.org/ns#"
   xmlns:rdf="http://www.w3.org/1999/02/22-rdf-syntax-ns#"
   xmlns:svg="http://www.w3.org/2000/svg"
   xmlns="http://www.w3.org/2000/svg"
   xmlns:sodipodi="http://sodipodi.sourceforge.net/DTD/sodipodi-0.dtd"
   xmlns:inkscape="http://www.inkscape.org/namespaces/inkscape"
   width="60.999729"
   height="111.99989"
   id="svg2"
   sodipodi:version="0.32"
   inkscape:version="0.46"
   sodipodi:docbase="C:\Documents and Settings\Anthony\Bureau"
   sodipodi:docname="coeur-01.svg"
   inkscape:output_extension="org.inkscape.output.svg.inkscape"
   version="1.0">
  <sodipodi:namedview
     id="base"
     pagecolor="#d3d3d3"
     bordercolor="#666666"
     borderopacity="1.0"
     inkscape:pageopacity="0.78431373"
     inkscape:pageshadow="2"
     inkscape:zoom="5.3821774"
     inkscape:cx="37.529987"
     inkscape:cy="72.247583"
     inkscape:document-units="px"
     inkscape:current-layer="layer1"
     showgrid="true"
     showguides="false"
     inkscape:window-width="1280"
     inkscape:window-height="904"
     inkscape:window-x="384"
     inkscape:window-y="192" />
  <defs
     id="defs4">
    <inkscape:perspective
       sodipodi:type="inkscape:persp3d"
       inkscape:vp_x="0 : 526.18109 : 1"
       inkscape:vp_y="0 : 1000 : 0"
       inkscape:vp_z="744.09448 : 526.18109 : 1"
       inkscape:persp3d-origin="372.04724 : 350.78739 : 1"
       id="perspective3783" />
  </defs>
  <metadata
     id="metadata7">
    <rdf:RDF>
      <cc:Work
         rdf:about="">
        <dc:format>image/svg+xml</dc:format>
        <dc:type
           rdf:resource="http://purl.org/dc/dcmitype/StillImage" />
      </cc:Work>
    </rdf:RDF>
  </metadata>
  <g
     inkscape:label="Calque 1"
     id="layer1"
     inkscape:groupmode="layer"
     transform="translate(0,-940.3623)">
    <rect
       style="fill:#ffffff;fill-opacity:1;fill-rule:evenodd;stroke:#000000;stroke-width:0.10020415;stroke-linecap:butt;stroke-linejoin:round;stroke-miterlimit:79.19999695;stroke-dasharray:none;stroke-opacity:1"
       id="rect2160"
       width="60.874729"
       y="940.4248"
       x="0.0625"
       height="111.87489"
       ry="4.5875664" />
    <text
       xml:space="preserve"
       style="font-size:11.8381424px;font-style:normal;font-weight:normal;fill:#e61408;fill-opacity:1;stroke:none;stroke-width:1px;stroke-linecap:butt;stroke-linejoin:miter;stroke-opacity:1;font-family:Bitstream Vera Sans"
       x="2.5160134"
       y="1002.6628"
       id="text7838"
       transform="scale(1.0539234,0.9488356)"><tspan
         sodipodi:role="line"
         id="tspan7840"
         x="2.5160134"
         y="1002.6628"
         style="font-size:10.91693974px;fill:#e61408;fill-opacity:1;font-family:Times New Roman">1</tspan></text>
    <text
       transform="scale(1.0539234,0.9488356)"
       id="text7842"
       y="1002.6628"
       x="49.957794"
       style="font-size:11.8381424px;font-style:normal;font-weight:normal;fill:#e61408;fill-opacity:1;stroke:none;stroke-width:1px;stroke-linecap:butt;stroke-linejoin:miter;stroke-opacity:1;font-family:Bitstream Vera Sans"
       xml:space="preserve"><tspan
         style="font-size:10.91693974px;fill:#e61408;fill-opacity:1;font-family:Times New Roman"
         y="1002.6628"
         x="49.957794"
         id="tspan7844"
         sodipodi:role="line">1</tspan></text>
    <text
       xml:space="preserve"
       style="font-size:11.8381424px;font-style:normal;font-weight:normal;fill:#e61408;fill-opacity:1;stroke:none;stroke-width:1px;stroke-linecap:butt;stroke-linejoin:miter;stroke-opacity:1;font-family:Bitstream Vera Sans"
       x="-7.9211779"
       y="-1097.516"
       id="text7846"
       transform="scale(-1.0539234,-0.9488356)"><tspan
         sodipodi:role="line"
         id="tspan7848"
         x="-7.9211779"
         y="-1097.516"
         style="font-size:10.91693974px;fill:#e61408;fill-opacity:1;font-family:Times New Roman">1</tspan></text>
    <text
       transform="scale(-1.0539234,-0.9488356)"
       id="text7850"
       y="-1097.516"
       x="-55.362961"
       style="font-size:11.8381424px;font-style:normal;font-weight:normal;fill:#e61408;fill-opacity:1;stroke:none;stroke-width:1px;stroke-linecap:butt;stroke-linejoin:miter;stroke-opacity:1;font-family:Bitstream Vera Sans"
       xml:space="preserve"><tspan
         style="font-size:10.91693974px;fill:#e61408;fill-opacity:1;font-family:Times New Roman"
         y="-1097.516"
         x="-55.362961"
         id="tspan7852"
         sodipodi:role="line">1</tspan></text>
    <g
       transform="matrix(0.1442539,0,0,0.1547939,-7.0712884,950.23402)"
       id="g2612"
       style="fill:#e61408;fill-rule:nonzero;stroke:#000000;stroke-miterlimit:4">
      <path
         style="stroke:none"
         d="M 69.817383,21.906738 C 69.831055,31.487305 81.839844,38.464355 85.355957,46.050293 C 88.902832,38.482422 100.94775,31.567871 101.01025,21.987305 C 101.03662,17.469727 97.539551,13.793457 93.230957,13.78418 C 88.924316,13.775391 85.42627,17.425293 85.413574,21.95166 C 85.42627,17.425293 81.942871,13.757324 77.635742,13.748535 C 73.328125,13.730469 69.831055,17.38916 69.817383,21.906738 L 69.817383,21.906738 z"
         id="path2614" />
    </g>
    <g
       style="fill:#e61408;fill-rule:nonzero;stroke:#000000;stroke-miterlimit:4"
       id="g2616"
       transform="matrix(0.1442539,0,0,0.1547939,43.42857,950.23402)">
      <path
         id="path2618"
         d="M 69.817383,21.906738 C 69.831055,31.487305 81.839844,38.464355 85.355957,46.050293 C 88.902832,38.482422 100.94775,31.567871 101.01025,21.987305 C 101.03662,17.469727 97.539551,13.793457 93.230957,13.78418 C 88.924316,13.775391 85.42627,17.425293 85.413574,21.95166 C 85.42627,17.425293 81.942871,13.757324 77.635742,13.748535 C 73.328125,13.730469 69.831055,17.38916 69.817383,21.906738 L 69.817383,21.906738 z"
         style="stroke:none" />
    </g>
    <g
       style="fill:#e61408;fill-rule:nonzero;stroke:#000000;stroke-miterlimit:4"
       id="g2620"
       transform="matrix(0.1442539,0,0,-0.1547939,-7.0712884,1042.4904)">
      <path
         id="path2622"
         d="M 69.817383,21.906738 C 69.831055,31.487305 81.839844,38.464355 85.355957,46.050293 C 88.902832,38.482422 100.94775,31.567871 101.01025,21.987305 C 101.03662,17.469727 97.539551,13.793457 93.230957,13.78418 C 88.924316,13.775391 85.42627,17.425293 85.413574,21.95166 C 85.42627,17.425293 81.942871,13.757324 77.635742,13.748535 C 73.328125,13.730469 69.831055,17.38916 69.817383,21.906738 L 69.817383,21.906738 z"
         style="stroke:none" />
    </g>
    <g
       transform="matrix(0.1442539,0,0,-0.1547939,43.42857,1042.4904)"
       id="g2624"
       style="fill:#e61408;fill-rule:nonzero;stroke:#000000;stroke-miterlimit:4">
      <path
         style="stroke:none"
         d="M 69.817383,21.906738 C 69.831055,31.487305 81.839844,38.464355 85.355957,46.050293 C 88.902832,38.482422 100.94775,31.567871 101.01025,21.987305 C 101.03662,17.469727 97.539551,13.793457 93.230957,13.78418 C 88.924316,13.775391 85.42627,17.425293 85.413574,21.95166 C 85.42627,17.425293 81.942871,13.757324 77.635742,13.748535 C 73.328125,13.730469 69.831055,17.38916 69.817383,21.906738 L 69.817383,21.906738 z"
         id="path2626" />
    </g>
    <g
       transform="matrix(0.4648439,0,0,0.4643698,-8.4539247,981.97807)"
       id="g2628"
       style="fill:#e61408;fill-rule:nonzero;stroke:#000000;stroke-miterlimit:4">
      <path
         style="stroke:none"
         d="M 69.817383,21.906738 C 69.831055,31.487305 81.839844,38.464355 85.355957,46.050293 C 88.902832,38.482422 100.94775,31.567871 101.01025,21.987305 C 101.03662,17.469727 97.539551,13.793457 93.230957,13.78418 C 88.924316,13.775391 85.42627,17.425293 85.413574,21.95166 C 85.42627,17.425293 81.942871,13.757324 77.635742,13.748535 C 73.328125,13.730469 69.831055,17.38916 69.817383,21.906738 L 69.817383,21.906738 z"
         id="path2630" />
    </g>
  </g>
</svg>
