<?xml version="1.0" encoding="UTF-8" standalone="no"?>
<!-- Created with Inkscape (http://www.inkscape.org/) -->
<svg
   xmlns:dc="http://purl.org/dc/elements/1.1/"
   xmlns:cc="http://creativecommons.org/ns#"
   xmlns:rdf="http://www.w3.org/1999/02/22-rdf-syntax-ns#"
   xmlns:svg="http://www.w3.org/2000/svg"
   xmlns="http://www.w3.org/2000/svg"
   xmlns:sodipodi="http://sodipodi.sourceforge.net/DTD/sodipodi-0.dtd"
   xmlns:inkscape="http://www.inkscape.org/namespaces/inkscape"
   width="60.999729"
   height="111.99989"
   id="svg2"
   sodipodi:version="0.32"
   inkscape:version="0.46"
   sodipodi:docbase="C:\Documents and Settings\Anthony\Bureau"
   sodipodi:docname="pique-08.svg"
   inkscape:output_extension="org.inkscape.output.svg.inkscape"
   version="1.0">
  <sodipodi:namedview
     id="base"
     pagecolor="#d3d3d3"
     bordercolor="#666666"
     borderopacity="1.0"
     inkscape:pageopacity="0.78431373"
     inkscape:pageshadow="2"
     inkscape:zoom="7.6115483"
     inkscape:cx="39.092493"
     inkscape:cy="64.071356"
     inkscape:document-units="px"
     inkscape:current-layer="layer1"
     showgrid="true"
     showguides="false"
     inkscape:window-width="1280"
     inkscape:window-height="904"
     inkscape:window-x="288"
     inkscape:window-y="0" />
  <defs
     id="defs4">
    <inkscape:perspective
       sodipodi:type="inkscape:persp3d"
       inkscape:vp_x="0 : 526.18109 : 1"
       inkscape:vp_y="0 : 1000 : 0"
       inkscape:vp_z="744.09448 : 526.18109 : 1"
       inkscape:persp3d-origin="372.04724 : 350.78739 : 1"
       id="perspective72" />
  </defs>
  <metadata
     id="metadata7">
    <rdf:RDF>
      <cc:Work
         rdf:about="">
        <dc:format>image/svg+xml</dc:format>
        <dc:type
           rdf:resource="http://purl.org/dc/dcmitype/StillImage" />
      </cc:Work>
    </rdf:RDF>
  </metadata>
  <g
     inkscape:label="Calque 1"
     id="layer1"
     inkscape:groupmode="layer"
     transform="translate(0,-939.3623)">
    <rect
       style="fill:#ffffff;fill-opacity:1;fill-rule:evenodd;stroke:#000000;stroke-width:0.10020415;stroke-linecap:butt;stroke-linejoin:round;stroke-miterlimit:79.19999695;stroke-dasharray:none;stroke-opacity:1"
       id="rect2160"
       width="60.874729"
       y="939.4248"
       x="0.0625"
       height="111.87489"
       ry="4.5875664" />
    <g
       id="g3480"
       transform="translate(-17,-1)">
      <g
         transform="matrix(0.462414,0,0,0.4535924,-25.250437,939.44643)"
         style="fill-rule:nonzero;stroke:none;stroke-miterlimit:4"
         id="g8373">
        <g
           id="g8375">
          <path
             d="M 126.56934,46.111328 C 123.09082,46.115234 121.26074,42.404785 120.2998,38.695313 C 119.33887,34.984375 119.24902,31.271973 119.24902,31.271973 L 117.47363,31.254395 C 117.47363,31.254395 117.14062,46.101563 110.18262,46.10791 L 126.56934,46.111328 L 126.56934,46.111328 z"
             id="path8377" />
        </g>
        <path
           d="M 132.45801,31.268555 C 132.42676,24.025879 121.58496,18.773438 118.39941,13.041992 C 115.21777,18.773438 104.37402,24.025879 104.34473,31.268555 C 104.3291,34.688477 107.49121,37.458496 111.37207,37.458496 C 115.25293,37.458496 118.39941,34.688477 118.39941,31.268555 C 118.39941,34.688477 121.54785,37.458496 125.42871,37.458496 C 129.31152,37.458496 132.45801,34.688477 132.45801,31.268555 L 132.45801,31.268555 z"
           id="path8379" />
      </g>
      <rect
         ry="0"
         y="945.36218"
         x="23"
         height="15"
         width="3"
         id="rect2509"
         style="fill:#ffffff;fill-opacity:1;stroke:#000000;stroke-width:0;stroke-linejoin:miter;stroke-miterlimit:79.19999695;stroke-dasharray:none;stroke-opacity:1" />
    </g>
    <text
       xml:space="preserve"
       style="font-size:11.8381424px;font-style:normal;font-weight:normal;fill:#000000;fill-opacity:1;stroke:none;stroke-width:1px;stroke-linecap:butt;stroke-linejoin:miter;stroke-opacity:1;font-family:Bitstream Vera Sans"
       x="2.5160134"
       y="1002.6628"
       id="text7838"
       transform="scale(1.0539234,0.9488356)"><tspan
         sodipodi:role="line"
         id="tspan7840"
         x="2.5160134"
         y="1002.6628"
         style="font-size:10.91693974px;font-family:Times New Roman">8</tspan></text>
    <g
       transform="matrix(0.1422812,0,0,0.1511975,-11.346285,950.39027)"
       style="fill-rule:nonzero;stroke:none;stroke-miterlimit:4"
       id="g8560">
      <g
         id="g8562">
        <path
           d="M 126.56934,46.111328 C 123.09082,46.115234 121.26074,42.404785 120.2998,38.695313 C 119.33887,34.984375 119.24902,31.271973 119.24902,31.271973 L 117.47363,31.254395 C 117.47363,31.254395 117.14062,46.101563 110.18262,46.10791 L 126.56934,46.111328 L 126.56934,46.111328 z"
           id="path8564" />
      </g>
      <path
         d="M 132.45801,31.268555 C 132.42676,24.025879 121.58496,18.773438 118.39941,13.041992 C 115.21777,18.773438 104.37402,24.025879 104.34473,31.268555 C 104.3291,34.688477 107.49121,37.458496 111.37207,37.458496 C 115.25293,37.458496 118.39941,34.688477 118.39941,31.268555 C 118.39941,34.688477 121.54785,37.458496 125.42871,37.458496 C 129.31152,37.458496 132.45801,34.688477 132.45801,31.268555 L 132.45801,31.268555 z"
         id="path8566" />
    </g>
    <g
       transform="matrix(-1,0,0,1,78,-0.9999958)"
       id="g3487">
      <g
         id="g3489"
         style="fill-rule:nonzero;stroke:none;stroke-miterlimit:4"
         transform="matrix(0.462414,0,0,0.4535924,-25.250437,939.44643)">
        <g
           id="g3491">
          <path
             id="path3493"
             d="M 126.56934,46.111328 C 123.09082,46.115234 121.26074,42.404785 120.2998,38.695313 C 119.33887,34.984375 119.24902,31.271973 119.24902,31.271973 L 117.47363,31.254395 C 117.47363,31.254395 117.14062,46.101563 110.18262,46.10791 L 126.56934,46.111328 L 126.56934,46.111328 z" />
        </g>
        <path
           id="path3495"
           d="M 132.45801,31.268555 C 132.42676,24.025879 121.58496,18.773438 118.39941,13.041992 C 115.21777,18.773438 104.37402,24.025879 104.34473,31.268555 C 104.3291,34.688477 107.49121,37.458496 111.37207,37.458496 C 115.25293,37.458496 118.39941,34.688477 118.39941,31.268555 C 118.39941,34.688477 121.54785,37.458496 125.42871,37.458496 C 129.31152,37.458496 132.45801,34.688477 132.45801,31.268555 L 132.45801,31.268555 z" />
      </g>
      <rect
         style="fill:#ffffff;fill-opacity:1;stroke:#000000;stroke-width:0;stroke-linejoin:miter;stroke-miterlimit:79.19999695;stroke-dasharray:none;stroke-opacity:1"
         id="rect3497"
         width="3"
         height="15"
         x="23"
         y="945.36218"
         ry="0" />
    </g>
    <text
       transform="scale(1.0539234,0.9488356)"
       id="text7842"
       y="1002.6628"
       x="49.957794"
       style="font-size:11.8381424px;font-style:normal;font-weight:normal;fill:#000000;fill-opacity:1;stroke:none;stroke-width:1px;stroke-linecap:butt;stroke-linejoin:miter;stroke-opacity:1;font-family:Bitstream Vera Sans"
       xml:space="preserve"><tspan
         style="font-size:10.91693974px;font-family:Times New Roman"
         y="1002.6628"
         x="49.957794"
         id="tspan7844"
         sodipodi:role="line">8</tspan></text>
    <g
       id="g8576"
       style="fill-rule:nonzero;stroke:none;stroke-miterlimit:4"
       transform="matrix(0.1422812,0,0,0.1511975,38.653715,950.39026)">
      <g
         id="g8578">
        <path
           id="path8580"
           d="M 126.56934,46.111328 C 123.09082,46.115234 121.26074,42.404785 120.2998,38.695313 C 119.33887,34.984375 119.24902,31.271973 119.24902,31.271973 L 117.47363,31.254395 C 117.47363,31.254395 117.14062,46.101563 110.18262,46.10791 L 126.56934,46.111328 L 126.56934,46.111328 z" />
      </g>
      <path
         id="path8582"
         d="M 132.45801,31.268555 C 132.42676,24.025879 121.58496,18.773438 118.39941,13.041992 C 115.21777,18.773438 104.37402,24.025879 104.34473,31.268555 C 104.3291,34.688477 107.49121,37.458496 111.37207,37.458496 C 115.25293,37.458496 118.39941,34.688477 118.39941,31.268555 C 118.39941,34.688477 121.54785,37.458496 125.42871,37.458496 C 129.31152,37.458496 132.45801,34.688477 132.45801,31.268555 L 132.45801,31.268555 z" />
    </g>
    <g
       transform="matrix(1,0,0,-1,-17,1993.7244)"
       id="g3499">
      <g
         id="g3501"
         style="fill-rule:nonzero;stroke:none;stroke-miterlimit:4"
         transform="matrix(0.462414,0,0,0.4535924,-25.250437,939.44643)">
        <g
           id="g3503">
          <path
             id="path3505"
             d="M 126.56934,46.111328 C 123.09082,46.115234 121.26074,42.404785 120.2998,38.695313 C 119.33887,34.984375 119.24902,31.271973 119.24902,31.271973 L 117.47363,31.254395 C 117.47363,31.254395 117.14062,46.101563 110.18262,46.10791 L 126.56934,46.111328 L 126.56934,46.111328 z" />
        </g>
        <path
           id="path3507"
           d="M 132.45801,31.268555 C 132.42676,24.025879 121.58496,18.773438 118.39941,13.041992 C 115.21777,18.773438 104.37402,24.025879 104.34473,31.268555 C 104.3291,34.688477 107.49121,37.458496 111.37207,37.458496 C 115.25293,37.458496 118.39941,34.688477 118.39941,31.268555 C 118.39941,34.688477 121.54785,37.458496 125.42871,37.458496 C 129.31152,37.458496 132.45801,34.688477 132.45801,31.268555 L 132.45801,31.268555 z" />
      </g>
      <rect
         style="fill:#ffffff;fill-opacity:1;stroke:#000000;stroke-width:0;stroke-linejoin:miter;stroke-miterlimit:79.19999695;stroke-dasharray:none;stroke-opacity:1"
         id="rect3509"
         width="3"
         height="15"
         x="23"
         y="945.36218"
         ry="0" />
    </g>
    <text
       xml:space="preserve"
       style="font-size:11.8381424px;font-style:normal;font-weight:normal;fill:#000000;fill-opacity:1;stroke:none;stroke-width:1px;stroke-linecap:butt;stroke-linejoin:miter;stroke-opacity:1;font-family:Bitstream Vera Sans"
       x="-7.9211779"
       y="-1097.516"
       id="text7846"
       transform="scale(-1.0539234,-0.9488356)"><tspan
         sodipodi:role="line"
         id="tspan7848"
         x="-7.9211779"
         y="-1097.516"
         style="font-size:10.91693974px;font-family:Times New Roman">8</tspan></text>
    <g
       id="g8592"
       style="fill-rule:nonzero;stroke:none;stroke-miterlimit:4"
       transform="matrix(0.1422812,0,0,-0.1511975,-11.346285,1042.3341)">
      <g
         id="g8594">
        <path
           id="path8596"
           d="M 126.56934,46.111328 C 123.09082,46.115234 121.26074,42.404785 120.2998,38.695313 C 119.33887,34.984375 119.24902,31.271973 119.24902,31.271973 L 117.47363,31.254395 C 117.47363,31.254395 117.14062,46.101563 110.18262,46.10791 L 126.56934,46.111328 L 126.56934,46.111328 z" />
      </g>
      <path
         id="path8598"
         d="M 132.45801,31.268555 C 132.42676,24.025879 121.58496,18.773438 118.39941,13.041992 C 115.21777,18.773438 104.37402,24.025879 104.34473,31.268555 C 104.3291,34.688477 107.49121,37.458496 111.37207,37.458496 C 115.25293,37.458496 118.39941,34.688477 118.39941,31.268555 C 118.39941,34.688477 121.54785,37.458496 125.42871,37.458496 C 129.31152,37.458496 132.45801,34.688477 132.45801,31.268555 L 132.45801,31.268555 z" />
    </g>
    <g
       id="g3511"
       transform="matrix(-1,0,0,-1,78,1993.7244)">
      <g
         transform="matrix(0.462414,0,0,0.4535924,-25.250437,939.44643)"
         style="fill-rule:nonzero;stroke:none;stroke-miterlimit:4"
         id="g3513">
        <g
           id="g3515">
          <path
             d="M 126.56934,46.111328 C 123.09082,46.115234 121.26074,42.404785 120.2998,38.695313 C 119.33887,34.984375 119.24902,31.271973 119.24902,31.271973 L 117.47363,31.254395 C 117.47363,31.254395 117.14062,46.101563 110.18262,46.10791 L 126.56934,46.111328 L 126.56934,46.111328 z"
             id="path3517" />
        </g>
        <path
           d="M 132.45801,31.268555 C 132.42676,24.025879 121.58496,18.773438 118.39941,13.041992 C 115.21777,18.773438 104.37402,24.025879 104.34473,31.268555 C 104.3291,34.688477 107.49121,37.458496 111.37207,37.458496 C 115.25293,37.458496 118.39941,34.688477 118.39941,31.268555 C 118.39941,34.688477 121.54785,37.458496 125.42871,37.458496 C 129.31152,37.458496 132.45801,34.688477 132.45801,31.268555 L 132.45801,31.268555 z"
           id="path3519" />
      </g>
      <rect
         ry="0"
         y="945.36218"
         x="23"
         height="15"
         width="3"
         id="rect3521"
         style="fill:#ffffff;fill-opacity:1;stroke:#000000;stroke-width:0;stroke-linejoin:miter;stroke-miterlimit:79.19999695;stroke-dasharray:none;stroke-opacity:1" />
    </g>
    <text
       transform="scale(-1.0539234,-0.9488356)"
       id="text7850"
       y="-1097.516"
       x="-55.362961"
       style="font-size:11.8381424px;font-style:normal;font-weight:normal;fill:#000000;fill-opacity:1;stroke:none;stroke-width:1px;stroke-linecap:butt;stroke-linejoin:miter;stroke-opacity:1;font-family:Bitstream Vera Sans"
       xml:space="preserve"><tspan
         style="font-size:10.91693974px;font-family:Times New Roman"
         y="-1097.516"
         x="-55.362961"
         id="tspan7852"
         sodipodi:role="line">8</tspan></text>
    <g
       transform="matrix(0.1422812,0,0,-0.1511975,38.653715,1042.3341)"
       style="fill-rule:nonzero;stroke:none;stroke-miterlimit:4"
       id="g8584">
      <g
         id="g8586">
        <path
           d="M 126.56934,46.111328 C 123.09082,46.115234 121.26074,42.404785 120.2998,38.695313 C 119.33887,34.984375 119.24902,31.271973 119.24902,31.271973 L 117.47363,31.254395 C 117.47363,31.254395 117.14062,46.101563 110.18262,46.10791 L 126.56934,46.111328 L 126.56934,46.111328 z"
           id="path8588" />
      </g>
      <path
         d="M 132.45801,31.268555 C 132.42676,24.025879 121.58496,18.773438 118.39941,13.041992 C 115.21777,18.773438 104.37402,24.025879 104.34473,31.268555 C 104.3291,34.688477 107.49121,37.458496 111.37207,37.458496 C 115.25293,37.458496 118.39941,34.688477 118.39941,31.268555 C 118.39941,34.688477 121.54785,37.458496 125.42871,37.458496 C 129.31152,37.458496 132.45801,34.688477 132.45801,31.268555 L 132.45801,31.268555 z"
         id="path8590" />
    </g>
    <g
       id="g3609"
       style="fill-rule:nonzero;stroke:none;stroke-miterlimit:4"
       transform="matrix(0.462414,0,0,0.4535924,-42.250437,982.44643)">
      <g
         id="g3611">
        <path
           id="path3613"
           d="M 126.56934,46.111328 C 123.09082,46.115234 121.26074,42.404785 120.2998,38.695313 C 119.33887,34.984375 119.24902,31.271973 119.24902,31.271973 L 117.47363,31.254395 C 117.47363,31.254395 117.14062,46.101563 110.18262,46.10791 L 126.56934,46.111328 L 126.56934,46.111328 z" />
      </g>
      <path
         id="path3615"
         d="M 132.45801,31.268555 C 132.42676,24.025879 121.58496,18.773438 118.39941,13.041992 C 115.21777,18.773438 104.37402,24.025879 104.34473,31.268555 C 104.3291,34.688477 107.49121,37.458496 111.37207,37.458496 C 115.25293,37.458496 118.39941,34.688477 118.39941,31.268555 C 118.39941,34.688477 121.54785,37.458496 125.42871,37.458496 C 129.31152,37.458496 132.45801,34.688477 132.45801,31.268555 L 132.45801,31.268555 z" />
    </g>
    <g
       transform="matrix(0.462414,0,0,-0.4535924,-6.2504373,1009.2779)"
       style="fill-rule:nonzero;stroke:none;stroke-miterlimit:4"
       id="g3617">
      <g
         id="g3619">
        <path
           d="M 126.56934,46.111328 C 123.09082,46.115234 121.26074,42.404785 120.2998,38.695313 C 119.33887,34.984375 119.24902,31.271973 119.24902,31.271973 L 117.47363,31.254395 C 117.47363,31.254395 117.14062,46.101563 110.18262,46.10791 L 126.56934,46.111328 L 126.56934,46.111328 z"
           id="path3621" />
      </g>
      <path
         d="M 132.45801,31.268555 C 132.42676,24.025879 121.58496,18.773438 118.39941,13.041992 C 115.21777,18.773438 104.37402,24.025879 104.34473,31.268555 C 104.3291,34.688477 107.49121,37.458496 111.37207,37.458496 C 115.25293,37.458496 118.39941,34.688477 118.39941,31.268555 C 118.39941,34.688477 121.54785,37.458496 125.42871,37.458496 C 129.31152,37.458496 132.45801,34.688477 132.45801,31.268555 L 132.45801,31.268555 z"
         id="path3623" />
    </g>
    <g
       transform="matrix(0.462414,0,0,0.4535924,-24.250437,960.44643)"
       style="fill-rule:nonzero;stroke:none;stroke-miterlimit:4"
       id="g3701">
      <g
         id="g3703">
        <path
           d="M 126.56934,46.111328 C 123.09082,46.115234 121.26074,42.404785 120.2998,38.695313 C 119.33887,34.984375 119.24902,31.271973 119.24902,31.271973 L 117.47363,31.254395 C 117.47363,31.254395 117.14062,46.101563 110.18262,46.10791 L 126.56934,46.111328 L 126.56934,46.111328 z"
           id="path3705" />
      </g>
      <path
         d="M 132.45801,31.268555 C 132.42676,24.025879 121.58496,18.773438 118.39941,13.041992 C 115.21777,18.773438 104.37402,24.025879 104.34473,31.268555 C 104.3291,34.688477 107.49121,37.458496 111.37207,37.458496 C 115.25293,37.458496 118.39941,34.688477 118.39941,31.268555 C 118.39941,34.688477 121.54785,37.458496 125.42871,37.458496 C 129.31152,37.458496 132.45801,34.688477 132.45801,31.268555 L 132.45801,31.268555 z"
         id="path3707" />
    </g>
    <g
       id="g3709"
       style="fill-rule:nonzero;stroke:none;stroke-miterlimit:4"
       transform="matrix(0.462414,0,0,-0.4535924,-24.250438,1031.2779)">
      <g
         id="g3711">
        <path
           id="path3713"
           d="M 126.56934,46.111328 C 123.09082,46.115234 121.26074,42.404785 120.2998,38.695313 C 119.33887,34.984375 119.24902,31.271973 119.24902,31.271973 L 117.47363,31.254395 C 117.47363,31.254395 117.14062,46.101563 110.18262,46.10791 L 126.56934,46.111328 L 126.56934,46.111328 z" />
      </g>
      <path
         id="path3715"
         d="M 132.45801,31.268555 C 132.42676,24.025879 121.58496,18.773438 118.39941,13.041992 C 115.21777,18.773438 104.37402,24.025879 104.34473,31.268555 C 104.3291,34.688477 107.49121,37.458496 111.37207,37.458496 C 115.25293,37.458496 118.39941,34.688477 118.39941,31.268555 C 118.39941,34.688477 121.54785,37.458496 125.42871,37.458496 C 129.31152,37.458496 132.45801,34.688477 132.45801,31.268555 L 132.45801,31.268555 z" />
    </g>
  </g>
</svg>
