<?xml version="1.0" encoding="UTF-8" standalone="no"?>
<!-- Created with Inkscape (http://www.inkscape.org/) -->
<svg
   xmlns:dc="http://purl.org/dc/elements/1.1/"
   xmlns:cc="http://creativecommons.org/ns#"
   xmlns:rdf="http://www.w3.org/1999/02/22-rdf-syntax-ns#"
   xmlns:svg="http://www.w3.org/2000/svg"
   xmlns="http://www.w3.org/2000/svg"
   xmlns:sodipodi="http://sodipodi.sourceforge.net/DTD/sodipodi-0.dtd"
   xmlns:inkscape="http://www.inkscape.org/namespaces/inkscape"
   width="60.999729"
   height="111.99989"
   id="svg2"
   sodipodi:version="0.32"
   inkscape:version="0.46"
   sodipodi:docbase="C:\Documents and Settings\Anthony\Bureau"
   sodipodi:docname="trefle-09.svg"
   inkscape:output_extension="org.inkscape.output.svg.inkscape"
   version="1.0">
  <sodipodi:namedview
     id="base"
     pagecolor="#d3d3d3"
     bordercolor="#666666"
     borderopacity="1.0"
     inkscape:pageopacity="0.78431373"
     inkscape:pageshadow="2"
     inkscape:zoom="5.3821774"
     inkscape:cx="46.393753"
     inkscape:cy="57.064945"
     inkscape:document-units="px"
     inkscape:current-layer="layer1"
     showgrid="true"
     showguides="false"
     inkscape:window-width="1280"
     inkscape:window-height="904"
     inkscape:window-x="384"
     inkscape:window-y="48" />
  <defs
     id="defs4">
    <inkscape:perspective
       sodipodi:type="inkscape:persp3d"
       inkscape:vp_x="0 : 526.18109 : 1"
       inkscape:vp_y="0 : 1000 : 0"
       inkscape:vp_z="744.09448 : 526.18109 : 1"
       inkscape:persp3d-origin="372.04724 : 350.78739 : 1"
       id="perspective180" />
  </defs>
  <metadata
     id="metadata7">
    <rdf:RDF>
      <cc:Work
         rdf:about="">
        <dc:format>image/svg+xml</dc:format>
        <dc:type
           rdf:resource="http://purl.org/dc/dcmitype/StillImage" />
      </cc:Work>
    </rdf:RDF>
  </metadata>
  <g
     inkscape:label="Calque 1"
     id="layer1"
     inkscape:groupmode="layer"
     transform="translate(0,-940.3623)">
    <rect
       style="fill:#ffffff;fill-opacity:1;fill-rule:evenodd;stroke:#000000;stroke-width:0.10020415;stroke-linecap:butt;stroke-linejoin:round;stroke-miterlimit:79.19999695;stroke-dasharray:none;stroke-opacity:1"
       id="rect2160"
       width="60.874729"
       y="940.4248"
       x="0.0625"
       height="111.87489"
       ry="4.5875664" />
    <g
       id="g3176"
       transform="translate(-19,-3.2362573e-6)">
      <g
         transform="matrix(0.4512453,0,0,0.4534853,-7.1476035,938.38694)"
         id="g2593"
         style="fill-rule:nonzero;stroke:none;stroke-miterlimit:4">
        <path
           id="path2595"
           d="M 92.086914,20.009766 C 92.086914,23.784668 88.933594,26.84375 85.041992,26.84375 C 81.150391,26.84375 77.996094,23.784668 77.996094,20.009766 C 77.996094,16.236328 81.150391,13.17627 85.041992,13.17627 C 88.933594,13.17627 92.086914,16.236328 92.086914,20.009766 z" />
        <path
           id="path2597"
           d="M 101.15918,32.939941 C 101.15918,36.714356 98.004883,39.772949 94.114258,39.772949 C 90.22168,39.772949 87.067383,36.714355 87.067383,32.939941 C 87.067383,29.165527 90.22168,26.106445 94.114258,26.106445 C 98.004883,26.106445 101.15918,29.165527 101.15918,32.939941 z" />
        <path
           id="path2599"
           d="M 83.117676,32.989746 C 83.117676,34.37207 82.694824,35.658203 81.967285,36.733398 C 80.708496,38.594238 78.537598,39.823242 76.070801,39.823242 C 72.179199,39.823242 69.025879,36.764648 69.025879,32.989746 C 69.025879,29.216309 72.179199,26.15625 76.070801,26.15625 C 79.962891,26.15625 83.117676,29.216309 83.117676,32.989746 z" />
        <g
           id="g2601">
          <path
             id="path2603"
             d="M 93.305664,46.253418 C 89.827149,46.255859 87.99707,43.42627 87.036133,40.596191 C 86.075195,37.766602 85.985352,34.935547 85.985352,34.935547 L 84.209961,34.920899 C 84.209961,34.920899 83.875977,46.245117 76.919434,46.250488 L 93.305664,46.253418 L 93.305664,46.253418 z" />
        </g>
        <g
           id="g2605">
          <path
             id="path2607"
             d="M 80.252441,25.021973 C 84.209961,28.979004 84.209961,34.920899 84.209961,34.920899 L 85.985351,34.935547 C 85.985351,34.935547 85.985351,28.867676 89.831055,25.021973" />
        </g>
        <g
           id="g2609">
          <path
             id="path2611"
             d="M 81.044434,37.738769 C 85.000977,33.78125 90.944336,33.78125 90.944336,33.78125 L 90.958008,32.005859 C 90.958008,32.005859 84.889648,32.005859 81.044434,28.159668" />
        </g>
        <g
           id="g2613">
          <path
             id="path2615"
             d="M 88.981445,37.768066 C 85.024414,33.810547 79.081543,33.810547 79.081543,33.810547 L 79.067383,32.035156 C 79.067383,32.035156 85.135742,32.035156 88.981445,28.188965" />
        </g>
      </g>
      <rect
         ry="0"
         y="944.36218"
         x="24"
         height="15"
         width="4"
         id="rect2509"
         style="fill:#ffffff;fill-opacity:1;stroke:#000000;stroke-width:0;stroke-linejoin:miter;stroke-miterlimit:79.19999695;stroke-dasharray:none;stroke-opacity:1" />
    </g>
    <text
       xml:space="preserve"
       style="font-size:11.8381424px;font-style:normal;font-weight:normal;fill:#000000;fill-opacity:1;stroke:none;stroke-width:1px;stroke-linecap:butt;stroke-linejoin:miter;stroke-opacity:1;font-family:Bitstream Vera Sans"
       x="2.5160134"
       y="1002.6628"
       id="text7838"
       transform="scale(1.0539234,0.9488356)"><tspan
         sodipodi:role="line"
         id="tspan7840"
         x="2.5160134"
         y="1002.6628"
         style="font-size:10.91693974px;font-family:Times New Roman">9</tspan></text>
    <g
       id="g3232"
       transform="translate(14,0)">
      <g
         style="fill-rule:nonzero;stroke:none;stroke-miterlimit:4"
         id="g3193"
         transform="matrix(0.4512453,0,0,0.4534853,-3.6476045,938.38694)">
        <path
           d="M 92.086914,20.009766 C 92.086914,23.784668 88.933594,26.84375 85.041992,26.84375 C 81.150391,26.84375 77.996094,23.784668 77.996094,20.009766 C 77.996094,16.236328 81.150391,13.17627 85.041992,13.17627 C 88.933594,13.17627 92.086914,16.236328 92.086914,20.009766 z"
           id="path3195" />
        <path
           d="M 101.15918,32.939941 C 101.15918,36.714356 98.004883,39.772949 94.114258,39.772949 C 90.22168,39.772949 87.067383,36.714355 87.067383,32.939941 C 87.067383,29.165527 90.22168,26.106445 94.114258,26.106445 C 98.004883,26.106445 101.15918,29.165527 101.15918,32.939941 z"
           id="path3197" />
        <path
           d="M 83.117676,32.989746 C 83.117676,34.37207 82.694824,35.658203 81.967285,36.733398 C 80.708496,38.594238 78.537598,39.823242 76.070801,39.823242 C 72.179199,39.823242 69.025879,36.764648 69.025879,32.989746 C 69.025879,29.216309 72.179199,26.15625 76.070801,26.15625 C 79.962891,26.15625 83.117676,29.216309 83.117676,32.989746 z"
           id="path3199" />
        <g
           id="g3201">
          <path
             d="M 93.305664,46.253418 C 89.827149,46.255859 87.99707,43.42627 87.036133,40.596191 C 86.075195,37.766602 85.985352,34.935547 85.985352,34.935547 L 84.209961,34.920899 C 84.209961,34.920899 83.875977,46.245117 76.919434,46.250488 L 93.305664,46.253418 L 93.305664,46.253418 z"
             id="path3203" />
        </g>
        <g
           id="g3205">
          <path
             d="M 80.252441,25.021973 C 84.209961,28.979004 84.209961,34.920899 84.209961,34.920899 L 85.985351,34.935547 C 85.985351,34.935547 85.985351,28.867676 89.831055,25.021973"
             id="path3207" />
        </g>
        <g
           id="g3209">
          <path
             d="M 81.044434,37.738769 C 85.000977,33.78125 90.944336,33.78125 90.944336,33.78125 L 90.958008,32.005859 C 90.958008,32.005859 84.889648,32.005859 81.044434,28.159668"
             id="path3211" />
        </g>
        <g
           id="g3213">
          <path
             d="M 88.981445,37.768066 C 85.024414,33.810547 79.081543,33.810547 79.081543,33.810547 L 79.067383,32.035156 C 79.067383,32.035156 85.135742,32.035156 88.981445,28.188965"
             id="path3215" />
        </g>
      </g>
      <rect
         style="fill:#ffffff;fill-opacity:1;stroke:#000000;stroke-width:0;stroke-linejoin:miter;stroke-miterlimit:79.19999695;stroke-dasharray:none;stroke-opacity:1"
         id="rect3217"
         width="4"
         height="15"
         x="38"
         y="944.36218"
         ry="0" />
    </g>
    <text
       transform="scale(1.0539234,0.9488356)"
       id="text7842"
       y="1002.6628"
       x="50.11771"
       style="font-size:11.8381424px;font-style:normal;font-weight:normal;fill:#000000;fill-opacity:1;stroke:none;stroke-width:1px;stroke-linecap:butt;stroke-linejoin:miter;stroke-opacity:1;font-family:Bitstream Vera Sans"
       xml:space="preserve"><tspan
         style="font-size:10.91693974px;font-family:Times New Roman"
         y="1002.6628"
         x="50.11771"
         id="tspan7844"
         sodipodi:role="line">9</tspan></text>
    <g
       transform="matrix(1,0,0,-1,-19,1992.7244)"
       id="g3275">
      <g
         style="fill-rule:nonzero;stroke:none;stroke-miterlimit:4"
         id="g3277"
         transform="matrix(0.4512453,0,0,0.4534853,-7.1476035,938.38694)">
        <path
           d="M 92.086914,20.009766 C 92.086914,23.784668 88.933594,26.84375 85.041992,26.84375 C 81.150391,26.84375 77.996094,23.784668 77.996094,20.009766 C 77.996094,16.236328 81.150391,13.17627 85.041992,13.17627 C 88.933594,13.17627 92.086914,16.236328 92.086914,20.009766 z"
           id="path3279" />
        <path
           d="M 101.15918,32.939941 C 101.15918,36.714356 98.004883,39.772949 94.114258,39.772949 C 90.22168,39.772949 87.067383,36.714355 87.067383,32.939941 C 87.067383,29.165527 90.22168,26.106445 94.114258,26.106445 C 98.004883,26.106445 101.15918,29.165527 101.15918,32.939941 z"
           id="path3281" />
        <path
           d="M 83.117676,32.989746 C 83.117676,34.37207 82.694824,35.658203 81.967285,36.733398 C 80.708496,38.594238 78.537598,39.823242 76.070801,39.823242 C 72.179199,39.823242 69.025879,36.764648 69.025879,32.989746 C 69.025879,29.216309 72.179199,26.15625 76.070801,26.15625 C 79.962891,26.15625 83.117676,29.216309 83.117676,32.989746 z"
           id="path3283" />
        <g
           id="g3285">
          <path
             d="M 93.305664,46.253418 C 89.827149,46.255859 87.99707,43.42627 87.036133,40.596191 C 86.075195,37.766602 85.985352,34.935547 85.985352,34.935547 L 84.209961,34.920899 C 84.209961,34.920899 83.875977,46.245117 76.919434,46.250488 L 93.305664,46.253418 L 93.305664,46.253418 z"
             id="path3287" />
        </g>
        <g
           id="g3289">
          <path
             d="M 80.252441,25.021973 C 84.209961,28.979004 84.209961,34.920899 84.209961,34.920899 L 85.985351,34.935547 C 85.985351,34.935547 85.985351,28.867676 89.831055,25.021973"
             id="path3291" />
        </g>
        <g
           id="g3293">
          <path
             d="M 81.044434,37.738769 C 85.000977,33.78125 90.944336,33.78125 90.944336,33.78125 L 90.958008,32.005859 C 90.958008,32.005859 84.889648,32.005859 81.044434,28.159668"
             id="path3295" />
        </g>
        <g
           id="g3297">
          <path
             d="M 88.981445,37.768066 C 85.024414,33.810547 79.081543,33.810547 79.081543,33.810547 L 79.067383,32.035156 C 79.067383,32.035156 85.135742,32.035156 88.981445,28.188965"
             id="path3299" />
        </g>
      </g>
      <rect
         style="fill:#ffffff;fill-opacity:1;stroke:#000000;stroke-width:0;stroke-linejoin:miter;stroke-miterlimit:79.19999695;stroke-dasharray:none;stroke-opacity:1"
         id="rect3301"
         width="4"
         height="15"
         x="24"
         y="944.36218"
         ry="0" />
    </g>
    <text
       xml:space="preserve"
       style="font-size:11.8381424px;font-style:normal;font-weight:normal;fill:#000000;fill-opacity:1;stroke:none;stroke-width:1px;stroke-linecap:butt;stroke-linejoin:miter;stroke-opacity:1;font-family:Bitstream Vera Sans"
       x="-7.7612619"
       y="-1097.516"
       id="text7846"
       transform="scale(-1.0539234,-0.9488356)"><tspan
         sodipodi:role="line"
         id="tspan7848"
         x="-7.7612619"
         y="-1097.516"
         style="font-size:10.91693974px;font-family:Times New Roman">9</tspan></text>
    <g
       transform="matrix(1,0,0,-1,14,1992.7244)"
       id="g3247">
      <g
         transform="matrix(0.4512453,0,0,0.4534853,-3.6476045,938.38694)"
         id="g3249"
         style="fill-rule:nonzero;stroke:none;stroke-miterlimit:4">
        <path
           id="path3251"
           d="M 92.086914,20.009766 C 92.086914,23.784668 88.933594,26.84375 85.041992,26.84375 C 81.150391,26.84375 77.996094,23.784668 77.996094,20.009766 C 77.996094,16.236328 81.150391,13.17627 85.041992,13.17627 C 88.933594,13.17627 92.086914,16.236328 92.086914,20.009766 z" />
        <path
           id="path3253"
           d="M 101.15918,32.939941 C 101.15918,36.714356 98.004883,39.772949 94.114258,39.772949 C 90.22168,39.772949 87.067383,36.714355 87.067383,32.939941 C 87.067383,29.165527 90.22168,26.106445 94.114258,26.106445 C 98.004883,26.106445 101.15918,29.165527 101.15918,32.939941 z" />
        <path
           id="path3255"
           d="M 83.117676,32.989746 C 83.117676,34.37207 82.694824,35.658203 81.967285,36.733398 C 80.708496,38.594238 78.537598,39.823242 76.070801,39.823242 C 72.179199,39.823242 69.025879,36.764648 69.025879,32.989746 C 69.025879,29.216309 72.179199,26.15625 76.070801,26.15625 C 79.962891,26.15625 83.117676,29.216309 83.117676,32.989746 z" />
        <g
           id="g3257">
          <path
             id="path3259"
             d="M 93.305664,46.253418 C 89.827149,46.255859 87.99707,43.42627 87.036133,40.596191 C 86.075195,37.766602 85.985352,34.935547 85.985352,34.935547 L 84.209961,34.920899 C 84.209961,34.920899 83.875977,46.245117 76.919434,46.250488 L 93.305664,46.253418 L 93.305664,46.253418 z" />
        </g>
        <g
           id="g3261">
          <path
             id="path3263"
             d="M 80.252441,25.021973 C 84.209961,28.979004 84.209961,34.920899 84.209961,34.920899 L 85.985351,34.935547 C 85.985351,34.935547 85.985351,28.867676 89.831055,25.021973" />
        </g>
        <g
           id="g3265">
          <path
             id="path3267"
             d="M 81.044434,37.738769 C 85.000977,33.78125 90.944336,33.78125 90.944336,33.78125 L 90.958008,32.005859 C 90.958008,32.005859 84.889648,32.005859 81.044434,28.159668" />
        </g>
        <g
           id="g3269">
          <path
             id="path3271"
             d="M 88.981445,37.768066 C 85.024414,33.810547 79.081543,33.810547 79.081543,33.810547 L 79.067383,32.035156 C 79.067383,32.035156 85.135742,32.035156 88.981445,28.188965" />
        </g>
      </g>
      <rect
         ry="0"
         y="944.36218"
         x="38"
         height="15"
         width="4"
         id="rect3273"
         style="fill:#ffffff;fill-opacity:1;stroke:#000000;stroke-width:0;stroke-linejoin:miter;stroke-miterlimit:79.19999695;stroke-dasharray:none;stroke-opacity:1" />
    </g>
    <text
       transform="scale(-1.0539234,-0.9488356)"
       id="text7850"
       y="-1097.516"
       x="-55.368286"
       style="font-size:11.8381424px;font-style:normal;font-weight:normal;fill:#000000;fill-opacity:1;stroke:none;stroke-width:1px;stroke-linecap:butt;stroke-linejoin:miter;stroke-opacity:1;font-family:Bitstream Vera Sans"
       xml:space="preserve"><tspan
         style="font-size:10.91693974px;font-family:Times New Roman"
         y="-1097.516"
         x="-55.368286"
         id="tspan7852"
         sodipodi:role="line">9</tspan></text>
    <g
       transform="matrix(0.1400416,0,0,0.1511618,-6.6664945,950.37043)"
       id="g2617"
       style="fill-rule:nonzero;stroke:none;stroke-miterlimit:4">
      <path
         id="path2619"
         d="M 92.086914,20.009766 C 92.086914,23.784668 88.933594,26.84375 85.041992,26.84375 C 81.150391,26.84375 77.996094,23.784668 77.996094,20.009766 C 77.996094,16.236328 81.150391,13.17627 85.041992,13.17627 C 88.933594,13.17627 92.086914,16.236328 92.086914,20.009766 z" />
      <path
         id="path2621"
         d="M 101.15918,32.939941 C 101.15918,36.714356 98.004883,39.772949 94.114258,39.772949 C 90.22168,39.772949 87.067383,36.714355 87.067383,32.939941 C 87.067383,29.165527 90.22168,26.106445 94.114258,26.106445 C 98.004883,26.106445 101.15918,29.165527 101.15918,32.939941 z" />
      <path
         id="path2623"
         d="M 83.117676,32.989746 C 83.117676,34.37207 82.694824,35.658203 81.967285,36.733398 C 80.708496,38.594238 78.537598,39.823242 76.070801,39.823242 C 72.179199,39.823242 69.025879,36.764648 69.025879,32.989746 C 69.025879,29.216309 72.179199,26.15625 76.070801,26.15625 C 79.962891,26.15625 83.117676,29.216309 83.117676,32.989746 z" />
      <g
         id="g2625">
        <path
           id="path2627"
           d="M 93.305664,46.253418 C 89.827149,46.255859 87.99707,43.42627 87.036133,40.596191 C 86.075195,37.766602 85.985352,34.935547 85.985352,34.935547 L 84.209961,34.920899 C 84.209961,34.920899 83.875977,46.245117 76.919434,46.250488 L 93.305664,46.253418 L 93.305664,46.253418 z" />
      </g>
      <g
         id="g2629">
        <path
           id="path2631"
           d="M 80.252441,25.021973 C 84.209961,28.979004 84.209961,34.920899 84.209961,34.920899 L 85.985351,34.935547 C 85.985351,34.935547 85.985351,28.867676 89.831055,25.021973" />
      </g>
      <g
         id="g2633">
        <path
           id="path2635"
           d="M 81.044434,37.738769 C 85.000977,33.78125 90.944336,33.78125 90.944336,33.78125 L 90.958008,32.005859 C 90.958008,32.005859 84.889648,32.005859 81.044434,28.159668" />
      </g>
      <g
         id="g2637">
        <path
           id="path2639"
           d="M 88.981445,37.768066 C 85.024414,33.810547 79.081543,33.810547 79.081543,33.810547 L 79.067383,32.035156 C 79.067383,32.035156 85.135742,32.035156 88.981445,28.188965" />
      </g>
    </g>
    <g
       style="fill-rule:nonzero;stroke:none;stroke-miterlimit:4"
       id="g2707"
       transform="matrix(0.1400416,0,0,0.1511618,43.833505,950.37043)">
      <path
         d="M 92.086914,20.009766 C 92.086914,23.784668 88.933594,26.84375 85.041992,26.84375 C 81.150391,26.84375 77.996094,23.784668 77.996094,20.009766 C 77.996094,16.236328 81.150391,13.17627 85.041992,13.17627 C 88.933594,13.17627 92.086914,16.236328 92.086914,20.009766 z"
         id="path2709" />
      <path
         d="M 101.15918,32.939941 C 101.15918,36.714356 98.004883,39.772949 94.114258,39.772949 C 90.22168,39.772949 87.067383,36.714355 87.067383,32.939941 C 87.067383,29.165527 90.22168,26.106445 94.114258,26.106445 C 98.004883,26.106445 101.15918,29.165527 101.15918,32.939941 z"
         id="path2711" />
      <path
         d="M 83.117676,32.989746 C 83.117676,34.37207 82.694824,35.658203 81.967285,36.733398 C 80.708496,38.594238 78.537598,39.823242 76.070801,39.823242 C 72.179199,39.823242 69.025879,36.764648 69.025879,32.989746 C 69.025879,29.216309 72.179199,26.15625 76.070801,26.15625 C 79.962891,26.15625 83.117676,29.216309 83.117676,32.989746 z"
         id="path2713" />
      <g
         id="g2715">
        <path
           d="M 93.305664,46.253418 C 89.827149,46.255859 87.99707,43.42627 87.036133,40.596191 C 86.075195,37.766602 85.985352,34.935547 85.985352,34.935547 L 84.209961,34.920899 C 84.209961,34.920899 83.875977,46.245117 76.919434,46.250488 L 93.305664,46.253418 L 93.305664,46.253418 z"
           id="path2717" />
      </g>
      <g
         id="g2719">
        <path
           d="M 80.252441,25.021973 C 84.209961,28.979004 84.209961,34.920899 84.209961,34.920899 L 85.985351,34.935547 C 85.985351,34.935547 85.985351,28.867676 89.831055,25.021973"
           id="path2721" />
      </g>
      <g
         id="g2723">
        <path
           d="M 81.044434,37.738769 C 85.000977,33.78125 90.944336,33.78125 90.944336,33.78125 L 90.958008,32.005859 C 90.958008,32.005859 84.889648,32.005859 81.044434,28.159668"
           id="path2725" />
      </g>
      <g
         id="g2727">
        <path
           d="M 88.981445,37.768066 C 85.024414,33.810547 79.081543,33.810547 79.081543,33.810547 L 79.067383,32.035156 C 79.067383,32.035156 85.135742,32.035156 88.981445,28.188965"
           id="path2729" />
      </g>
    </g>
    <g
       style="fill-rule:nonzero;stroke:none;stroke-miterlimit:4"
       id="g2731"
       transform="matrix(0.1400416,0,0,-0.1511618,-6.6664945,1042.3539)">
      <path
         d="M 92.086914,20.009766 C 92.086914,23.784668 88.933594,26.84375 85.041992,26.84375 C 81.150391,26.84375 77.996094,23.784668 77.996094,20.009766 C 77.996094,16.236328 81.150391,13.17627 85.041992,13.17627 C 88.933594,13.17627 92.086914,16.236328 92.086914,20.009766 z"
         id="path2733" />
      <path
         d="M 101.15918,32.939941 C 101.15918,36.714356 98.004883,39.772949 94.114258,39.772949 C 90.22168,39.772949 87.067383,36.714355 87.067383,32.939941 C 87.067383,29.165527 90.22168,26.106445 94.114258,26.106445 C 98.004883,26.106445 101.15918,29.165527 101.15918,32.939941 z"
         id="path2735" />
      <path
         d="M 83.117676,32.989746 C 83.117676,34.37207 82.694824,35.658203 81.967285,36.733398 C 80.708496,38.594238 78.537598,39.823242 76.070801,39.823242 C 72.179199,39.823242 69.025879,36.764648 69.025879,32.989746 C 69.025879,29.216309 72.179199,26.15625 76.070801,26.15625 C 79.962891,26.15625 83.117676,29.216309 83.117676,32.989746 z"
         id="path2737" />
      <g
         id="g2739">
        <path
           d="M 93.305664,46.253418 C 89.827149,46.255859 87.99707,43.42627 87.036133,40.596191 C 86.075195,37.766602 85.985352,34.935547 85.985352,34.935547 L 84.209961,34.920899 C 84.209961,34.920899 83.875977,46.245117 76.919434,46.250488 L 93.305664,46.253418 L 93.305664,46.253418 z"
           id="path2741" />
      </g>
      <g
         id="g2743">
        <path
           d="M 80.252441,25.021973 C 84.209961,28.979004 84.209961,34.920899 84.209961,34.920899 L 85.985351,34.935547 C 85.985351,34.935547 85.985351,28.867676 89.831055,25.021973"
           id="path2745" />
      </g>
      <g
         id="g2747">
        <path
           d="M 81.044434,37.738769 C 85.000977,33.78125 90.944336,33.78125 90.944336,33.78125 L 90.958008,32.005859 C 90.958008,32.005859 84.889648,32.005859 81.044434,28.159668"
           id="path2749" />
      </g>
      <g
         id="g2751">
        <path
           d="M 88.981445,37.768066 C 85.024414,33.810547 79.081543,33.810547 79.081543,33.810547 L 79.067383,32.035156 C 79.067383,32.035156 85.135742,32.035156 88.981445,28.188965"
           id="path2753" />
      </g>
    </g>
    <g
       transform="matrix(0.1400416,0,0,-0.1511618,43.833505,1042.3539)"
       id="g2755"
       style="fill-rule:nonzero;stroke:none;stroke-miterlimit:4">
      <path
         id="path2757"
         d="M 92.086914,20.009766 C 92.086914,23.784668 88.933594,26.84375 85.041992,26.84375 C 81.150391,26.84375 77.996094,23.784668 77.996094,20.009766 C 77.996094,16.236328 81.150391,13.17627 85.041992,13.17627 C 88.933594,13.17627 92.086914,16.236328 92.086914,20.009766 z" />
      <path
         id="path2759"
         d="M 101.15918,32.939941 C 101.15918,36.714356 98.004883,39.772949 94.114258,39.772949 C 90.22168,39.772949 87.067383,36.714355 87.067383,32.939941 C 87.067383,29.165527 90.22168,26.106445 94.114258,26.106445 C 98.004883,26.106445 101.15918,29.165527 101.15918,32.939941 z" />
      <path
         id="path2761"
         d="M 83.117676,32.989746 C 83.117676,34.37207 82.694824,35.658203 81.967285,36.733398 C 80.708496,38.594238 78.537598,39.823242 76.070801,39.823242 C 72.179199,39.823242 69.025879,36.764648 69.025879,32.989746 C 69.025879,29.216309 72.179199,26.15625 76.070801,26.15625 C 79.962891,26.15625 83.117676,29.216309 83.117676,32.989746 z" />
      <g
         id="g2763">
        <path
           id="path2765"
           d="M 93.305664,46.253418 C 89.827149,46.255859 87.99707,43.42627 87.036133,40.596191 C 86.075195,37.766602 85.985352,34.935547 85.985352,34.935547 L 84.209961,34.920899 C 84.209961,34.920899 83.875977,46.245117 76.919434,46.250488 L 93.305664,46.253418 L 93.305664,46.253418 z" />
      </g>
      <g
         id="g2767">
        <path
           id="path2769"
           d="M 80.252441,25.021973 C 84.209961,28.979004 84.209961,34.920899 84.209961,34.920899 L 85.985351,34.935547 C 85.985351,34.935547 85.985351,28.867676 89.831055,25.021973" />
      </g>
      <g
         id="g2771">
        <path
           id="path2773"
           d="M 81.044434,37.738769 C 85.000977,33.78125 90.944336,33.78125 90.944336,33.78125 L 90.958008,32.005859 C 90.958008,32.005859 84.889648,32.005859 81.044434,28.159668" />
      </g>
      <g
         id="g2775">
        <path
           id="path2777"
           d="M 88.981445,37.768066 C 85.024414,33.810547 79.081543,33.810547 79.081543,33.810547 L 79.067383,32.035156 C 79.067383,32.035156 85.135742,32.035156 88.981445,28.188965" />
      </g>
    </g>
    <g
       style="fill-rule:nonzero;stroke:none;stroke-miterlimit:4"
       id="g3575"
       transform="matrix(0.4512453,0,0,0.4534853,10.352397,960.38694)">
      <path
         d="M 92.086914,20.009766 C 92.086914,23.784668 88.933594,26.84375 85.041992,26.84375 C 81.150391,26.84375 77.996094,23.784668 77.996094,20.009766 C 77.996094,16.236328 81.150391,13.17627 85.041992,13.17627 C 88.933594,13.17627 92.086914,16.236328 92.086914,20.009766 z"
         id="path3577" />
      <path
         d="M 101.15918,32.939941 C 101.15918,36.714356 98.004883,39.772949 94.114258,39.772949 C 90.22168,39.772949 87.067383,36.714355 87.067383,32.939941 C 87.067383,29.165527 90.22168,26.106445 94.114258,26.106445 C 98.004883,26.106445 101.15918,29.165527 101.15918,32.939941 z"
         id="path3579" />
      <path
         d="M 83.117676,32.989746 C 83.117676,34.37207 82.694824,35.658203 81.967285,36.733398 C 80.708496,38.594238 78.537598,39.823242 76.070801,39.823242 C 72.179199,39.823242 69.025879,36.764648 69.025879,32.989746 C 69.025879,29.216309 72.179199,26.15625 76.070801,26.15625 C 79.962891,26.15625 83.117676,29.216309 83.117676,32.989746 z"
         id="path3581" />
      <g
         id="g3583">
        <path
           d="M 93.305664,46.253418 C 89.827149,46.255859 87.99707,43.42627 87.036133,40.596191 C 86.075195,37.766602 85.985352,34.935547 85.985352,34.935547 L 84.209961,34.920899 C 84.209961,34.920899 83.875977,46.245117 76.919434,46.250488 L 93.305664,46.253418 L 93.305664,46.253418 z"
           id="path3585" />
      </g>
      <g
         id="g3587">
        <path
           d="M 80.252441,25.021973 C 84.209961,28.979004 84.209961,34.920899 84.209961,34.920899 L 85.985351,34.935547 C 85.985351,34.935547 85.985351,28.867676 89.831055,25.021973"
           id="path3589" />
      </g>
      <g
         id="g3591">
        <path
           d="M 81.044434,37.738769 C 85.000977,33.78125 90.944336,33.78125 90.944336,33.78125 L 90.958008,32.005859 C 90.958008,32.005859 84.889648,32.005859 81.044434,28.159668"
           id="path3593" />
      </g>
      <g
         id="g3595">
        <path
           d="M 88.981445,37.768066 C 85.024414,33.810547 79.081543,33.810547 79.081543,33.810547 L 79.067383,32.035156 C 79.067383,32.035156 85.135742,32.035156 88.981445,28.188965"
           id="path3597" />
      </g>
    </g>
    <g
       transform="matrix(0.4512453,0,0,-0.4534853,10.352397,1031.3374)"
       id="g4115"
       style="fill-rule:nonzero;stroke:none;stroke-miterlimit:4">
      <path
         id="path4117"
         d="M 92.086914,20.009766 C 92.086914,23.784668 88.933594,26.84375 85.041992,26.84375 C 81.150391,26.84375 77.996094,23.784668 77.996094,20.009766 C 77.996094,16.236328 81.150391,13.17627 85.041992,13.17627 C 88.933594,13.17627 92.086914,16.236328 92.086914,20.009766 z" />
      <path
         id="path4119"
         d="M 101.15918,32.939941 C 101.15918,36.714356 98.004883,39.772949 94.114258,39.772949 C 90.22168,39.772949 87.067383,36.714355 87.067383,32.939941 C 87.067383,29.165527 90.22168,26.106445 94.114258,26.106445 C 98.004883,26.106445 101.15918,29.165527 101.15918,32.939941 z" />
      <path
         id="path4121"
         d="M 83.117676,32.989746 C 83.117676,34.37207 82.694824,35.658203 81.967285,36.733398 C 80.708496,38.594238 78.537598,39.823242 76.070801,39.823242 C 72.179199,39.823242 69.025879,36.764648 69.025879,32.989746 C 69.025879,29.216309 72.179199,26.15625 76.070801,26.15625 C 79.962891,26.15625 83.117676,29.216309 83.117676,32.989746 z" />
      <g
         id="g4123">
        <path
           id="path4125"
           d="M 93.305664,46.253418 C 89.827149,46.255859 87.99707,43.42627 87.036133,40.596191 C 86.075195,37.766602 85.985352,34.935547 85.985352,34.935547 L 84.209961,34.920899 C 84.209961,34.920899 83.875977,46.245117 76.919434,46.250488 L 93.305664,46.253418 L 93.305664,46.253418 z" />
      </g>
      <g
         id="g4127">
        <path
           id="path4129"
           d="M 80.252441,25.021973 C 84.209961,28.979004 84.209961,34.920899 84.209961,34.920899 L 85.985351,34.935547 C 85.985351,34.935547 85.985351,28.867676 89.831055,25.021973" />
      </g>
      <g
         id="g4131">
        <path
           id="path4133"
           d="M 81.044434,37.738769 C 85.000977,33.78125 90.944336,33.78125 90.944336,33.78125 L 90.958008,32.005859 C 90.958008,32.005859 84.889648,32.005859 81.044434,28.159668" />
      </g>
      <g
         id="g4135">
        <path
           id="path4137"
           d="M 88.981445,37.768066 C 85.024414,33.810547 79.081543,33.810547 79.081543,33.810547 L 79.067383,32.035156 C 79.067383,32.035156 85.135742,32.035156 88.981445,28.188965" />
      </g>
    </g>
    <g
       transform="matrix(0.4512453,0,0,0.4534853,-26.147603,960.38694)"
       id="g4245"
       style="fill-rule:nonzero;stroke:none;stroke-miterlimit:4">
      <path
         id="path4247"
         d="M 92.086914,20.009766 C 92.086914,23.784668 88.933594,26.84375 85.041992,26.84375 C 81.150391,26.84375 77.996094,23.784668 77.996094,20.009766 C 77.996094,16.236328 81.150391,13.17627 85.041992,13.17627 C 88.933594,13.17627 92.086914,16.236328 92.086914,20.009766 z" />
      <path
         id="path4249"
         d="M 101.15918,32.939941 C 101.15918,36.714356 98.004883,39.772949 94.114258,39.772949 C 90.22168,39.772949 87.067383,36.714355 87.067383,32.939941 C 87.067383,29.165527 90.22168,26.106445 94.114258,26.106445 C 98.004883,26.106445 101.15918,29.165527 101.15918,32.939941 z" />
      <path
         id="path4251"
         d="M 83.117676,32.989746 C 83.117676,34.37207 82.694824,35.658203 81.967285,36.733398 C 80.708496,38.594238 78.537598,39.823242 76.070801,39.823242 C 72.179199,39.823242 69.025879,36.764648 69.025879,32.989746 C 69.025879,29.216309 72.179199,26.15625 76.070801,26.15625 C 79.962891,26.15625 83.117676,29.216309 83.117676,32.989746 z" />
      <g
         id="g4253">
        <path
           id="path4255"
           d="M 93.305664,46.253418 C 89.827149,46.255859 87.99707,43.42627 87.036133,40.596191 C 86.075195,37.766602 85.985352,34.935547 85.985352,34.935547 L 84.209961,34.920899 C 84.209961,34.920899 83.875977,46.245117 76.919434,46.250488 L 93.305664,46.253418 L 93.305664,46.253418 z" />
      </g>
      <g
         id="g4257">
        <path
           id="path4259"
           d="M 80.252441,25.021973 C 84.209961,28.979004 84.209961,34.920899 84.209961,34.920899 L 85.985351,34.935547 C 85.985351,34.935547 85.985351,28.867676 89.831055,25.021973" />
      </g>
      <g
         id="g4261">
        <path
           id="path4263"
           d="M 81.044434,37.738769 C 85.000977,33.78125 90.944336,33.78125 90.944336,33.78125 L 90.958008,32.005859 C 90.958008,32.005859 84.889648,32.005859 81.044434,28.159668" />
      </g>
      <g
         id="g4265">
        <path
           id="path4267"
           d="M 88.981445,37.768066 C 85.024414,33.810547 79.081543,33.810547 79.081543,33.810547 L 79.067383,32.035156 C 79.067383,32.035156 85.135742,32.035156 88.981445,28.188965" />
      </g>
    </g>
    <g
       style="fill-rule:nonzero;stroke:none;stroke-miterlimit:4"
       id="g4402"
       transform="matrix(0.4512453,0,0,-0.4534853,-26.147603,1031.3374)">
      <path
         d="M 92.086914,20.009766 C 92.086914,23.784668 88.933594,26.84375 85.041992,26.84375 C 81.150391,26.84375 77.996094,23.784668 77.996094,20.009766 C 77.996094,16.236328 81.150391,13.17627 85.041992,13.17627 C 88.933594,13.17627 92.086914,16.236328 92.086914,20.009766 z"
         id="path4404" />
      <path
         d="M 101.15918,32.939941 C 101.15918,36.714356 98.004883,39.772949 94.114258,39.772949 C 90.22168,39.772949 87.067383,36.714355 87.067383,32.939941 C 87.067383,29.165527 90.22168,26.106445 94.114258,26.106445 C 98.004883,26.106445 101.15918,29.165527 101.15918,32.939941 z"
         id="path4406" />
      <path
         d="M 83.117676,32.989746 C 83.117676,34.37207 82.694824,35.658203 81.967285,36.733398 C 80.708496,38.594238 78.537598,39.823242 76.070801,39.823242 C 72.179199,39.823242 69.025879,36.764648 69.025879,32.989746 C 69.025879,29.216309 72.179199,26.15625 76.070801,26.15625 C 79.962891,26.15625 83.117676,29.216309 83.117676,32.989746 z"
         id="path4408" />
      <g
         id="g4410">
        <path
           d="M 93.305664,46.253418 C 89.827149,46.255859 87.99707,43.42627 87.036133,40.596191 C 86.075195,37.766602 85.985352,34.935547 85.985352,34.935547 L 84.209961,34.920899 C 84.209961,34.920899 83.875977,46.245117 76.919434,46.250488 L 93.305664,46.253418 L 93.305664,46.253418 z"
           id="path4412" />
      </g>
      <g
         id="g4414">
        <path
           d="M 80.252441,25.021973 C 84.209961,28.979004 84.209961,34.920899 84.209961,34.920899 L 85.985351,34.935547 C 85.985351,34.935547 85.985351,28.867676 89.831055,25.021973"
           id="path4416" />
      </g>
      <g
         id="g4418">
        <path
           d="M 81.044434,37.738769 C 85.000977,33.78125 90.944336,33.78125 90.944336,33.78125 L 90.958008,32.005859 C 90.958008,32.005859 84.889648,32.005859 81.044434,28.159668"
           id="path4420" />
      </g>
      <g
         id="g4422">
        <path
           d="M 88.981445,37.768066 C 85.024414,33.810547 79.081543,33.810547 79.081543,33.810547 L 79.067383,32.035156 C 79.067383,32.035156 85.135742,32.035156 88.981445,28.188965"
           id="path4424" />
      </g>
    </g>
    <g
       style="fill-rule:nonzero;stroke:none;stroke-miterlimit:4"
       id="g4544"
       transform="matrix(0.4512453,0,0,0.4534853,-7.1476035,982.38694)">
      <path
         d="M 92.086914,20.009766 C 92.086914,23.784668 88.933594,26.84375 85.041992,26.84375 C 81.150391,26.84375 77.996094,23.784668 77.996094,20.009766 C 77.996094,16.236328 81.150391,13.17627 85.041992,13.17627 C 88.933594,13.17627 92.086914,16.236328 92.086914,20.009766 z"
         id="path4546" />
      <path
         d="M 101.15918,32.939941 C 101.15918,36.714356 98.004883,39.772949 94.114258,39.772949 C 90.22168,39.772949 87.067383,36.714355 87.067383,32.939941 C 87.067383,29.165527 90.22168,26.106445 94.114258,26.106445 C 98.004883,26.106445 101.15918,29.165527 101.15918,32.939941 z"
         id="path4548" />
      <path
         d="M 83.117676,32.989746 C 83.117676,34.37207 82.694824,35.658203 81.967285,36.733398 C 80.708496,38.594238 78.537598,39.823242 76.070801,39.823242 C 72.179199,39.823242 69.025879,36.764648 69.025879,32.989746 C 69.025879,29.216309 72.179199,26.15625 76.070801,26.15625 C 79.962891,26.15625 83.117676,29.216309 83.117676,32.989746 z"
         id="path4550" />
      <g
         id="g4552">
        <path
           d="M 93.305664,46.253418 C 89.827149,46.255859 87.99707,43.42627 87.036133,40.596191 C 86.075195,37.766602 85.985352,34.935547 85.985352,34.935547 L 84.209961,34.920899 C 84.209961,34.920899 83.875977,46.245117 76.919434,46.250488 L 93.305664,46.253418 L 93.305664,46.253418 z"
           id="path4554" />
      </g>
      <g
         id="g4556">
        <path
           d="M 80.252441,25.021973 C 84.209961,28.979004 84.209961,34.920899 84.209961,34.920899 L 85.985351,34.935547 C 85.985351,34.935547 85.985351,28.867676 89.831055,25.021973"
           id="path4558" />
      </g>
      <g
         id="g4560">
        <path
           d="M 81.044434,37.738769 C 85.000977,33.78125 90.944336,33.78125 90.944336,33.78125 L 90.958008,32.005859 C 90.958008,32.005859 84.889648,32.005859 81.044434,28.159668"
           id="path4562" />
      </g>
      <g
         id="g4564">
        <path
           d="M 88.981445,37.768066 C 85.024414,33.810547 79.081543,33.810547 79.081543,33.810547 L 79.067383,32.035156 C 79.067383,32.035156 85.135742,32.035156 88.981445,28.188965"
           id="path4566" />
      </g>
    </g>
  </g>
</svg>
