<?xml version="1.0" encoding="UTF-8" standalone="no"?>
<svg
   xmlns:dc="http://purl.org/dc/elements/1.1/"
   xmlns:cc="http://creativecommons.org/ns#"
   xmlns:rdf="http://www.w3.org/1999/02/22-rdf-syntax-ns#"
   xmlns:svg="http://www.w3.org/2000/svg"
   xmlns="http://www.w3.org/2000/svg"
   version="1.0"
   id="svg2"
   height="111.99989"
   width="60.999729">
  <defs
     id="defs4" />
  <metadata
     id="metadata7">
    <rdf:RDF>
      <cc:Work
         rdf:about="">
        <dc:format>image/svg+xml</dc:format>
        <dc:type
           rdf:resource="http://purl.org/dc/dcmitype/StillImage" />
        <dc:title></dc:title>
      </cc:Work>
    </rdf:RDF>
  </metadata>
  <g
     transform="translate(0,-940.3623)"
     id="layer1">
    <rect
       ry="4.5875664"
       height="111.87489"
       x="0.0625"
       y="940.4248"
       width="60.874729"
       id="rect2160"
       style="fill:#ffffff;fill-opacity:1;fill-rule:evenodd;stroke:#000000;stroke-width:0.10020415;stroke-linecap:butt;stroke-linejoin:round;stroke-miterlimit:79.19999695;stroke-dasharray:none;stroke-opacity:1" />
    <text
       transform="scale(1.0539234,0.9488356)"
       id="text7838"
       y="1002.6628"
       x="2.5160134"
       style="font-size:11.8381424px;font-style:normal;font-weight:normal;fill:#000000;fill-opacity:1;stroke:none;stroke-width:1px;stroke-linecap:butt;stroke-linejoin:miter;stroke-opacity:1;font-family:Bitstream Vera Sans"
       xml:space="preserve"><tspan
         style="font-size:10.91693974px;font-family:Times New Roman"
         y="1002.6628"
         x="2.5160134"
         id="tspan7840">1</tspan></text>
    <text
       xml:space="preserve"
       style="font-size:11.8381424px;font-style:normal;font-weight:normal;fill:#000000;fill-opacity:1;stroke:none;stroke-width:1px;stroke-linecap:butt;stroke-linejoin:miter;stroke-opacity:1;font-family:Bitstream Vera Sans"
       x="49.957794"
       y="1002.6628"
       id="text7842"
       transform="scale(1.0539234,0.9488356)"><tspan
         id="tspan7844"
         x="49.957794"
         y="1002.6628"
         style="font-size:10.91693974px;font-family:Times New Roman">1</tspan></text>
    <text
       transform="scale(-1.0539234,-0.9488356)"
       id="text7846"
       y="-1097.516"
       x="-7.9211779"
       style="font-size:11.8381424px;font-style:normal;font-weight:normal;fill:#000000;fill-opacity:1;stroke:none;stroke-width:1px;stroke-linecap:butt;stroke-linejoin:miter;stroke-opacity:1;font-family:Bitstream Vera Sans"
       xml:space="preserve"><tspan
         style="font-size:10.91693974px;font-family:Times New Roman"
         y="-1097.516"
         x="-7.9211779"
         id="tspan7848">1</tspan></text>
    <text
       xml:space="preserve"
       style="font-size:11.8381424px;font-style:normal;font-weight:normal;fill:#000000;fill-opacity:1;stroke:none;stroke-width:1px;stroke-linecap:butt;stroke-linejoin:miter;stroke-opacity:1;font-family:Bitstream Vera Sans"
       x="-55.362961"
       y="-1097.516"
       id="text7850"
       transform="scale(-1.0539234,-0.9488356)"><tspan
         id="tspan7852"
         x="-55.362961"
         y="-1097.516"
         style="font-size:10.91693974px;font-family:Times New Roman">1</tspan></text>
    <g
       transform="matrix(0.4512453,0,0,0.4534853,-7.1476035,982.38694)"
       id="g2593"
       style="fill-rule:nonzero;stroke:none;stroke-miterlimit:4">
      <path
         id="path2595"
         d="M 92.086914,20.009766 C 92.086914,23.784668 88.933594,26.84375 85.041992,26.84375 C 81.150391,26.84375 77.996094,23.784668 77.996094,20.009766 C 77.996094,16.236328 81.150391,13.17627 85.041992,13.17627 C 88.933594,13.17627 92.086914,16.236328 92.086914,20.009766 z" />
      <path
         id="path2597"
         d="M 101.15918,32.939941 C 101.15918,36.714356 98.004883,39.772949 94.114258,39.772949 C 90.22168,39.772949 87.067383,36.714355 87.067383,32.939941 C 87.067383,29.165527 90.22168,26.106445 94.114258,26.106445 C 98.004883,26.106445 101.15918,29.165527 101.15918,32.939941 z" />
      <path
         id="path2599"
         d="M 83.117676,32.989746 C 83.117676,34.37207 82.694824,35.658203 81.967285,36.733398 C 80.708496,38.594238 78.537598,39.823242 76.070801,39.823242 C 72.179199,39.823242 69.025879,36.764648 69.025879,32.989746 C 69.025879,29.216309 72.179199,26.15625 76.070801,26.15625 C 79.962891,26.15625 83.117676,29.216309 83.117676,32.989746 z" />
      <g
         id="g2601">
        <path
           id="path2603"
           d="M 93.305664,46.253418 C 89.827149,46.255859 87.99707,43.42627 87.036133,40.596191 C 86.075195,37.766602 85.985352,34.935547 85.985352,34.935547 L 84.209961,34.920899 C 84.209961,34.920899 83.875977,46.245117 76.919434,46.250488 L 93.305664,46.253418 L 93.305664,46.253418 z" />
      </g>
      <g
         id="g2605">
        <path
           id="path2607"
           d="M 80.252441,25.021973 C 84.209961,28.979004 84.209961,34.920899 84.209961,34.920899 L 85.985351,34.935547 C 85.985351,34.935547 85.985351,28.867676 89.831055,25.021973" />
      </g>
      <g
         id="g2609">
        <path
           id="path2611"
           d="M 81.044434,37.738769 C 85.000977,33.78125 90.944336,33.78125 90.944336,33.78125 L 90.958008,32.005859 C 90.958008,32.005859 84.889648,32.005859 81.044434,28.159668" />
      </g>
      <g
         id="g2613">
        <path
           id="path2615"
           d="M 88.981445,37.768066 C 85.024414,33.810547 79.081543,33.810547 79.081543,33.810547 L 79.067383,32.035156 C 79.067383,32.035156 85.135742,32.035156 88.981445,28.188965" />
      </g>
    </g>
    <g
       style="fill-rule:nonzero;stroke:none;stroke-miterlimit:4"
       id="g2617"
       transform="matrix(0.1400416,0,0,0.1511618,-6.6664945,950.37043)">
      <path
         d="M 92.086914,20.009766 C 92.086914,23.784668 88.933594,26.84375 85.041992,26.84375 C 81.150391,26.84375 77.996094,23.784668 77.996094,20.009766 C 77.996094,16.236328 81.150391,13.17627 85.041992,13.17627 C 88.933594,13.17627 92.086914,16.236328 92.086914,20.009766 z"
         id="path2619" />
      <path
         d="M 101.15918,32.939941 C 101.15918,36.714356 98.004883,39.772949 94.114258,39.772949 C 90.22168,39.772949 87.067383,36.714355 87.067383,32.939941 C 87.067383,29.165527 90.22168,26.106445 94.114258,26.106445 C 98.004883,26.106445 101.15918,29.165527 101.15918,32.939941 z"
         id="path2621" />
      <path
         d="M 83.117676,32.989746 C 83.117676,34.37207 82.694824,35.658203 81.967285,36.733398 C 80.708496,38.594238 78.537598,39.823242 76.070801,39.823242 C 72.179199,39.823242 69.025879,36.764648 69.025879,32.989746 C 69.025879,29.216309 72.179199,26.15625 76.070801,26.15625 C 79.962891,26.15625 83.117676,29.216309 83.117676,32.989746 z"
         id="path2623" />
      <g
         id="g2625">
        <path
           d="M 93.305664,46.253418 C 89.827149,46.255859 87.99707,43.42627 87.036133,40.596191 C 86.075195,37.766602 85.985352,34.935547 85.985352,34.935547 L 84.209961,34.920899 C 84.209961,34.920899 83.875977,46.245117 76.919434,46.250488 L 93.305664,46.253418 L 93.305664,46.253418 z"
           id="path2627" />
      </g>
      <g
         id="g2629">
        <path
           d="M 80.252441,25.021973 C 84.209961,28.979004 84.209961,34.920899 84.209961,34.920899 L 85.985351,34.935547 C 85.985351,34.935547 85.985351,28.867676 89.831055,25.021973"
           id="path2631" />
      </g>
      <g
         id="g2633">
        <path
           d="M 81.044434,37.738769 C 85.000977,33.78125 90.944336,33.78125 90.944336,33.78125 L 90.958008,32.005859 C 90.958008,32.005859 84.889648,32.005859 81.044434,28.159668"
           id="path2635" />
      </g>
      <g
         id="g2637">
        <path
           d="M 88.981445,37.768066 C 85.024414,33.810547 79.081543,33.810547 79.081543,33.810547 L 79.067383,32.035156 C 79.067383,32.035156 85.135742,32.035156 88.981445,28.188965"
           id="path2639" />
      </g>
    </g>
    <g
       transform="matrix(0.1400416,0,0,0.1511618,43.833505,950.37043)"
       id="g2707"
       style="fill-rule:nonzero;stroke:none;stroke-miterlimit:4">
      <path
         id="path2709"
         d="M 92.086914,20.009766 C 92.086914,23.784668 88.933594,26.84375 85.041992,26.84375 C 81.150391,26.84375 77.996094,23.784668 77.996094,20.009766 C 77.996094,16.236328 81.150391,13.17627 85.041992,13.17627 C 88.933594,13.17627 92.086914,16.236328 92.086914,20.009766 z" />
      <path
         id="path2711"
         d="M 101.15918,32.939941 C 101.15918,36.714356 98.004883,39.772949 94.114258,39.772949 C 90.22168,39.772949 87.067383,36.714355 87.067383,32.939941 C 87.067383,29.165527 90.22168,26.106445 94.114258,26.106445 C 98.004883,26.106445 101.15918,29.165527 101.15918,32.939941 z" />
      <path
         id="path2713"
         d="M 83.117676,32.989746 C 83.117676,34.37207 82.694824,35.658203 81.967285,36.733398 C 80.708496,38.594238 78.537598,39.823242 76.070801,39.823242 C 72.179199,39.823242 69.025879,36.764648 69.025879,32.989746 C 69.025879,29.216309 72.179199,26.15625 76.070801,26.15625 C 79.962891,26.15625 83.117676,29.216309 83.117676,32.989746 z" />
      <g
         id="g2715">
        <path
           id="path2717"
           d="M 93.305664,46.253418 C 89.827149,46.255859 87.99707,43.42627 87.036133,40.596191 C 86.075195,37.766602 85.985352,34.935547 85.985352,34.935547 L 84.209961,34.920899 C 84.209961,34.920899 83.875977,46.245117 76.919434,46.250488 L 93.305664,46.253418 L 93.305664,46.253418 z" />
      </g>
      <g
         id="g2719">
        <path
           id="path2721"
           d="M 80.252441,25.021973 C 84.209961,28.979004 84.209961,34.920899 84.209961,34.920899 L 85.985351,34.935547 C 85.985351,34.935547 85.985351,28.867676 89.831055,25.021973" />
      </g>
      <g
         id="g2723">
        <path
           id="path2725"
           d="M 81.044434,37.738769 C 85.000977,33.78125 90.944336,33.78125 90.944336,33.78125 L 90.958008,32.005859 C 90.958008,32.005859 84.889648,32.005859 81.044434,28.159668" />
      </g>
      <g
         id="g2727">
        <path
           id="path2729"
           d="M 88.981445,37.768066 C 85.024414,33.810547 79.081543,33.810547 79.081543,33.810547 L 79.067383,32.035156 C 79.067383,32.035156 85.135742,32.035156 88.981445,28.188965" />
      </g>
    </g>
    <g
       transform="matrix(0.1400416,0,0,-0.1511618,-6.6664945,1042.3539)"
       id="g2731"
       style="fill-rule:nonzero;stroke:none;stroke-miterlimit:4">
      <path
         id="path2733"
         d="M 92.086914,20.009766 C 92.086914,23.784668 88.933594,26.84375 85.041992,26.84375 C 81.150391,26.84375 77.996094,23.784668 77.996094,20.009766 C 77.996094,16.236328 81.150391,13.17627 85.041992,13.17627 C 88.933594,13.17627 92.086914,16.236328 92.086914,20.009766 z" />
      <path
         id="path2735"
         d="M 101.15918,32.939941 C 101.15918,36.714356 98.004883,39.772949 94.114258,39.772949 C 90.22168,39.772949 87.067383,36.714355 87.067383,32.939941 C 87.067383,29.165527 90.22168,26.106445 94.114258,26.106445 C 98.004883,26.106445 101.15918,29.165527 101.15918,32.939941 z" />
      <path
         id="path2737"
         d="M 83.117676,32.989746 C 83.117676,34.37207 82.694824,35.658203 81.967285,36.733398 C 80.708496,38.594238 78.537598,39.823242 76.070801,39.823242 C 72.179199,39.823242 69.025879,36.764648 69.025879,32.989746 C 69.025879,29.216309 72.179199,26.15625 76.070801,26.15625 C 79.962891,26.15625 83.117676,29.216309 83.117676,32.989746 z" />
      <g
         id="g2739">
        <path
           id="path2741"
           d="M 93.305664,46.253418 C 89.827149,46.255859 87.99707,43.42627 87.036133,40.596191 C 86.075195,37.766602 85.985352,34.935547 85.985352,34.935547 L 84.209961,34.920899 C 84.209961,34.920899 83.875977,46.245117 76.919434,46.250488 L 93.305664,46.253418 L 93.305664,46.253418 z" />
      </g>
      <g
         id="g2743">
        <path
           id="path2745"
           d="M 80.252441,25.021973 C 84.209961,28.979004 84.209961,34.920899 84.209961,34.920899 L 85.985351,34.935547 C 85.985351,34.935547 85.985351,28.867676 89.831055,25.021973" />
      </g>
      <g
         id="g2747">
        <path
           id="path2749"
           d="M 81.044434,37.738769 C 85.000977,33.78125 90.944336,33.78125 90.944336,33.78125 L 90.958008,32.005859 C 90.958008,32.005859 84.889648,32.005859 81.044434,28.159668" />
      </g>
      <g
         id="g2751">
        <path
           id="path2753"
           d="M 88.981445,37.768066 C 85.024414,33.810547 79.081543,33.810547 79.081543,33.810547 L 79.067383,32.035156 C 79.067383,32.035156 85.135742,32.035156 88.981445,28.188965" />
      </g>
    </g>
    <g
       style="fill-rule:nonzero;stroke:none;stroke-miterlimit:4"
       id="g2755"
       transform="matrix(0.1400416,0,0,-0.1511618,43.833505,1042.3539)">
      <path
         d="M 92.086914,20.009766 C 92.086914,23.784668 88.933594,26.84375 85.041992,26.84375 C 81.150391,26.84375 77.996094,23.784668 77.996094,20.009766 C 77.996094,16.236328 81.150391,13.17627 85.041992,13.17627 C 88.933594,13.17627 92.086914,16.236328 92.086914,20.009766 z"
         id="path2757" />
      <path
         d="M 101.15918,32.939941 C 101.15918,36.714356 98.004883,39.772949 94.114258,39.772949 C 90.22168,39.772949 87.067383,36.714355 87.067383,32.939941 C 87.067383,29.165527 90.22168,26.106445 94.114258,26.106445 C 98.004883,26.106445 101.15918,29.165527 101.15918,32.939941 z"
         id="path2759" />
      <path
         d="M 83.117676,32.989746 C 83.117676,34.37207 82.694824,35.658203 81.967285,36.733398 C 80.708496,38.594238 78.537598,39.823242 76.070801,39.823242 C 72.179199,39.823242 69.025879,36.764648 69.025879,32.989746 C 69.025879,29.216309 72.179199,26.15625 76.070801,26.15625 C 79.962891,26.15625 83.117676,29.216309 83.117676,32.989746 z"
         id="path2761" />
      <g
         id="g2763">
        <path
           d="M 93.305664,46.253418 C 89.827149,46.255859 87.99707,43.42627 87.036133,40.596191 C 86.075195,37.766602 85.985352,34.935547 85.985352,34.935547 L 84.209961,34.920899 C 84.209961,34.920899 83.875977,46.245117 76.919434,46.250488 L 93.305664,46.253418 L 93.305664,46.253418 z"
           id="path2765" />
      </g>
      <g
         id="g2767">
        <path
           d="M 80.252441,25.021973 C 84.209961,28.979004 84.209961,34.920899 84.209961,34.920899 L 85.985351,34.935547 C 85.985351,34.935547 85.985351,28.867676 89.831055,25.021973"
           id="path2769" />
      </g>
      <g
         id="g2771">
        <path
           d="M 81.044434,37.738769 C 85.000977,33.78125 90.944336,33.78125 90.944336,33.78125 L 90.958008,32.005859 C 90.958008,32.005859 84.889648,32.005859 81.044434,28.159668"
           id="path2773" />
      </g>
      <g
         id="g2775">
        <path
           d="M 88.981445,37.768066 C 85.024414,33.810547 79.081543,33.810547 79.081543,33.810547 L 79.067383,32.035156 C 79.067383,32.035156 85.135742,32.035156 88.981445,28.188965"
           id="path2777" />
      </g>
    </g>
  </g>
</svg>
