<?xml version="1.0" encoding="UTF-8" standalone="no"?>
<!-- Created with Inkscape (http://www.inkscape.org/) -->

<svg
   xmlns:dc="http://purl.org/dc/elements/1.1/"
   xmlns:cc="http://creativecommons.org/ns#"
   xmlns:rdf="http://www.w3.org/1999/02/22-rdf-syntax-ns#"
   xmlns:svg="http://www.w3.org/2000/svg"
   xmlns="http://www.w3.org/2000/svg"
   xmlns:xlink="http://www.w3.org/1999/xlink"
   xmlns:sodipodi="http://sodipodi.sourceforge.net/DTD/sodipodi-0.dtd"
   xmlns:inkscape="http://www.inkscape.org/namespaces/inkscape"
   width="60.999729"
   height="111.99989"
   id="svg2"
   sodipodi:version="0.32"
   inkscape:version="0.47 r22583"
   sodipodi:docname="pique-11.svg"
   inkscape:output_extension="org.inkscape.output.svg.inkscape"
   version="1.0">
  <sodipodi:namedview
     id="base"
     pagecolor="#d3d3d3"
     bordercolor="#666666"
     borderopacity="1.0"
     inkscape:pageopacity="0.78431373"
     inkscape:pageshadow="2"
     inkscape:zoom="4"
     inkscape:cx="36.900166"
     inkscape:cy="61.106343"
     inkscape:document-units="px"
     inkscape:current-layer="layer1"
     showgrid="true"
     showguides="true"
     inkscape:window-width="1375"
     inkscape:window-height="798"
     inkscape:window-x="1151"
     inkscape:window-y="166"
     inkscape:guide-bbox="true"
     inkscape:window-maximized="0" />
  <defs
     id="defs4">
    <inkscape:perspective
       sodipodi:type="inkscape:persp3d"
       inkscape:vp_x="0 : 526.18109 : 1"
       inkscape:vp_y="0 : 1000 : 0"
       inkscape:vp_z="744.09448 : 526.18109 : 1"
       inkscape:persp3d-origin="372.04724 : 350.78739 : 1"
       id="perspective3595" />
    <clipPath
       clipPathUnits="userSpaceOnUse"
       id="clipPath20992">
      <rect
         style="fill:#c70000;fill-opacity:1;stroke:#969696;stroke-width:0;stroke-linejoin:miter;stroke-miterlimit:4;stroke-dasharray:none;stroke-opacity:1;display:inline"
         id="rect20994"
         width="18.125"
         height="14.562501"
         x="358"
         y="581.08026"
         ry="0" />
    </clipPath>
    <clipPath
       clipPathUnits="userSpaceOnUse"
       id="clipPath20999">
      <rect
         style="fill:#c70000;fill-opacity:1;stroke:#969696;stroke-width:0;stroke-linejoin:miter;stroke-miterlimit:4;stroke-dasharray:none;stroke-opacity:1"
         id="rect21001"
         width="23.25"
         height="10.125001"
         x="390"
         y="582.23718" />
    </clipPath>
    <clipPath
       clipPathUnits="userSpaceOnUse"
       id="clipPath21010">
      <rect
         style="fill:#c70000;fill-opacity:1;stroke:#969696;stroke-width:0;stroke-linejoin:miter;stroke-miterlimit:4;stroke-dasharray:none;stroke-opacity:1"
         id="rect21012"
         width="65.5625"
         height="114.3125"
         x="387.1875"
         y="478.04968" />
    </clipPath>
    <clipPath
       clipPathUnits="userSpaceOnUse"
       id="clipPath21016">
      <rect
         style="fill:#c70000;fill-opacity:1;stroke:#969696;stroke-width:0;stroke-linejoin:miter;stroke-miterlimit:4;stroke-dasharray:none;stroke-opacity:1"
         id="rect21018"
         width="69.375"
         height="37"
         x="443"
         y="555.36218" />
    </clipPath>
    <clipPath
       clipPathUnits="userSpaceOnUse"
       id="clipPath21022">
      <rect
         style="fill:#c70000;fill-opacity:1;stroke:#969696;stroke-width:0;stroke-linejoin:miter;stroke-miterlimit:4;stroke-dasharray:none;stroke-opacity:1"
         id="rect21024"
         width="66.375"
         height="26.625002"
         x="479"
         y="565.73718" />
    </clipPath>
    <clipPath
       clipPathUnits="userSpaceOnUse"
       id="clipPath21028">
      <rect
         style="fill:#c70000;fill-opacity:1;stroke:#969696;stroke-width:0;stroke-linejoin:miter;stroke-miterlimit:4;stroke-dasharray:none;stroke-opacity:1"
         id="rect21030"
         width="131"
         height="12.625001"
         x="548.5"
         y="579.73718" />
    </clipPath>
    <clipPath
       clipPathUnits="userSpaceOnUse"
       id="clipPath21034">
      <rect
         style="fill:#c70000;fill-opacity:1;stroke:#969696;stroke-width:0;stroke-linejoin:miter;stroke-miterlimit:4;stroke-dasharray:none;stroke-opacity:1"
         id="rect21036"
         width="76.75"
         height="41.5"
         x="692.25"
         y="550.86218" />
    </clipPath>
    <clipPath
       clipPathUnits="userSpaceOnUse"
       id="clipPath21040">
      <rect
         style="fill:#c70000;fill-opacity:1;stroke:#969696;stroke-width:0;stroke-linejoin:miter;stroke-miterlimit:4;stroke-dasharray:none;stroke-opacity:1"
         id="rect21042"
         width="59.499996"
         height="26.000002"
         x="728"
         y="566.36218" />
    </clipPath>
    <clipPath
       clipPathUnits="userSpaceOnUse"
       id="clipPath21046">
      <rect
         style="fill:#c70000;fill-opacity:1;stroke:#969696;stroke-width:0;stroke-linejoin:miter;stroke-miterlimit:4;stroke-dasharray:none;stroke-opacity:1"
         id="rect21048"
         width="143"
         height="80"
         x="652"
         y="512.36218" />
    </clipPath>
    <clipPath
       clipPathUnits="userSpaceOnUse"
       id="clipPath21052">
      <rect
         style="fill:#c70000;fill-opacity:1;stroke:#969696;stroke-width:0;stroke-linejoin:miter;stroke-miterlimit:4;stroke-dasharray:none;stroke-opacity:1"
         id="rect21054"
         width="65.625"
         height="37.875"
         x="784.375"
         y="554.36218" />
    </clipPath>
    <clipPath
       clipPathUnits="userSpaceOnUse"
       id="clipPath21058">
      <rect
         style="fill:#c70000;fill-opacity:1;stroke:#969696;stroke-width:0;stroke-linejoin:miter;stroke-miterlimit:4;stroke-dasharray:none;stroke-opacity:1"
         id="rect21060"
         width="32.749996"
         height="12.125001"
         x="826"
         y="580.23718" />
    </clipPath>
    <linearGradient
       y2="343.1196"
       x2="416.20303"
       y1="343.1196"
       x1="133.79698"
       gradientTransform="matrix(1.1415684,0,0,1.1415684,-468.9158,2199.5559)"
       gradientUnits="userSpaceOnUse"
       id="linearGradient12328"
       xlink:href="#linearGradient8929"
       inkscape:collect="always" />
    <linearGradient
       y2="343.1196"
       x2="416.20303"
       y1="343.1196"
       x1="133.79698"
       gradientTransform="matrix(1.1415684,0,0,1.1415684,-468.9158,2199.5559)"
       gradientUnits="userSpaceOnUse"
       id="linearGradient12259"
       xlink:href="#linearGradient8929"
       inkscape:collect="always" />
    <linearGradient
       id="linearGradient8135">
      <stop
         id="stop8137"
         offset="0"
         style="stop-color:#5d070b;stop-opacity:1;" />
      <stop
         style="stop-color:#ed1c24;stop-opacity:1;"
         offset="0.5"
         id="stop8139" />
      <stop
         id="stop8141"
         offset="1"
         style="stop-color:#5d070a;stop-opacity:1;" />
    </linearGradient>
    <linearGradient
       id="linearGradient8929">
      <stop
         style="stop-color:#776201;stop-opacity:1;"
         offset="0"
         id="stop8931" />
      <stop
         id="stop8933"
         offset="0.5"
         style="stop-color:#eac102;stop-opacity:1;" />
      <stop
         style="stop-color:#776201;stop-opacity:1;"
         offset="1"
         id="stop8935" />
    </linearGradient>
    <linearGradient
       y2="343.1196"
       x2="416.20303"
       y1="343.1196"
       x1="133.79698"
       gradientTransform="matrix(1.1415684,0,0,1.1415684,1141.0685,2742.0954)"
       gradientUnits="userSpaceOnUse"
       id="linearGradient10680"
       xlink:href="#linearGradient8929"
       inkscape:collect="always" />
    <inkscape:perspective
       id="perspective19815"
       inkscape:persp3d-origin="200 : 41.666677 : 1"
       inkscape:vp_z="400 : 62.500015 : 1"
       inkscape:vp_y="0 : 1000 : 0"
       inkscape:vp_x="0 : 62.500015 : 1"
       sodipodi:type="inkscape:persp3d" />
  </defs>
  <metadata
     id="metadata7">
    <rdf:RDF>
      <cc:Work
         rdf:about="">
        <dc:format>image/svg+xml</dc:format>
        <dc:type
           rdf:resource="http://purl.org/dc/dcmitype/StillImage" />
      </cc:Work>
    </rdf:RDF>
  </metadata>
  <g
     inkscape:groupmode="layer"
     id="layer3"
     inkscape:label="sous-couche"
     style="display:inline"
     transform="translate(0,-940.3623)" />
  <g
     inkscape:label="Calque 1"
     id="layer1"
     inkscape:groupmode="layer"
     style="display:inline"
     transform="translate(0,-940.3623)">
    <rect
       style="fill:#ffffff;fill-opacity:1;fill-rule:evenodd;stroke:#000000;stroke-width:0.10020415;stroke-linecap:butt;stroke-linejoin:round;stroke-miterlimit:79.19999695;stroke-dasharray:none;stroke-opacity:1"
       id="rect2160"
       width="60.874729"
       y="940.4248"
       x="0.0625"
       height="111.87489"
       ry="4.5875664" />
    <g
       id="g3480"
       transform="translate(-17,-1)">
      <g
         transform="matrix(0.462414,0,0,0.4535924,-25.250437,939.44643)"
         style="fill-rule:nonzero;stroke:none;stroke-miterlimit:4"
         id="g8373">
        <g
           id="g8375">
          <path
             d="M 126.56934,46.111328 C 123.09082,46.115234 121.26074,42.404785 120.2998,38.695313 C 119.33887,34.984375 119.24902,31.271973 119.24902,31.271973 L 117.47363,31.254395 C 117.47363,31.254395 117.14062,46.101563 110.18262,46.10791 L 126.56934,46.111328 L 126.56934,46.111328 z"
             id="path8377" />
        </g>
        <path
           d="M 132.45801,31.268555 C 132.42676,24.025879 121.58496,18.773438 118.39941,13.041992 C 115.21777,18.773438 104.37402,24.025879 104.34473,31.268555 C 104.3291,34.688477 107.49121,37.458496 111.37207,37.458496 C 115.25293,37.458496 118.39941,34.688477 118.39941,31.268555 C 118.39941,34.688477 121.54785,37.458496 125.42871,37.458496 C 129.31152,37.458496 132.45801,34.688477 132.45801,31.268555 L 132.45801,31.268555 z"
           id="path8379" />
      </g>
      <rect
         ry="0"
         y="945.36218"
         x="23"
         height="15"
         width="3"
         id="rect2509"
         style="fill:#ffffff;fill-opacity:1;stroke:#000000;stroke-width:0;stroke-linejoin:miter;stroke-miterlimit:79.19999695;stroke-dasharray:none;stroke-opacity:1" />
    </g>
    <text
       xml:space="preserve"
       style="font-size:11.78857613px;font-style:normal;font-weight:normal;fill:#000000;fill-opacity:1;stroke:none;stroke-width:1px;stroke-linecap:butt;stroke-linejoin:miter;stroke-opacity:1;font-family:Bitstream Vera Sans"
       x="0.85727721"
       y="998.30011"
       id="text7838"
       transform="scale(1.0495105,0.9528251)"><tspan
         sodipodi:role="line"
         id="tspan7840"
         x="0.85727721"
         y="998.30011"
         style="font-size:10.87123013px;font-family:Times New Roman">V</tspan></text>
    <g
       transform="matrix(0.1422812,0,0,0.1511975,-11.346285,950.39027)"
       style="fill-rule:nonzero;stroke:none;stroke-miterlimit:4"
       id="g8560">
      <g
         id="g8562">
        <path
           d="M 126.56934,46.111328 C 123.09082,46.115234 121.26074,42.404785 120.2998,38.695313 C 119.33887,34.984375 119.24902,31.271973 119.24902,31.271973 L 117.47363,31.254395 C 117.47363,31.254395 117.14062,46.101563 110.18262,46.10791 L 126.56934,46.111328 L 126.56934,46.111328 z"
           id="path8564" />
      </g>
      <path
         d="M 132.45801,31.268555 C 132.42676,24.025879 121.58496,18.773438 118.39941,13.041992 C 115.21777,18.773438 104.37402,24.025879 104.34473,31.268555 C 104.3291,34.688477 107.49121,37.458496 111.37207,37.458496 C 115.25293,37.458496 118.39941,34.688477 118.39941,31.268555 C 118.39941,34.688477 121.54785,37.458496 125.42871,37.458496 C 129.31152,37.458496 132.45801,34.688477 132.45801,31.268555 L 132.45801,31.268555 z"
         id="path8566" />
    </g>
    <g
       id="g8576"
       style="fill-rule:nonzero;stroke:none;stroke-miterlimit:4"
       transform="matrix(0.1422812,0,0,0.1511975,38.653715,950.39026)">
      <g
         id="g8578">
        <path
           id="path8580"
           d="M 126.56934,46.111328 C 123.09082,46.115234 121.26074,42.404785 120.2998,38.695313 C 119.33887,34.984375 119.24902,31.271973 119.24902,31.271973 L 117.47363,31.254395 C 117.47363,31.254395 117.14062,46.101563 110.18262,46.10791 L 126.56934,46.111328 L 126.56934,46.111328 z" />
      </g>
      <path
         id="path8582"
         d="M 132.45801,31.268555 C 132.42676,24.025879 121.58496,18.773438 118.39941,13.041992 C 115.21777,18.773438 104.37402,24.025879 104.34473,31.268555 C 104.3291,34.688477 107.49121,37.458496 111.37207,37.458496 C 115.25293,37.458496 118.39941,34.688477 118.39941,31.268555 C 118.39941,34.688477 121.54785,37.458496 125.42871,37.458496 C 129.31152,37.458496 132.45801,34.688477 132.45801,31.268555 L 132.45801,31.268555 z" />
    </g>
    <g
       id="g8592"
       style="fill-rule:nonzero;stroke:none;stroke-miterlimit:4"
       transform="matrix(0.1422812,0,0,-0.1511975,-11.346285,1042.3341)">
      <g
         id="g8594">
        <path
           id="path8596"
           d="M 126.56934,46.111328 C 123.09082,46.115234 121.26074,42.404785 120.2998,38.695313 C 119.33887,34.984375 119.24902,31.271973 119.24902,31.271973 L 117.47363,31.254395 C 117.47363,31.254395 117.14062,46.101563 110.18262,46.10791 L 126.56934,46.111328 L 126.56934,46.111328 z" />
      </g>
      <path
         id="path8598"
         d="M 132.45801,31.268555 C 132.42676,24.025879 121.58496,18.773438 118.39941,13.041992 C 115.21777,18.773438 104.37402,24.025879 104.34473,31.268555 C 104.3291,34.688477 107.49121,37.458496 111.37207,37.458496 C 115.25293,37.458496 118.39941,34.688477 118.39941,31.268555 C 118.39941,34.688477 121.54785,37.458496 125.42871,37.458496 C 129.31152,37.458496 132.45801,34.688477 132.45801,31.268555 L 132.45801,31.268555 z" />
    </g>
    <g
       id="g3511"
       transform="matrix(-1,0,0,-1,78,1993.7244)">
      <g
         transform="matrix(0.462414,0,0,0.4535924,-25.250437,939.44643)"
         style="fill-rule:nonzero;stroke:none;stroke-miterlimit:4"
         id="g3513">
        <g
           id="g3515">
          <path
             d="M 126.56934,46.111328 C 123.09082,46.115234 121.26074,42.404785 120.2998,38.695313 C 119.33887,34.984375 119.24902,31.271973 119.24902,31.271973 L 117.47363,31.254395 C 117.47363,31.254395 117.14062,46.101563 110.18262,46.10791 L 126.56934,46.111328 L 126.56934,46.111328 z"
             id="path3517" />
        </g>
        <path
           d="M 132.45801,31.268555 C 132.42676,24.025879 121.58496,18.773438 118.39941,13.041992 C 115.21777,18.773438 104.37402,24.025879 104.34473,31.268555 C 104.3291,34.688477 107.49121,37.458496 111.37207,37.458496 C 115.25293,37.458496 118.39941,34.688477 118.39941,31.268555 C 118.39941,34.688477 121.54785,37.458496 125.42871,37.458496 C 129.31152,37.458496 132.45801,34.688477 132.45801,31.268555 L 132.45801,31.268555 z"
           id="path3519" />
      </g>
      <rect
         ry="0"
         y="945.36218"
         x="23"
         height="15"
         width="3"
         id="rect3521"
         style="fill:#ffffff;fill-opacity:1;stroke:#000000;stroke-width:0;stroke-linejoin:miter;stroke-miterlimit:79.19999695;stroke-dasharray:none;stroke-opacity:1" />
    </g>
    <g
       transform="matrix(0.1422812,0,0,-0.1511975,38.653715,1042.3341)"
       style="fill-rule:nonzero;stroke:none;stroke-miterlimit:4"
       id="g8584">
      <g
         id="g8586">
        <path
           d="M 126.56934,46.111328 C 123.09082,46.115234 121.26074,42.404785 120.2998,38.695313 C 119.33887,34.984375 119.24902,31.271973 119.24902,31.271973 L 117.47363,31.254395 C 117.47363,31.254395 117.14062,46.101563 110.18262,46.10791 L 126.56934,46.111328 L 126.56934,46.111328 z"
           id="path8588" />
      </g>
      <path
         d="M 132.45801,31.268555 C 132.42676,24.025879 121.58496,18.773438 118.39941,13.041992 C 115.21777,18.773438 104.37402,24.025879 104.34473,31.268555 C 104.3291,34.688477 107.49121,37.458496 111.37207,37.458496 C 115.25293,37.458496 118.39941,34.688477 118.39941,31.268555 C 118.39941,34.688477 121.54785,37.458496 125.42871,37.458496 C 129.31152,37.458496 132.45801,34.688477 132.45801,31.268555 L 132.45801,31.268555 z"
         id="path8590" />
    </g>
    <text
       transform="scale(1.0495105,0.9528251)"
       id="text21782"
       y="998.30005"
       x="49.451359"
       style="font-size:11.78857613px;font-style:normal;font-weight:normal;fill:#000000;fill-opacity:1;stroke:none;stroke-width:1px;stroke-linecap:butt;stroke-linejoin:miter;stroke-opacity:1;font-family:Bitstream Vera Sans"
       xml:space="preserve"><tspan
         style="font-size:10.87123013px;font-family:Times New Roman"
         y="998.30005"
         x="49.451359"
         id="tspan21784"
         sodipodi:role="line">V</tspan></text>
    <text
       xml:space="preserve"
       style="font-size:11.78857613px;font-style:normal;font-weight:normal;fill:#000000;fill-opacity:1;stroke:none;stroke-width:1px;stroke-linecap:butt;stroke-linejoin:miter;stroke-opacity:1;font-family:Bitstream Vera Sans"
       x="-57.265053"
       y="-1093.0691"
       id="text21786"
       transform="scale(-1.0495105,-0.9528251)"><tspan
         sodipodi:role="line"
         id="tspan21788"
         x="-57.265053"
         y="-1093.0691"
         style="font-size:10.87123013px;font-family:Times New Roman">V</tspan></text>
    <text
       transform="scale(-1.0495105,-0.9528251)"
       id="text21790"
       y="-1093.0851"
       x="-8.6709738"
       style="font-size:11.78857613px;font-style:normal;font-weight:normal;fill:#000000;fill-opacity:1;stroke:none;stroke-width:1px;stroke-linecap:butt;stroke-linejoin:miter;stroke-opacity:1;font-family:Bitstream Vera Sans"
       xml:space="preserve"><tspan
         style="font-size:10.87123013px;font-family:Times New Roman"
         y="-1093.0851"
         x="-8.6709738"
         id="tspan21792"
         sodipodi:role="line">V</tspan></text>
    <path
       style="fill:none;fill-rule:evenodd;stroke:#000000;stroke-width:0.5;stroke-linecap:butt;stroke-linejoin:miter;stroke-miterlimit:4;stroke-dasharray:none;stroke-opacity:1"
       d="M 52,1032.3622 L 52,954.36218 L 20,954.36218"
       id="path21798" />
    <path
       style="fill:none;fill-rule:evenodd;stroke:#000000;stroke-width:0.5;stroke-linecap:butt;stroke-linejoin:miter;stroke-miterlimit:4;stroke-dasharray:none;stroke-opacity:1"
       d="M 9,960.36218 L 9,1038.3622 L 41,1038.3622"
       id="path21802" />
    <g
       transform="matrix(0.10417473,0,0,0.10029204,46.483907,914.37806)"
       id="layer1-6"
       inkscape:label="Capa 1">
      <g
         transform="matrix(1.0017578,0,0,0.9973206,0.6233984,2.3510306)"
         id="g12282">
        <path
           id="path10143"
           rx="3.9327636"
           cy="-89.381149"
           ry="3.9327636"
           cx="-486.21375"
           type="arc"
           d="m -60.56842,873.39292 c -5.233292,-0.0689 -9.416181,-4.36353 -9.347242,-9.59682 0.06887,-5.22861 4.36344,-9.41143 9.596743,-9.34248 5.231009,0.0688 9.413784,4.36341 9.344913,9.59203 -0.06894,5.23329 -4.363394,9.41622 -9.594414,9.34727 z"
           style="fill:#e3e4e5;fill-opacity:1;stroke:#010101;stroke-width:1.0004636;stroke-miterlimit:4;stroke-dasharray:none" />
        <path
           style="fill:#e3e4e5;fill-opacity:1;stroke:#010101;stroke-width:1.0004636;stroke-miterlimit:4;stroke-dasharray:none"
           d="m -222.75926,876.9593 c -5.23329,-0.069 -9.41618,-4.36354 -9.34724,-9.59683 0.0689,-5.22861 4.36344,-9.41143 9.59675,-9.34248 5.231,0.0688 9.41378,4.36342 9.34491,9.59203 -0.0689,5.23329 -4.36339,9.41623 -9.59442,9.34728 z"
           type="arc"
           cx="-486.21375"
           ry="3.9327636"
           cy="-89.381149"
           rx="3.9327636"
           id="path10145" />
        <path
           sodipodi:nodetypes="ccscccccc"
           d="m -155.5642,816.02737 c -69.3806,0.135 -131.652,8.8314 -175.4834,22.3292 3.6418,-1.7281 -1.7414,-17.2108 -6.2683,-28.8808 -5.4755,-14.1152 -13.5126,-16.1983 -13.5126,-16.1983 48.4583,-14.3139 120.4801,-24.4108 195.557,-24.5064 75.105,0.0956 147.498,9.8649 195.962,24.1787 0,0 -9.5851,3.1333 -15.0562,17.2501 -4.5256,11.6684 -8.2087,26.4286 -4.5612,28.1567 -43.8259,-13.4978 -107.2624,-22.1942 -176.6373,-22.3292"
           style="font-size:12px;fill:#eac102;fill-opacity:1;stroke:#000000;stroke-width:1.00046337;stroke-miterlimit:4;stroke-opacity:1;stroke-dasharray:none"
           id="path10157" />
        <path
           d="m -155.1449,772.21257 c -75.0769,0.1183 -142.5324,9.0511 -190.9907,23.3875 -3.2309,0.9681 -6.6476,-0.2984 -7.6946,-3.3548 -1.0469,-3.062 0.6924,-6.5743 3.9233,-7.565 48.6666,-14.9274 117.8614,-24.2993 194.7789,-24.4569 76.9344,0.1408 146.3938,9.5295 195.066,24.4569 3.2308,0.9907 4.9701,4.503 3.9232,7.565 -1.0525,3.0564 -4.4692,4.3229 -7.6946,3.3548 -48.4639,-14.3364 -116.2065,-23.2692 -191.3115,-23.3875"
           style="font-size:12px;fill:#eac102;fill-opacity:1;stroke:#000000;stroke-width:1.00046337;stroke-miterlimit:4;stroke-opacity:1;stroke-dasharray:none"
           id="path10159" />
        <path
           d="m -154.944,872.42167 c -68.5587,-0.1013 -129.9745,-8.218 -173.8004,-21.4174 -3.2084,-0.9737 -4.8858,-3.9119 -4.7,-6.9515 -0.0563,-2.9551 1.5986,-5.6343 4.7,-6.5687 43.8259,-13.1825 105.2417,-21.2991 173.8004,-21.4005 68.5475,0.1014 129.9182,8.218 173.7497,21.4005 3.1015,0.9344 4.7282,3.6136 4.6719,6.5687 0.1689,3.0396 -1.486,5.9778 -4.6719,6.9515 -43.8315,13.1994 -105.2022,21.3161 -173.7497,21.4174"
           style="font-size:12px;fill:#eac102;fill-opacity:1;stroke:#000000;stroke-width:1.00046337;stroke-miterlimit:4;stroke-opacity:1;stroke-dasharray:none"
           id="path10161" />
        <path
           d="m -155.128,863.42687 c -61.8717,-0.0787 -117.7939,-7.2216 -160.3645,-18.2202 42.5706,-11.0154 98.4928,-17.7474 160.3645,-17.8656 61.8604,0.1182 118.0809,6.8502 160.6515,17.8656 -42.5706,10.9986 -98.7911,18.1415 -160.6515,18.2202"
           style="font-size:12px;fill:url(#linearGradient12328);fill-opacity:1;stroke:#000000;stroke-width:1.00046337;stroke-miterlimit:4;stroke-dasharray:none"
           id="path10163" />
        <path
           d="m -155.0128,807.71697 c -16.0381,0 -28.9766,-6.0416 -28.9766,-13.487 0,-7.4454 12.9385,-13.512 28.9766,-13.512 16.0522,0 29.0333,6.0416 29.0333,13.512 0,7.4454 -12.9811,13.487 -29.0333,13.487"
           style="font-size:12px;fill:#eac102;fill-opacity:1;stroke:#000000;stroke-width:1.00046337;stroke-miterlimit:4;stroke-opacity:1;stroke-dasharray:none"
           id="path10169" />
        <path
           id="path10171"
           style="font-size:12px;fill:#ed1c24;fill-opacity:1;stroke:#000000;stroke-width:1.00046337;stroke-miterlimit:4;stroke-opacity:1;stroke-dasharray:none"
           d="m -155.0055,803.48137 c -11.9123,0 -21.5223,-4.146 -21.5223,-9.2553 0,-5.1093 9.61,-9.2725 21.5223,-9.2725 11.9228,0 21.5646,4.146 21.5646,9.2725 0,5.1093 -9.6418,9.2553 -21.5646,9.2553" />
        <path
           id="path10175"
           d="m 29.8426,803.28657 c -0.547,-0.1761 -0.9744,-0.443 -1.534,-0.6065 -15.395,-4.496 -29.52,-2.2951 -31.6072,4.8517 -2.0784,7.1166 8.5756,16.4579 23.8659,20.9763 0.7701,-0.9415 1.6017,-1.7152 2.3188,-2.7112 1.0784,-1.4979 2.0959,-3.0202 2.961,-4.602 0.865,-1.5817 1.5653,-3.1977 2.1047,-4.8159 0.5068,-1.5202 0.9121,-3.0818 1.213,-4.602 0.3008,-1.5202 0.5064,-2.9934 0.6421,-4.4592 0.1351,-1.4594 0.0239,-2.6794 0.0357,-4.0312 z"
           style="font-size:12px;fill:#eac102;fill-opacity:1;stroke:#000000;stroke-width:1.00046337;stroke-miterlimit:4;stroke-opacity:1;stroke-dasharray:none" />
        <path
           id="path10177"
           d="m 30.0923,807.88847 c -1.0129,-0.3696 -1.8835,-0.8269 -2.961,-1.1415 -11.4345,-3.3394 -21.8271,-2.0506 -23.2594,2.8539 -1.4323,4.9044 6.6165,11.608 18.051,14.9474 0.6904,0.2016 1.3166,0.2242 1.9978,0.3924 0.9118,-0.6822 1.862,-1.2643 2.6755,-2.0691 0.7526,-0.7445 1.4535,-1.5488 2.0335,-2.3901 0.5799,-0.8414 1.0335,-1.7451 1.3556,-2.6756 0.3257,-0.941 0.5352,-1.9515 0.6421,-2.9966 0.1069,-1.0451 0.1324,-2.1248 0.0713,-3.2107 -0.0717,-1.2759 -0.3791,-2.473 -0.6064,-3.7101 z"
           style="font-size:12px;fill:#ed1c24;fill-opacity:1;stroke:#000000;stroke-width:1.00046337;stroke-miterlimit:4;stroke-opacity:1;stroke-dasharray:none" />
        <path
           style="font-size:12px;fill:#eac102;fill-opacity:1;stroke:#000000;stroke-width:1.00046337;stroke-miterlimit:4;stroke-opacity:1;stroke-dasharray:none"
           d="m -340.5732,803.28657 c 0.547,-0.1761 0.9744,-0.443 1.534,-0.6065 15.395,-4.496 29.52,-2.2951 31.6072,4.8517 2.0784,7.1166 -8.5756,16.4579 -23.8659,20.9763 -0.7701,-0.9415 -1.6017,-1.7152 -2.3188,-2.7112 -1.0784,-1.4979 -2.0959,-3.0202 -2.961,-4.602 -0.865,-1.5817 -1.5653,-3.1977 -2.1047,-4.8159 -0.5068,-1.5202 -0.9121,-3.0818 -1.213,-4.602 -0.3008,-1.5202 -0.5064,-2.9934 -0.6421,-4.4592 -0.1351,-1.4594 -0.0239,-2.6794 -0.0357,-4.0312 z"
           id="path10181" />
        <path
           style="font-size:12px;fill:#ed1c24;fill-opacity:1;stroke:#000000;stroke-width:1.00046337;stroke-miterlimit:4;stroke-opacity:1;stroke-dasharray:none"
           d="m -340.8229,807.88847 c 1.0129,-0.3696 1.8835,-0.8269 2.961,-1.1415 11.4345,-3.3394 21.8271,-2.0506 23.2594,2.8539 1.4323,4.9044 -6.6165,11.608 -18.051,14.9474 -0.6904,0.2016 -1.3166,0.2242 -1.9978,0.3924 -0.9118,-0.6822 -1.862,-1.2643 -2.6755,-2.0691 -0.7526,-0.7445 -1.4535,-1.5488 -2.0335,-2.3901 -0.5799,-0.8414 -1.0335,-1.7451 -1.3556,-2.6756 -0.3257,-0.941 -0.5352,-1.9515 -0.6421,-2.9966 -0.1069,-1.0451 -0.1324,-2.1248 -0.0713,-3.2107 0.0717,-1.2759 0.3791,-2.473 0.6064,-3.7101 z"
           id="path10183" />
        <g
           transform="matrix(1.1415684,0,0,1.1415684,167.8089,448.03291)"
           id="g10185"
           style="fill:#e3e4e5;fill-opacity:1">
          <path
             id="path10187"
             style="font-size:12px;fill:#e3e4e5;fill-opacity:1;stroke:#000000;stroke-width:1.0516727;stroke-miterlimit:4;stroke-opacity:1;stroke-dasharray:none"
             d="m -329.40582,303.96238 c 0,-2.80064 2.40128,-5.07863 5.35973,-5.07863 2.97818,0 5.38439,2.27799 5.38439,5.07863 0,2.79571 -2.40621,5.09342 -5.38439,5.09342 -2.95845,0 -5.35973,-2.29771 -5.35973,-5.09342" />
          <path
             id="path10189"
             style="font-size:12px;fill:#e3e4e5;fill-opacity:1;stroke:#000000;stroke-width:1.0516727;stroke-miterlimit:4;stroke-opacity:1;stroke-dasharray:none"
             d="m -410.25052,313.40469 c 0,-2.80065 2.40621,-5.07863 5.35973,-5.07863 2.97818,0 5.37946,2.27798 5.37946,5.07863 0,2.81543 -2.40128,5.09341 -5.37946,5.09341 -2.95352,0 -5.35973,-2.27798 -5.35973,-5.09341" />
          <path
             id="path10191"
             style="font-size:12px;fill:#e3e4e5;fill-opacity:1;stroke:#000000;stroke-width:1.0516727;stroke-miterlimit:4;stroke-opacity:1;stroke-dasharray:none"
             d="m -246.04645,303.96238 c 0,-2.80064 2.40624,-5.07863 5.36469,-5.07863 2.97326,0 5.37945,2.27799 5.37945,5.07863 0,2.79571 -2.40619,5.09342 -5.37945,5.09342 -2.95845,0 -5.36469,-2.29771 -5.36469,-5.09342" />
          <path
             d="m -166.01481,313.40469 c 0,-2.80065 2.40621,-5.07863 5.35973,-5.07863 2.97818,0 5.37946,2.27798 5.37946,5.07863 0,2.81543 -2.40128,5.09341 -5.37946,5.09341 -2.95352,0 -5.35973,-2.27798 -5.35973,-5.09341"
             style="font-size:12px;fill:#e3e4e5;fill-opacity:1;stroke:#000000;stroke-width:1.0516727;stroke-miterlimit:4;stroke-opacity:1;stroke-dasharray:none"
             id="path10193" />
        </g>
        <rect
           style="color:#000000;fill:#eac102;fill-opacity:1;fill-rule:evenodd;stroke:#000000;stroke-width:1.09573972;stroke-linecap:round;stroke-linejoin:miter;stroke-miterlimit:4;stroke-opacity:1;stroke-dasharray:none;stroke-dashoffset:0;marker:none;visibility:visible;display:inline;overflow:visible;enable-background:accumulate"
           id="rect10199"
           width="35.5821"
           height="35.814728"
           x="589.5448"
           y="984.30859"
           transform="matrix(0.9333663,0.3589253,-0.8147016,0.5798804,0,0)" />
        <rect
           transform="matrix(0.9346144,0.3556626,-0.8166963,0.5770677,0,0)"
           y="995.34979"
           x="601.25848"
           height="23.482029"
           width="23.33021"
           id="rect10201"
           style="color:#000000;fill:#008f4c;fill-opacity:1;fill-rule:evenodd;stroke:#000000;stroke-width:1.09828079;stroke-linecap:round;stroke-linejoin:miter;stroke-miterlimit:4;stroke-opacity:1;stroke-dasharray:none;stroke-dashoffset:0;marker:none;visibility:visible;display:inline;overflow:visible;enable-background:accumulate" />
        <rect
           transform="matrix(-0.9333663,0.3589253,0.8147016,0.5798804,0,0)"
           y="850.85376"
           x="805.15466"
           height="35.814728"
           width="35.5821"
           id="rect10205"
           style="color:#000000;fill:#eac102;fill-opacity:1;fill-rule:evenodd;stroke:#000000;stroke-width:1.09573972;stroke-linecap:round;stroke-linejoin:miter;stroke-miterlimit:4;stroke-opacity:1;stroke-dasharray:none;stroke-dashoffset:0;marker:none;visibility:visible;display:inline;overflow:visible;enable-background:accumulate" />
        <rect
           style="color:#000000;fill:#008f4c;fill-opacity:1;fill-rule:evenodd;stroke:#000000;stroke-width:1.09828079;stroke-linecap:round;stroke-linejoin:miter;stroke-miterlimit:4;stroke-opacity:1;stroke-dasharray:none;stroke-dashoffset:0;marker:none;visibility:visible;display:inline;overflow:visible;enable-background:accumulate"
           id="rect10207"
           width="23.33021"
           height="23.482029"
           x="816.81885"
           y="862.4939"
           transform="matrix(-0.9346144,0.3556626,0.8166963,0.5770677,0,0)" />
        <g
           id="g10221"
           transform="matrix(1.1352899,-0.1195623,0.1195623,1.1352899,-356.9692,2224.9377)"
           style="fill:#e3e4e5;fill-opacity:1">
          <path
             style="fill:#e3e4e5;fill-opacity:1;stroke:#010101;stroke-width:0.87639374;stroke-miterlimit:4;stroke-dasharray:none"
             d="m 237.65355,-1260.3099 c 0,4.5847 -3.71338,8.2981 -8.29813,8.2981 -4.58054,0 -8.29392,-3.7134 -8.29392,-8.2981 0,-4.5827 3.71338,-8.296 8.29392,-8.296 4.58475,0 8.29813,3.7133 8.29813,8.296 z"
             type="arc"
             cx="-486.21375"
             ry="3.9327636"
             cy="-89.381149"
             rx="3.9327636"
             id="path10223" />
          <path
             id="path10225"
             rx="3.9327636"
             cy="-89.381149"
             ry="3.9327636"
             cx="-486.21375"
             type="arc"
             d="m 249.36888,-1254.0617 c 0,4.5847 -3.71338,8.2981 -8.29813,8.2981 -4.58054,0 -8.29392,-3.7134 -8.29392,-8.2981 0,-4.5827 3.71338,-8.296 8.29392,-8.296 4.58475,0 8.29813,3.7133 8.29813,8.296 z"
             style="fill:#e3e4e5;fill-opacity:1;stroke:#010101;stroke-width:0.87639374;stroke-miterlimit:4;stroke-dasharray:none" />
          <path
             style="fill:#e3e4e5;fill-opacity:1;stroke:#010101;stroke-width:0.87639374;stroke-miterlimit:4;stroke-dasharray:none"
             d="m 259.1791,-1244.2515 c 0,4.5847 -3.71338,8.2981 -8.29813,8.2981 -4.58054,0 -8.29392,-3.7134 -8.29392,-8.2981 0,-4.5827 3.71338,-8.296 8.29392,-8.296 4.58475,0 8.29813,3.7133 8.29813,8.296 z"
             type="arc"
             cx="-486.21375"
             ry="3.9327636"
             cy="-89.381149"
             rx="3.9327636"
             id="path10227" />
          <path
             id="path10229"
             rx="3.9327636"
             cy="-89.381149"
             ry="3.9327636"
             cx="-486.21375"
             type="arc"
             d="m 266.55136,-1233.3172 c 0,4.5847 -3.71338,8.2981 -8.29813,8.2981 -4.58054,0 -8.29392,-3.7134 -8.29392,-8.2981 0,-4.5827 3.71338,-8.296 8.29392,-8.296 4.58475,0 8.29813,3.7133 8.29813,8.296 z"
             style="fill:#e3e4e5;fill-opacity:1;stroke:#010101;stroke-width:0.87639374;stroke-miterlimit:4;stroke-dasharray:none" />
          <path
             style="fill:#e3e4e5;fill-opacity:1;stroke:#010101;stroke-width:0.87639374;stroke-miterlimit:4;stroke-dasharray:none"
             d="m 272.01851,-1220.8208 c 0,4.5847 -3.71338,8.2981 -8.29813,8.2981 -4.58054,0 -8.29392,-3.7134 -8.29392,-8.2981 0,-4.5827 3.71338,-8.296 8.29392,-8.296 4.58475,0 8.29813,3.7133 8.29813,8.296 z"
             type="arc"
             cx="-486.21375"
             ry="3.9327636"
             cy="-89.381149"
             rx="3.9327636"
             id="path10231" />
          <path
             id="path10233"
             rx="3.9327636"
             cy="-89.381149"
             ry="3.9327636"
             cx="-486.21375"
             type="arc"
             d="m 275.92362,-1207.5435 c 0,4.5847 -3.71338,8.2981 -8.29813,8.2981 -4.58054,0 -8.29392,-3.7134 -8.29392,-8.2981 0,-4.5827 3.71338,-8.296 8.29392,-8.296 4.58475,0 8.29813,3.7133 8.29813,8.296 z"
             style="fill:#e3e4e5;fill-opacity:1;stroke:#010101;stroke-width:0.87639374;stroke-miterlimit:4;stroke-dasharray:none" />
        </g>
        <g
           id="g10247"
           transform="matrix(1.133371,0.1365607,-0.1365607,1.133371,-539.76737,2159.1761)"
           style="fill:#e3e4e5;fill-opacity:1">
          <path
             id="path10249"
             rx="3.9327636"
             cy="-89.381149"
             ry="3.9327636"
             cx="-486.21375"
             type="arc"
             d="m 237.65355,-1260.3099 c 0,4.5847 -3.71338,8.2981 -8.29813,8.2981 -4.58054,0 -8.29392,-3.7134 -8.29392,-8.2981 0,-4.5827 3.71338,-8.296 8.29392,-8.296 4.58475,0 8.29813,3.7133 8.29813,8.296 z"
             style="fill:#e3e4e5;fill-opacity:1;stroke:#010101;stroke-width:0.87639374;stroke-miterlimit:4;stroke-dasharray:none" />
          <path
             style="fill:#e3e4e5;fill-opacity:1;stroke:#010101;stroke-width:0.87639374;stroke-miterlimit:4;stroke-dasharray:none"
             d="m 249.36888,-1254.0617 c 0,4.5847 -3.71338,8.2981 -8.29813,8.2981 -4.58054,0 -8.29392,-3.7134 -8.29392,-8.2981 0,-4.5827 3.71338,-8.296 8.29392,-8.296 4.58475,0 8.29813,3.7133 8.29813,8.296 z"
             type="arc"
             cx="-486.21375"
             ry="3.9327636"
             cy="-89.381149"
             rx="3.9327636"
             id="path10251" />
          <path
             id="path10253"
             rx="3.9327636"
             cy="-89.381149"
             ry="3.9327636"
             cx="-486.21375"
             type="arc"
             d="m 259.1791,-1244.2515 c 0,4.5847 -3.71338,8.2981 -8.29813,8.2981 -4.58054,0 -8.29392,-3.7134 -8.29392,-8.2981 0,-4.5827 3.71338,-8.296 8.29392,-8.296 4.58475,0 8.29813,3.7133 8.29813,8.296 z"
             style="fill:#e3e4e5;fill-opacity:1;stroke:#010101;stroke-width:0.87639374;stroke-miterlimit:4;stroke-dasharray:none" />
          <path
             style="fill:#e3e4e5;fill-opacity:1;stroke:#010101;stroke-width:0.87639374;stroke-miterlimit:4;stroke-dasharray:none"
             d="m 266.55136,-1233.3172 c 0,4.5847 -3.71338,8.2981 -8.29813,8.2981 -4.58054,0 -8.29392,-3.7134 -8.29392,-8.2981 0,-4.5827 3.71338,-8.296 8.29392,-8.296 4.58475,0 8.29813,3.7133 8.29813,8.296 z"
             type="arc"
             cx="-486.21375"
             ry="3.9327636"
             cy="-89.381149"
             rx="3.9327636"
             id="path10255" />
          <path
             id="path10257"
             rx="3.9327636"
             cy="-89.381149"
             ry="3.9327636"
             cx="-486.21375"
             type="arc"
             d="m 272.01851,-1220.8208 c 0,4.5847 -3.71338,8.2981 -8.29813,8.2981 -4.58054,0 -8.29392,-3.7134 -8.29392,-8.2981 0,-4.5827 3.71338,-8.296 8.29392,-8.296 4.58475,0 8.29813,3.7133 8.29813,8.296 z"
             style="fill:#e3e4e5;fill-opacity:1;stroke:#010101;stroke-width:0.87639374;stroke-miterlimit:4;stroke-dasharray:none" />
          <path
             style="fill:#e3e4e5;fill-opacity:1;stroke:#010101;stroke-width:0.87639374;stroke-miterlimit:4;stroke-dasharray:none"
             d="m 275.92362,-1207.5435 c 0,4.5847 -3.71338,8.2981 -8.29813,8.2981 -4.58054,0 -8.29392,-3.7134 -8.29392,-8.2981 0,-4.5827 3.71338,-8.296 8.29392,-8.296 4.58475,0 8.29813,3.7133 8.29813,8.296 z"
             type="arc"
             cx="-486.21375"
             ry="3.9327636"
             cy="-89.381149"
             rx="3.9327636"
             id="path10259" />
        </g>
        <path
           id="path11675"
           rx="3.9327636"
           cy="-89.381149"
           ry="3.9327636"
           cx="-486.21375"
           type="arc"
           d="m -77.974812,866.74437 c -0.4496,-5.2144 3.4096,-9.802 8.6241,-10.2516 5.2096,-0.4492 9.7972,3.4101 10.2468,8.6245 0.4494,5.2121 -3.4098,9.7996 -8.6195,10.2488 -5.2144,0.4496 -9.802,-3.4095 -10.2514,-8.6217 z"
           style="fill:#e3e4e5;fill-opacity:1;stroke:#010101;stroke-width:1.00046349;stroke-miterlimit:4;stroke-dasharray:none" />
        <path
           style="fill:#e3e4e5;fill-opacity:1;stroke:#010101;stroke-width:1.00046349;stroke-miterlimit:4;stroke-dasharray:none"
           d="m -91.912012,860.78697 c -0.4496,-5.2144 3.4096,-9.802 8.6241,-10.2516 5.2097,-0.4493 9.7972,3.41 10.2469,8.6244 0.4494,5.2121 -3.4099,9.7996 -8.6195,10.2488 -5.2145,0.4497 -9.8021,-3.4095 -10.2515,-8.6216 z"
           type="arc"
           cx="-486.21375"
           ry="3.9327636"
           cy="-89.381149"
           rx="3.9327636"
           id="path11677" />
        <path
           id="path11679"
           rx="3.9327636"
           cy="-89.381149"
           ry="3.9327636"
           cx="-486.21375"
           type="arc"
           d="m -104.03171,850.59147 c -0.4496,-5.2144 3.4096,-9.802 8.624098,-10.2517 5.2096,-0.4492 9.7972,3.4101 10.2468,8.6245 0.4495,5.2121 -3.4098,9.7996 -8.6195,10.2488 -5.2144,0.4496 -9.801998,-3.4095 -10.251398,-8.6216 z"
           style="fill:#e3e4e5;fill-opacity:1;stroke:#010101;stroke-width:1.00046349;stroke-miterlimit:4;stroke-dasharray:none" />
        <path
           style="fill:#e3e4e5;fill-opacity:1;stroke:#010101;stroke-width:1.00046349;stroke-miterlimit:4;stroke-dasharray:none"
           d="m -113.48891,839.6896 c -0.4496,-5.2144 3.4097,-9.802 8.6241,-10.2516 5.209698,-0.4492 9.797298,3.4101 10.246898,8.6245 0.4494,5.2121 -3.4098,9.7996 -8.619498,10.2488 -5.2145,0.4496 -9.802,-3.4095 -10.2515,-8.6217 z"
           type="arc"
           cx="-486.21375"
           ry="3.9327636"
           cy="-89.381149"
           rx="3.9327636"
           id="path11681" />
        <path
           style="fill:#e3e4e5;fill-opacity:1;stroke:#010101;stroke-width:1.00046349;stroke-miterlimit:4;stroke-dasharray:none"
           d="m -120.41554,828.12086 c 1.4487,3.8882 5.39653,6.08822 9.73413,5.71422 3.5085,-0.3025 6.40982,-1.73647 7.79142,-4.71987 -5.5817,-0.2765 -11.64745,-0.83495 -17.52555,-0.99435 z"
           id="path11791"
           sodipodi:nodetypes="cscc" />
        <path
           style="fill:#e3e4e5;fill-opacity:1;stroke:#010101;stroke-width:1.00046349;stroke-miterlimit:4;stroke-dasharray:none"
           d="m -240.77708,868.18157 c -0.4496,-5.2144 3.4096,-9.802 8.6241,-10.2516 5.2096,-0.4492 9.7972,3.4101 10.2468,8.6245 0.4494,5.2121 -3.4098,9.7996 -8.6195,10.2488 -5.2144,0.4496 -9.802,-3.4095 -10.2514,-8.6217 z"
           type="arc"
           cx="-486.21375"
           ry="3.9327636"
           cy="-89.381149"
           rx="3.9327636"
           id="path11702" />
        <path
           id="path11704"
           rx="3.9327636"
           cy="-89.381149"
           ry="3.9327636"
           cx="-486.21375"
           type="arc"
           d="m -254.71428,862.22417 c -0.4496,-5.2144 3.4096,-9.802 8.6241,-10.2516 5.2097,-0.4493 9.7972,3.41 10.2469,8.6244 0.4494,5.2121 -3.4099,9.7996 -8.6195,10.2488 -5.2145,0.4497 -9.8021,-3.4095 -10.2515,-8.6216 z"
           style="fill:#e3e4e5;fill-opacity:1;stroke:#010101;stroke-width:1.00046349;stroke-miterlimit:4;stroke-dasharray:none" />
        <path
           style="fill:#e3e4e5;fill-opacity:1;stroke:#010101;stroke-width:1.00046349;stroke-miterlimit:4;stroke-dasharray:none"
           d="m -266.83398,852.02867 c -0.4496,-5.2144 3.4096,-9.802 8.6241,-10.2517 5.2096,-0.4492 9.7972,3.4101 10.2468,8.6245 0.4495,5.2121 -3.4098,9.7996 -8.6195,10.2488 -5.2144,0.4496 -9.802,-3.4095 -10.2514,-8.6216 z"
           type="arc"
           cx="-486.21375"
           ry="3.9327636"
           cy="-89.381149"
           rx="3.9327636"
           id="path11706" />
        <path
           style="fill:#e3e4e5;fill-opacity:1;stroke:#010101;stroke-width:1.00046349;stroke-miterlimit:4;stroke-dasharray:none"
           d="m 91.5625,117.5625 c -0.288913,1.0522 -0.474247,2.16145 -0.375,3.3125 0.4495,5.2122 5.035504,9.0746 10.25,8.625 5.2097,-0.4492 9.0744,-5.0379 8.625,-10.25 -0.13861,-1.60754 -0.7716,-3.01783 -1.59375,-4.28125 -1.79795,0.29756 -0.82149,0.16668 -8.1875,1.3125 -8.178848,1.27227 -7.326088,1.10428 -8.71875,1.28125 z"
           id="path12280"
           transform="translate(-367.48434,719.44509)" />
      </g>
    </g>
  </g>
</svg>
